<?xml version="1.0" encoding="UTF-8"?>
<!DOCTYPE svg PUBLIC "-//W3C//DTD SVG 1.1//EN" "http://www.w3.org/Graphics/SVG/1.1/DTD/svg11.dtd">
<!-- Creator: CorelDRAW -->
<svg xmlns="http://www.w3.org/2000/svg" xml:space="preserve" width="2400px" height="3600px" style="shape-rendering:geometricPrecision; text-rendering:geometricPrecision; image-rendering:optimizeQuality; fill-rule:evenodd; clip-rule:evenodd"
viewBox="0 0 2400 3394.29"
 xmlns:xlink="http://www.w3.org/1999/xlink">
 <defs>
  <style type="text/css">
   <![CDATA[
    .fil0 {fill:#555753}
    .fil1 {fill:url(#id8)}
    .fil2 {fill:url(#id9)}
   ]]>
  </style>
    <mask id="id0">
  <linearGradient id="id1" gradientUnits="userSpaceOnUse" x1="1199.93" y1="1897.82" x2="1199.93" y2="1496.4">
   <stop offset="0" style="stop-opacity:1; stop-color:white"/>
   <stop offset="1" style="stop-opacity:0; stop-color:white"/>
   <stop offset="1" style="stop-opacity:0; stop-color:white"/>
  </linearGradient>
     <rect style="fill:url(#id1)" x="850.217" y="1495.96" width="699.435" height="402.295"/>
    </mask>
    <mask id="id2">
  <linearGradient id="id3" gradientUnits="userSpaceOnUse" x1="1206.37" y1="1464.1" x2="1191.69" y2="1730.22">
   <stop offset="0" style="stop-opacity:1; stop-color:white"/>
   <stop offset="1" style="stop-opacity:0; stop-color:white"/>
   <stop offset="1" style="stop-opacity:1; stop-color:white"/>
  </linearGradient>
     <rect style="fill:url(#id3)" x="852.459" y="1482.36" width="693.145" height="229.602"/>
    </mask>
    <mask id="id4">
  <linearGradient id="id5" gradientUnits="userSpaceOnUse" x1="1199.93" y1="1897.82" x2="1199.93" y2="1496.4">
   <stop offset="0" style="stop-opacity:1; stop-color:white"/>
   <stop offset="1" style="stop-opacity:0; stop-color:white"/>
   <stop offset="1" style="stop-opacity:0; stop-color:white"/>
  </linearGradient>
     <rect style="fill:url(#id5)" x="850.217" y="1495.96" width="699.435" height="402.295"/>
    </mask>
    <mask id="id6">
  <linearGradient id="id7" gradientUnits="userSpaceOnUse" x1="1206.37" y1="1464.1" x2="1191.69" y2="1730.22">
   <stop offset="0" style="stop-opacity:1; stop-color:white"/>
   <stop offset="1" style="stop-opacity:0; stop-color:white"/>
   <stop offset="1" style="stop-opacity:1; stop-color:white"/>
  </linearGradient>
     <rect style="fill:url(#id7)" x="852.459" y="1482.36" width="693.145" height="229.602"/>
    </mask>
  <linearGradient id="id8" gradientUnits="userSpaceOnUse" x1="1199.93" y1="1897.82" x2="1199.93" y2="1496.4">
   <stop offset="0" style="stop-color:black"/>
   <stop offset="1" style="stop-color:black"/>
   <stop offset="1" style="stop-color:black"/>
  </linearGradient>
  <linearGradient id="id9" gradientUnits="userSpaceOnUse" x1="1205.35" y1="1482.73" x2="1192.72" y2="1711.59">
   <stop offset="0" style="stop-color:white"/>
   <stop offset="1" style="stop-color:white"/>
   <stop offset="1" style="stop-color:white"/>
  </linearGradient>
 </defs>
 <g id="Layer_x0020_1">
  <metadata id="CorelCorpID_0Corel-Layer"/>
  <g id="_164926008">
   <path id="_164926392" class="fil0" d="M942.793 1499.53c-50.8194,1.35314 -94.1943,48.1451 -91.8731,98.872 0.547429,70.5189 -1.072,141.137 0.774857,211.598 4.91657,48.7109 51.3074,87.8263 100.241,84.8914 169.241,-0.211429 338.504,0.422857 507.729,-0.315429 49.8549,-2.72114 91.6046,-48.8183 89.4137,-98.6823 -0.546286,-70.5406 1.07314,-141.179 -0.774857,-211.662 -4.89257,-48.592 -51.2377,-87.8446 -100.115,-84.8286 -168.464,0.0845714 -336.937,-0.168 -505.395,0.126857zm103.16 92.6286c52.2503,-2.46629 101.255,39.6606 106.818,91.5577 7.54743,50.9794 -27.9303,103.07 -77.8754,114.952 -49.6686,13.9771 -106.045,-15.0743 -123.904,-63.1829 -19.4869,-46.7611 1.19314,-105.304 45.5257,-129.455 14.9554,-8.67657 32.1589,-13.4274 49.4354,-13.872zm302.67 0c52.2503,-2.46629 101.255,39.6606 106.817,91.5577 7.54743,50.9794 -27.9291,103.07 -77.8743,114.952 -49.6686,13.9771 -106.045,-15.0743 -123.905,-63.1829 -19.4869,-46.7611 1.19429,-105.304 45.5269,-129.455 14.9554,-8.67657 32.1589,-13.4274 49.4354,-13.872z"/>
   <path id="_164926320" class="fil1" style="mask:url(#id0)" d="M942.793 1499.53c-50.8194,1.35314 -94.1943,48.1451 -91.8731,98.872 0.547429,70.5189 -1.072,141.137 0.774857,211.597 4.91657,48.712 51.3074,87.8286 100.241,84.8926 169.241,-0.211429 338.504,0.422857 507.729,-0.314286 49.8549,-2.72229 91.6046,-48.8194 89.4126,-98.6846 -0.545143,-70.5394 1.07429,-141.178 -0.773714,-211.661 -4.89371,-48.592 -51.2377,-87.8434 -100.115,-84.8274 -168.464,0.0834286 -336.937,-0.169143 -505.395,0.125714zm103.16 92.6286c52.2503,-2.46629 101.255,39.6606 106.818,91.5577 7.54743,50.9806 -27.9303,103.07 -77.8754,114.951 -49.6686,13.9783 -106.045,-15.0731 -123.904,-63.1817 -19.4869,-46.7611 1.19314,-105.304 45.5257,-129.455 14.9554,-8.67657 32.1589,-13.4274 49.4354,-13.872zm302.67 0c52.2503,-2.46629 101.255,39.6606 106.817,91.5577 7.54857,50.9806 -27.9291,103.07 -77.8743,114.951 -49.6686,13.9783 -106.045,-15.0731 -123.905,-63.1817 -19.4869,-46.7611 1.19429,-105.304 45.5269,-129.455 14.9554,-8.67657 32.1589,-13.4274 49.4354,-13.872z"/>
   <path id="_164926248" class="fil2" style="mask:url(#id2)" d="M1450.71 1503.31c-171.498,0.664 -343.072,-0.723429 -514.538,0.756571 -48.12,5.01714 -86.1371,52.3874 -81.1783,100.385 -4.35657,13.2777 8.96343,15.5954 18.2069,20.0709 24.6766,10.6651 51.4389,21.7851 76.5291,27.2217 21.2983,-50.4983 84.4023,-76.9269 135.57,-57.3817 39.5714,14.2903 69.7931,52.2766 72.136,94.7109 28.2811,2.15314 56.6377,3.312 84.9989,3.46857 1.65371,-48.4251 38.3554,-92.9211 86.136,-102.088 53.5897,-12.9497 111.47,22.224 127.057,74.3429 1.99886,5.08571 0.842286,13.7543 8.82514,9.17029 27.224,-5.04 54.0743,-11.1349 80.7154,-18.8183 -1.59429,-28.8297 2.86057,-58.8274 -4.16229,-86.8286 -11.7691,-37.8446 -50.2869,-66.5463 -90.296,-65.0103z"/>
   <path id="_164926176" class="fil0" d="M942.793 1499.53c-50.8194,1.35314 -94.1943,48.1451 -91.8731,98.872 0.547429,70.5189 -1.072,141.137 0.774857,211.598 4.91657,48.7109 51.3074,87.8263 100.241,84.8914 169.241,-0.211429 338.504,0.422857 507.729,-0.315429 49.8549,-2.72114 91.6046,-48.8183 89.4137,-98.6823 -0.546286,-70.5406 1.07314,-141.179 -0.774857,-211.662 -4.89257,-48.592 -51.2377,-87.8446 -100.115,-84.8286 -168.464,0.0845714 -336.937,-0.168 -505.395,0.126857zm103.16 92.6286c52.2503,-2.46629 101.255,39.6606 106.818,91.5577 7.54743,50.9794 -27.9303,103.07 -77.8754,114.952 -49.6686,13.9771 -106.045,-15.0743 -123.904,-63.1829 -19.4869,-46.7611 1.19314,-105.304 45.5257,-129.455 14.9554,-8.67657 32.1589,-13.4274 49.4354,-13.872zm302.67 0c52.2503,-2.46629 101.255,39.6606 106.817,91.5577 7.54743,50.9794 -27.9291,103.07 -77.8743,114.952 -49.6686,13.9771 -106.045,-15.0743 -123.905,-63.1829 -19.4869,-46.7611 1.19429,-105.304 45.5269,-129.455 14.9554,-8.67657 32.1589,-13.4274 49.4354,-13.872z"/>
   <path id="_164926104" class="fil1" style="mask:url(#id4)" d="M942.793 1499.53c-50.8194,1.35314 -94.1943,48.1451 -91.8731,98.872 0.547429,70.5189 -1.072,141.137 0.774857,211.597 4.91657,48.712 51.3074,87.8286 100.241,84.8926 169.241,-0.211429 338.504,0.422857 507.729,-0.314286 49.8549,-2.72229 91.6046,-48.8194 89.4126,-98.6846 -0.545143,-70.5394 1.07429,-141.178 -0.773714,-211.661 -4.89371,-48.592 -51.2377,-87.8434 -100.115,-84.8274 -168.464,0.0834286 -336.937,-0.169143 -505.395,0.125714zm103.16 92.6286c52.2503,-2.46629 101.255,39.6606 106.818,91.5577 7.54743,50.9806 -27.9303,103.07 -77.8754,114.951 -49.6686,13.9783 -106.045,-15.0731 -123.904,-63.1817 -19.4869,-46.7611 1.19314,-105.304 45.5257,-129.455 14.9554,-8.67657 32.1589,-13.4274 49.4354,-13.872zm302.67 0c52.2503,-2.46629 101.255,39.6606 106.817,91.5577 7.54857,50.9806 -27.9291,103.07 -77.8743,114.951 -49.6686,13.9783 -106.045,-15.0731 -123.905,-63.1817 -19.4869,-46.7611 1.19429,-105.304 45.5269,-129.455 14.9554,-8.67657 32.1589,-13.4274 49.4354,-13.872z"/>
   <path id="_164926032" class="fil2" style="mask:url(#id6)" d="M1450.71 1503.31c-171.498,0.664 -343.072,-0.723429 -514.538,0.756571 -48.12,5.01714 -86.1371,52.3874 -81.1783,100.385 -4.35657,13.2777 8.96343,15.5954 18.2069,20.0709 24.6766,10.6651 51.4389,21.7851 76.5291,27.2217 21.2983,-50.4983 84.4023,-76.9269 135.57,-57.3817 39.5714,14.2903 69.7931,52.2766 72.136,94.7109 28.2811,2.15314 56.6377,3.312 84.9989,3.46857 1.65371,-48.4251 38.3554,-92.9211 86.136,-102.088 53.5897,-12.9497 111.47,22.224 127.057,74.3429 1.99886,5.08571 0.842286,13.7543 8.82514,9.17029 27.224,-5.04 54.0743,-11.1349 80.7154,-18.8183 -1.59429,-28.8297 2.86057,-58.8274 -4.16229,-86.8286 -11.7691,-37.8446 -50.2869,-66.5463 -90.296,-65.0103z"/>
  </g>
 </g>
</svg>
