  0
SECTION
  2
HEADER
  9
$ACADVER
  1
AC1021
  9
$ACADMAINTVER
 70
    25
  9
$DWGCODEPAGE
  3
ANSI_1252
  9
$INSBASE
 10
0.0
 20
0.0
 30
0.0
  9
$EXTMIN
 10
-14.0
 20
-16.85
 30
0.0
  9
$EXTMAX
 10
-7.0
 20
-12.85
 30
0.0
  9
$LIMMIN
 10
0.0
 20
0.0
  9
$LIMMAX
 10
12.0
 20
9.0
  9
$ORTHOMODE
 70
     0
  9
$REGENMODE
 70
     1
  9
$FILLMODE
 70
     1
  9
$QTEXTMODE
 70
     0
  9
$MIRRTEXT
 70
     1
  9
$LTSCALE
 40
1.0
  9
$ATTMODE
 70
     1
  9
$TEXTSIZE
 40
0.2
  9
$TRACEWID
 40
0.05
  9
$TEXTSTYLE
  7
Standard
  9
$CLAYER
  8
0
  9
$CELTYPE
  6
ByLayer
  9
$CECOLOR
 62
   256
  9
$CELTSCALE
 40
1.0
  9
$DISPSILH
 70
     0
  9
$DIMSCALE
 40
1.0
  9
$DIMASZ
 40
0.18
  9
$DIMEXO
 40
0.0625
  9
$DIMDLI
 40
0.38
  9
$DIMRND
 40
0.0
  9
$DIMDLE
 40
0.0
  9
$DIMEXE
 40
0.18
  9
$DIMTP
 40
0.0
  9
$DIMTM
 40
0.0
  9
$DIMTXT
 40
0.18
  9
$DIMCEN
 40
0.09
  9
$DIMTSZ
 40
0.0
  9
$DIMTOL
 70
     0
  9
$DIMLIM
 70
     0
  9
$DIMTIH
 70
     1
  9
$DIMTOH
 70
     1
  9
$DIMSE1
 70
     0
  9
$DIMSE2
 70
     0
  9
$DIMTAD
 70
     0
  9
$DIMZIN
 70
     0
  9
$DIMBLK
  1

  9
$DIMASO
 70
     1
  9
$DIMSHO
 70
     1
  9
$DIMPOST
  1

  9
$DIMAPOST
  1

  9
$DIMALT
 70
     0
  9
$DIMALTD
 70
     2
  9
$DIMALTF
 40
25.4
  9
$DIMLFAC
 40
1.0
  9
$DIMTOFL
 70
     0
  9
$DIMTVP
 40
0.0
  9
$DIMTIX
 70
     0
  9
$DIMSOXD
 70
     0
  9
$DIMSAH
 70
     0
  9
$DIMBLK1
  1

  9
$DIMBLK2
  1

  9
$DIMSTYLE
  2
Standard
  9
$DIMCLRD
 70
     0
  9
$DIMCLRE
 70
     0
  9
$DIMCLRT
 70
     0
  9
$DIMTFAC
 40
1.0
  9
$DIMGAP
 40
0.09
  9
$DIMJUST
 70
     0
  9
$DIMSD1
 70
     0
  9
$DIMSD2
 70
     0
  9
$DIMTOLJ
 70
     1
  9
$DIMTZIN
 70
     0
  9
$DIMALTZ
 70
     0
  9
$DIMALTTZ
 70
     0
  9
$DIMUPT
 70
     0
  9
$DIMDEC
 70
     4
  9
$DIMTDEC
 70
     4
  9
$DIMALTU
 70
     2
  9
$DIMALTTD
 70
     2
  9
$DIMTXSTY
  7
Standard
  9
$DIMAUNIT
 70
     0
  9
$DIMADEC
 70
     0
  9
$DIMALTRND
 40
0.0
  9
$DIMAZIN
 70
     0
  9
$DIMDSEP
 70
    46
  9
$DIMATFIT
 70
     3
  9
$DIMFRAC
 70
     0
  9
$DIMLDRBLK
  1

  9
$DIMLUNIT
 70
     2
  9
$DIMLWD
 70
    -2
  9
$DIMLWE
 70
    -2
  9
$DIMTMOVE
 70
     0
  9
$DIMFXL
 40
1.0
  9
$DIMFXLON
 70
     0
  9
$DIMJOGANG
 40
0.7853981633974483
  9
$DIMTFILL
 70
     0
  9
$DIMTFILLCLR
 70
     0
  9
$DIMARCSYM
 70
     0
  9
$DIMLTYPE
  6

  9
$DIMLTEX1
  6

  9
$DIMLTEX2
  6

  9
$LUNITS
 70
     2
  9
$LUPREC
 70
     4
  9
$SKETCHINC
 40
0.1
  9
$FILLETRAD
 40
0.5
  9
$AUNITS
 70
     0
  9
$AUPREC
 70
     0
  9
$MENU
  1
.
  9
$ELEVATION
 40
0.0
  9
$PELEVATION
 40
0.0
  9
$THICKNESS
 40
0.0
  9
$LIMCHECK
 70
     0
  9
$CHAMFERA
 40
0.5
  9
$CHAMFERB
 40
0.5
  9
$CHAMFERC
 40
1.0
  9
$CHAMFERD
 40
0.0
  9
$SKPOLY
 70
     0
  9
$TDCREATE
 40
2455840.801400752
  9
$TDUCREATE
 40
2455840.759734086
  9
$TDUPDATE
 40
2455840.801400764
  9
$TDUUPDATE
 40
2455840.759734097
  9
$TDINDWG
 40
0.0000000116
  9
$TDUSRTIMER
 40
0.0000000116
  9
$USRTIMER
 70
     1
  9
$ANGBASE
 50
0.0
  9
$ANGDIR
 70
     0
  9
$PDMODE
 70
     0
  9
$PDSIZE
 40
0.0
  9
$PLINEWID
 40
0.0
  9
$SPLFRAME
 70
     0
  9
$SPLINETYPE
 70
     6
  9
$SPLINESEGS
 70
     8
  9
$HANDSEED
  5
86
  9
$SURFTAB1
 70
     6
  9
$SURFTAB2
 70
     6
  9
$SURFTYPE
 70
     6
  9
$SURFU
 70
     6
  9
$SURFV
 70
     6
  9
$UCSBASE
  2

  9
$UCSNAME
  2

  9
$UCSORG
 10
0.0
 20
0.0
 30
0.0
  9
$UCSXDIR
 10
1.0
 20
0.0
 30
0.0
  9
$UCSYDIR
 10
0.0
 20
1.0
 30
0.0
  9
$UCSORTHOREF
  2

  9
$UCSORTHOVIEW
 70
     0
  9
$UCSORGTOP
 10
0.0
 20
0.0
 30
0.0
  9
$UCSORGBOTTOM
 10
0.0
 20
0.0
 30
0.0
  9
$UCSORGLEFT
 10
0.0
 20
0.0
 30
0.0
  9
$UCSORGRIGHT
 10
0.0
 20
0.0
 30
0.0
  9
$UCSORGFRONT
 10
0.0
 20
0.0
 30
0.0
  9
$UCSORGBACK
 10
0.0
 20
0.0
 30
0.0
  9
$PUCSBASE
  2

  9
$PUCSNAME
  2

  9
$PUCSORG
 10
0.0
 20
0.0
 30
0.0
  9
$PUCSXDIR
 10
1.0
 20
0.0
 30
0.0
  9
$PUCSYDIR
 10
0.0
 20
1.0
 30
0.0
  9
$PUCSORTHOREF
  2

  9
$PUCSORTHOVIEW
 70
     0
  9
$PUCSORGTOP
 10
0.0
 20
0.0
 30
0.0
  9
$PUCSORGBOTTOM
 10
0.0
 20
0.0
 30
0.0
  9
$PUCSORGLEFT
 10
0.0
 20
0.0
 30
0.0
  9
$PUCSORGRIGHT
 10
0.0
 20
0.0
 30
0.0
  9
$PUCSORGFRONT
 10
0.0
 20
0.0
 30
0.0
  9
$PUCSORGBACK
 10
0.0
 20
0.0
 30
0.0
  9
$USERI1
 70
     0
  9
$USERI2
 70
     0
  9
$USERI3
 70
     0
  9
$USERI4
 70
     0
  9
$USERI5
 70
     0
  9
$USERR1
 40
0.0
  9
$USERR2
 40
0.0
  9
$USERR3
 40
0.0
  9
$USERR4
 40
0.0
  9
$USERR5
 40
0.0
  9
$WORLDVIEW
 70
     1
  9
$SHADEDGE
 70
     3
  9
$SHADEDIF
 70
    70
  9
$TILEMODE
 70
     1
  9
$MAXACTVP
 70
    64
  9
$PINSBASE
 10
0.0
 20
0.0
 30
0.0
  9
$PLIMCHECK
 70
     0
  9
$PEXTMIN
 10
1.000000000000000E+20
 20
1.000000000000000E+20
 30
1.000000000000000E+20
  9
$PEXTMAX
 10
-1.000000000000000E+20
 20
-1.000000000000000E+20
 30
-1.000000000000000E+20
  9
$PLIMMIN
 10
0.0
 20
0.0
  9
$PLIMMAX
 10
12.0
 20
9.0
  9
$UNITMODE
 70
     0
  9
$VISRETAIN
 70
     1
  9
$PLINEGEN
 70
     0
  9
$PSLTSCALE
 70
     1
  9
$TREEDEPTH
 70
  3020
  9
$CMLSTYLE
  2
Standard
  9
$CMLJUST
 70
     0
  9
$CMLSCALE
 40
1.0
  9
$PROXYGRAPHICS
 70
     1
  9
$MEASUREMENT
 70
     0
  9
$CELWEIGHT
370
    -1
  9
$ENDCAPS
280
     0
  9
$JOINSTYLE
280
     0
  9
$LWDISPLAY
290
     0
  9
$INSUNITS
 70
     5
  9
$HYPERLINKBASE
  1

  9
$STYLESHEET
  1

  9
$XEDIT
290
     1
  9
$CEPSNTYPE
380
     0
  9
$PSTYLEMODE
290
     1
  9
$FINGERPRINTGUID
  2
{2639E0F9-D807-4D7B-B232-D085330ABD6D}
  9
$VERSIONGUID
  2
{FAEB1C32-E019-11D5-929B-00C0DF256EC4}
  9
$EXTNAMES
290
     1
  9
$PSVPSCALE
 40
0.0
  9
$OLESTARTUP
290
     0
  9
$SORTENTS
280
   127
  9
$INDEXCTL
280
     0
  9
$HIDETEXT
280
     1
  9
$XCLIPFRAME
290
     0
  9
$HALOGAP
280
     0
  9
$OBSCOLOR
 70
   257
  9
$OBSLTYPE
280
     0
  9
$INTERSECTIONDISPLAY
280
     0
  9
$INTERSECTIONCOLOR
 70
   257
  9
$DIMASSOC
280
     2
  9
$PROJECTNAME
  1

  9
$CAMERADISPLAY
290
     0
  9
$LENSLENGTH
 40
50.0
  9
$CAMERAHEIGHT
 40
0.0
  9
$STEPSPERSEC
 40
2.0
  9
$STEPSIZE
 40
6.0
  9
$3DDWFPREC
 40
2.0
  9
$PSOLWIDTH
 40
0.25
  9
$PSOLHEIGHT
 40
4.0
  9
$LOFTANG1
 40
1.570796326794897
  9
$LOFTANG2
 40
1.570796326794897
  9
$LOFTMAG1
 40
0.0
  9
$LOFTMAG2
 40
0.0
  9
$LOFTPARAM
 70
     7
  9
$LOFTNORMALS
280
     1
  9
$LATITUDE
 40
37.795
  9
$LONGITUDE
 40
-122.394
  9
$NORTHDIRECTION
 40
0.0
  9
$TIMEZONE
 70
 -8000
  9
$LIGHTGLYPHDISPLAY
280
     1
  9
$TILEMODELIGHTSYNCH
280
     1
  9
$SOLIDHIST
280
     1
  9
$SHOWHIST
280
     1
  9
$DWFFRAME
280
     2
  9
$DGNFRAME
280
     2
  9
$REALWORLDSCALE
290
     1
  9
$INTERFERECOLOR
 62
   256
  9
$CSHADOW
280
     0
  9
$SHADOWPLANELOCATION
 40
0.0
  0
ENDSEC
  0
SECTION
  2
CLASSES
  0
CLASS
  1
ACDBDICTIONARYWDFLT
  2
AcDbDictionaryWithDefault
  3
ObjectDBX Classes
 90
        0
 91
        3
280
     0
281
     0
  0
CLASS
  1
VISUALSTYLE
  2
AcDbVisualStyle
  3
ObjectDBX Classes
 90
     4095
 91
        3
280
     0
281
     0
  0
CLASS
  1
SCALE
  2
AcDbScale
  3
ObjectDBX Classes
 90
     1153
 91
        3
280
     0
281
     0
  0
ENDSEC
  0
SECTION
  2
TABLES
  0
TABLE
  2
VPORT
  5
8
330
0
100
AcDbSymbolTable
 70
     1
  0
VPORT
  5
29
330
8
100
AcDbSymbolTableRecord
100
AcDbViewportTableRecord
  2
*Active
 70
     0
 10
0.0
 20
0.0
 11
1.0
 21
1.0
 12
10.42990654205607
 22
4.5
 13
0.0
 23
0.0
 14
0.5
 24
0.5
 15
0.5
 25
0.5
 16
0.0
 26
0.0
 36
1.0
 17
0.0
 27
0.0
 37
0.0
 40
9.0
 41
1.972972972850329
 42
50.0
 43
0.0
 44
0.0
 50
0.0
 51
0.0
 71
     0
 72
   100
 73
     1
 74
     3
 75
     0
 76
     0
 77
     0
 78
     0
281
     0
 65
     1
110
0.0
120
0.0
130
0.0
111
1.0
121
0.0
131
0.0
112
0.0
122
1.0
132
0.0
 79
     0
146
0.0
 60
     3
 61
     5
292
     1
282
     1
141
0.0
142
0.0
 63
   256
  0
ENDTAB
  0
TABLE
  2
LTYPE
  5
5
330
0
100
AcDbSymbolTable
 70
     1
  0
LTYPE
  5
14
330
5
100
AcDbSymbolTableRecord
100
AcDbLinetypeTableRecord
  2
ByBlock
 70
     0
  3

 72
    65
 73
     0
 40
0.0
  0
LTYPE
  5
15
330
5
100
AcDbSymbolTableRecord
100
AcDbLinetypeTableRecord
  2
ByLayer
 70
     0
  3

 72
    65
 73
     0
 40
0.0
  0
LTYPE
  5
16
330
5
100
AcDbSymbolTableRecord
100
AcDbLinetypeTableRecord
  2
Continuous
 70
     0
  3
Solid line
 72
    65
 73
     0
 40
0.0
  0
ENDTAB
  0
TABLE
  2
LAYER
  5
2
330
0
100
AcDbSymbolTable
 70
     2
  0
LAYER
  5
10
330
2
100
AcDbSymbolTableRecord
100
AcDbLayerTableRecord
  2
0
 70
     0
 62
     7
  6
Continuous
370
    -3
390
F
347
0
  0
LAYER
  5
5E
330
2
100
AcDbSymbolTableRecord
100
AcDbLayerTableRecord
  2
Layer 1
 70
     0
 62
     7
  6
Continuous
370
    -3
390
F
347
0
  0
ENDTAB
  0
TABLE
  2
STYLE
  5
3
330
0
100
AcDbSymbolTable
 70
     1
  0
STYLE
  5
11
330
3
100
AcDbSymbolTableRecord
100
AcDbTextStyleTableRecord
  2
Standard
 70
     0
 40
0.0
 41
1.0
 50
0.0
 71
     0
 42
0.2
  3
txt
  4

  0
ENDTAB
  0
TABLE
  2
VIEW
  5
6
330
0
100
AcDbSymbolTable
 70
     0
  0
ENDTAB
  0
TABLE
  2
UCS
  5
7
330
0
100
AcDbSymbolTable
 70
     0
  0
ENDTAB
  0
TABLE
  2
APPID
  5
9
330
0
100
AcDbSymbolTable
 70
     2
  0
APPID
  5
12
330
9
100
AcDbSymbolTableRecord
100
AcDbRegAppTableRecord
  2
ACAD
 70
     0
  0
APPID
  5
5D
330
9
100
AcDbSymbolTableRecord
100
AcDbRegAppTableRecord
  2
ODA
 70
     0
  0
ENDTAB
  0
TABLE
  2
DIMSTYLE
  5
A
330
0
100
AcDbSymbolTable
 70
     1
100
AcDbDimStyleTable
  0
DIMSTYLE
105
27
330
A
100
AcDbSymbolTableRecord
100
AcDbDimStyleTableRecord
  2
Standard
 70
     0
340
11
  0
ENDTAB
  0
TABLE
  2
BLOCK_RECORD
  5
1
330
0
100
AcDbSymbolTable
 70
     1
  0
BLOCK_RECORD
  5
1F
330
1
100
AcDbSymbolTableRecord
100
AcDbBlockTableRecord
  2
*Model_Space
340
22
 70
     0
280
     1
281
     0
  0
BLOCK_RECORD
  5
1B
330
1
100
AcDbSymbolTableRecord
100
AcDbBlockTableRecord
  2
*Paper_Space
340
1E
 70
     0
280
     1
281
     0
  0
BLOCK_RECORD
  5
23
330
1
100
AcDbSymbolTableRecord
100
AcDbBlockTableRecord
  2
*Paper_Space0
340
26
 70
     0
280
     1
281
     0
  0
ENDTAB
  0
ENDSEC
  0
SECTION
  2
BLOCKS
  0
BLOCK
  5
20
330
1F
100
AcDbEntity
  8
0
100
AcDbBlockBegin
  2
*Model_Space
 70
     0
 10
0.0
 20
0.0
 30
0.0
  3
*Model_Space
  1

  0
ENDBLK
  5
21
330
1F
100
AcDbEntity
  8
0
100
AcDbBlockEnd
  0
BLOCK
  5
1C
330
1B
100
AcDbEntity
 67
     1
  8
0
100
AcDbBlockBegin
  2
*Paper_Space
 70
     0
 10
0.0
 20
0.0
 30
0.0
  3
*Paper_Space
  1

  0
ENDBLK
  5
1D
330
1B
100
AcDbEntity
 67
     1
  8
0
100
AcDbBlockEnd
  0
BLOCK
  5
24
330
23
100
AcDbEntity
  8
0
100
AcDbBlockBegin
  2
*Paper_Space0
 70
     0
 10
0.0
 20
0.0
 30
0.0
  3
*Paper_Space0
  1

  0
ENDBLK
  5
25
330
23
100
AcDbEntity
  8
0
100
AcDbBlockEnd
  0
ENDSEC
  0
SECTION
  2
ENTITIES
  0
SPLINE
  5
5F
330
1F
100
AcDbEntity
  8
Layer 1
 62
   250
100
AcDbSpline
210
0.0
220
0.0
230
1.0
 70
    11
 71
     3
 72
    20
 73
    16
 74
     0
 42
0.0000000001
 43
0.0000000001
 40
0.0
 40
0.0
 40
0.0
 40
0.0
 40
0.25
 40
0.25
 40
0.25
 40
0.25
 40
0.5
 40
0.5
 40
0.5
 40
0.5
 40
0.75
 40
0.75
 40
0.75
 40
0.75
 40
1.0
 40
1.0
 40
1.0
 40
1.0
 10
-9.0
 20
-13.84938
 30
0.0
 10
-8.448
 20
-13.84938
 30
0.0
 10
-8.0
 20
-14.29737
 30
0.0
 10
-8.0
 20
-14.84937
 30
0.0
 10
-8.0
 20
-14.84937
 30
0.0
 10
-8.0
 20
-15.40137
 30
0.0
 10
-8.448
 20
-15.84937
 30
0.0
 10
-9.0
 20
-15.84937
 30
0.0
 10
-9.0
 20
-15.84937
 30
0.0
 10
-9.552
 20
-15.84937
 30
0.0
 10
-10.0
 20
-15.40137
 30
0.0
 10
-10.0
 20
-14.84937
 30
0.0
 10
-10.0
 20
-14.84937
 30
0.0
 10
-10.0
 20
-14.29737
 30
0.0
 10
-9.552
 20
-13.84938
 30
0.0
 10
-9.0
 20
-13.84938
 30
0.0
  0
SPLINE
  5
60
330
1F
100
AcDbEntity
  8
Layer 1
 62
   250
100
AcDbSpline
210
0.0
220
0.0
230
1.0
 70
    11
 71
     3
 72
    20
 73
    16
 74
     0
 42
0.0000000001
 43
0.0000000001
 40
0.0
 40
0.0
 40
0.0
 40
0.0
 40
0.25
 40
0.25
 40
0.25
 40
0.25
 40
0.5
 40
0.5
 40
0.5
 40
0.5
 40
0.75
 40
0.75
 40
0.75
 40
0.75
 40
1.0
 40
1.0
 40
1.0
 40
1.0
 10
-12.0
 20
-13.84938
 30
0.0
 10
-11.448
 20
-13.84938
 30
0.0
 10
-11.0
 20
-14.29737
 30
0.0
 10
-11.0
 20
-14.84937
 30
0.0
 10
-11.0
 20
-14.84937
 30
0.0
 10
-11.0
 20
-15.40137
 30
0.0
 10
-11.448
 20
-15.84937
 30
0.0
 10
-12.0
 20
-15.84937
 30
0.0
 10
-12.0
 20
-15.84937
 30
0.0
 10
-12.552
 20
-15.84937
 30
0.0
 10
-13.0
 20
-15.40137
 30
0.0
 10
-13.0
 20
-14.84937
 30
0.0
 10
-13.0
 20
-14.84937
 30
0.0
 10
-13.0
 20
-14.29737
 30
0.0
 10
-12.552
 20
-13.84938
 30
0.0
 10
-12.0
 20
-13.84938
 30
0.0
  0
SPLINE
  5
61
330
1F
100
AcDbEntity
  8
Layer 1
 62
   250
100
AcDbSpline
210
0.0
220
0.0
230
1.0
 70
    11
 71
     3
 72
    36
 73
    32
 74
     0
 42
0.0000000001
 43
0.0000000001
 40
0.0
 40
0.0
 40
0.0
 40
0.0
 40
0.125
 40
0.125
 40
0.125
 40
0.125
 40
0.25
 40
0.25
 40
0.25
 40
0.25
 40
0.375
 40
0.375
 40
0.375
 40
0.375
 40
0.5
 40
0.5
 40
0.5
 40
0.5
 40
0.625
 40
0.625
 40
0.625
 40
0.625
 40
0.75
 40
0.75
 40
0.75
 40
0.75
 40
0.875
 40
0.875
 40
0.875
 40
0.875
 40
1.0
 40
1.0
 40
1.0
 40
1.0
 10
-13.0
 20
-12.85
 30
0.0
 10
-13.552
 20
-12.85
 30
0.0
 10
-14.0
 20
-13.298
 30
0.0
 10
-14.0
 20
-13.85
 30
0.0
 10
-14.0
 20
-13.85
 30
0.0
 10
-14.0
 20
-13.85
 30
0.0
 10
-14.0
 20
-15.85
 30
0.0
 10
-14.0
 20
-15.85
 30
0.0
 10
-14.0
 20
-15.85
 30
0.0
 10
-14.0
 20
-16.402
 30
0.0
 10
-13.552
 20
-16.85
 30
0.0
 10
-13.0
 20
-16.85
 30
0.0
 10
-13.0
 20
-16.85
 30
0.0
 10
-13.0
 20
-16.85
 30
0.0
 10
-8.0
 20
-16.85
 30
0.0
 10
-8.0
 20
-16.85
 30
0.0
 10
-8.0
 20
-16.85
 30
0.0
 10
-7.448
 20
-16.85
 30
0.0
 10
-7.0
 20
-16.402
 30
0.0
 10
-7.0
 20
-15.85
 30
0.0
 10
-7.0
 20
-15.85
 30
0.0
 10
-7.0
 20
-15.85
 30
0.0
 10
-7.0
 20
-13.85
 30
0.0
 10
-7.0
 20
-13.85
 30
0.0
 10
-7.0
 20
-13.85
 30
0.0
 10
-7.0
 20
-13.298
 30
0.0
 10
-7.448
 20
-12.85
 30
0.0
 10
-8.0
 20
-12.85
 30
0.0
 10
-8.0
 20
-12.85
 30
0.0
 10
-8.0
 20
-12.85
 30
0.0
 10
-13.0
 20
-12.85
 30
0.0
 10
-13.0
 20
-12.85
 30
0.0
  0
SPLINE
  5
62
330
1F
100
AcDbEntity
  8
Layer 1
 62
   250
100
AcDbSpline
210
0.0
220
0.0
230
1.0
 70
    11
 71
     3
 72
    40
 73
    36
 74
     0
 42
0.0000000001
 43
0.0000000001
 40
0.0
 40
0.0
 40
0.0
 40
0.0
 40
0.1111111111111111
 40
0.1111111111111111
 40
0.1111111111111111
 40
0.1111111111111111
 40
0.2222222222222222
 40
0.2222222222222222
 40
0.2222222222222222
 40
0.2222222222222222
 40
0.3333333333333333
 40
0.3333333333333333
 40
0.3333333333333333
 40
0.3333333333333333
 40
0.4444444444444444
 40
0.4444444444444444
 40
0.4444444444444444
 40
0.4444444444444444
 40
0.5555555555555556
 40
0.5555555555555556
 40
0.5555555555555556
 40
0.5555555555555556
 40
0.6666666666666667
 40
0.6666666666666667
 40
0.6666666666666667
 40
0.6666666666666667
 40
0.7777777777777779
 40
0.7777777777777779
 40
0.7777777777777779
 40
0.7777777777777779
 40
0.8888888888888891
 40
0.8888888888888891
 40
0.8888888888888891
 40
0.8888888888888891
 40
1.0
 40
1.0
 40
1.0
 40
1.0
 10
-7.75458
 20
-13.2598
 30
0.0
 10
-7.75458
 20
-13.34108
 30
0.0
 10
-7.77837
 20
-13.40133
 30
0.0
 10
-7.8261
 20
-13.44042
 30
0.0
 10
-7.8261
 20
-13.44042
 30
0.0
 10
-7.86579
 20
-13.47288
 30
0.0
 10
-7.91426
 20
-13.48925
 30
0.0
 10
-7.97149
 20
-13.48925
 30
0.0
 10
-7.97149
 20
-13.48925
 30
0.0
 10
-8.03513
 20
-13.48925
 30
0.0
 10
-8.08716
 20
-13.46949
 30
0.0
 10
-8.12745
 20
-13.42984
 30
0.0
 10
-8.12745
 20
-13.42984
 30
0.0
 10
-8.16789
 20
-13.39033
 30
0.0
 10
-8.18796
 20
-13.33572
 30
0.0
 10
-8.18796
 20
-13.26601
 30
0.0
 10
-8.18796
 20
-13.26601
 30
0.0
 10
-8.18796
 20
-13.20942
 30
0.0
 10
-8.17904
 20
-13.16497
 30
0.0
 10
-8.1612
 20
-13.13266
 30
0.0
 10
-8.1612
 20
-13.13266
 30
0.0
 10
-8.14336
 20
-13.1002
 30
0.0
 10
-8.11734
 20
-13.07508
 30
0.0
 10
-8.0833
 20
-13.05716
 30
0.0
 10
-8.0833
 20
-13.05716
 30
0.0
 10
-8.0491
 20
-13.03924
 30
0.0
 10
-8.01194
 20
-13.03035
 30
0.0
 10
-7.97149
 20
-13.03035
 30
0.0
 10
-7.97149
 20
-13.03035
 30
0.0
 10
-7.90682
 20
-13.03035
 30
0.0
 10
-7.85449
 20
-13.04997
 30
0.0
 10
-7.8145
 20
-13.08948
 30
0.0
 10
-7.8145
 20
-13.08948
 30
0.0
 10
-7.77451
 20
-13.12885
 30
0.0
 10
-7.75458
 20
-13.18558
 30
0.0
 10
-7.75458
 20
-13.2598
 30
0.0
  0
SPLINE
  5
63
330
1F
100
AcDbEntity
  8
Layer 1
 62
   250
100
AcDbSpline
210
0.0
220
0.0
230
1.0
 70
    11
 71
     3
 72
    36
 73
    32
 74
     0
 42
0.0000000001
 43
0.0000000001
 40
0.0
 40
0.0
 40
0.0
 40
0.0
 40
0.125
 40
0.125
 40
0.125
 40
0.125
 40
0.25
 40
0.25
 40
0.25
 40
0.25
 40
0.375
 40
0.375
 40
0.375
 40
0.375
 40
0.5
 40
0.5
 40
0.5
 40
0.5
 40
0.625
 40
0.625
 40
0.625
 40
0.625
 40
0.75
 40
0.75
 40
0.75
 40
0.75
 40
0.875
 40
0.875
 40
0.875
 40
0.875
 40
1.0
 40
1.0
 40
1.0
 40
1.0
 10
-7.83516
 20
-13.2598
 30
0.0
 10
-7.83516
 20
-13.2035
 30
0.0
 10
-7.8481
 20
-13.16144
 30
0.0
 10
-7.87396
 20
-13.1335
 30
0.0
 10
-7.87396
 20
-13.1335
 30
0.0
 10
-7.89984
 20
-13.10542
 30
0.0
 10
-7.93239
 20
-13.09145
 30
0.0
 10
-7.97149
 20
-13.09145
 30
0.0
 10
-7.97149
 20
-13.09145
 30
0.0
 10
-8.01044
 20
-13.09145
 30
0.0
 10
-8.04286
 20
-13.10556
 30
0.0
 10
-8.06872
 20
-13.13365
 30
0.0
 10
-8.06872
 20
-13.13365
 30
0.0
 10
-8.09444
 20
-13.16173
 30
0.0
 10
-8.10738
 20
-13.20463
 30
0.0
 10
-8.10738
 20
-13.2622
 30
0.0
 10
-8.10738
 20
-13.2622
 30
0.0
 10
-8.10738
 20
-13.31653
 30
0.0
 10
-8.09444
 20
-13.35773
 30
0.0
 10
-8.06843
 20
-13.38567
 30
0.0
 10
-8.06843
 20
-13.38567
 30
0.0
 10
-8.04241
 20
-13.41361
 30
0.0
 10
-8.01015
 20
-13.42758
 30
0.0
 10
-7.97149
 20
-13.42758
 30
0.0
 10
-7.97149
 20
-13.42758
 30
0.0
 10
-7.93239
 20
-13.42758
 30
0.0
 10
-7.89984
 20
-13.41361
 30
0.0
 10
-7.87396
 20
-13.38581
 30
0.0
 10
-7.87396
 20
-13.38581
 30
0.0
 10
-7.8481
 20
-13.35801
 30
0.0
 10
-7.83516
 20
-13.31596
 30
0.0
 10
-7.83516
 20
-13.2598
 30
0.0
  0
SPLINE
  5
64
330
1F
100
AcDbEntity
  8
Layer 1
 62
   250
100
AcDbSpline
210
0.0
220
0.0
230
1.0
 70
    11
 71
     3
 72
    40
 73
    36
 74
     0
 42
0.0000000001
 43
0.0000000001
 40
0.0
 40
0.0
 40
0.0
 40
0.0
 40
0.1111111111111111
 40
0.1111111111111111
 40
0.1111111111111111
 40
0.1111111111111111
 40
0.2222222222222222
 40
0.2222222222222222
 40
0.2222222222222222
 40
0.2222222222222222
 40
0.3333333333333333
 40
0.3333333333333333
 40
0.3333333333333333
 40
0.3333333333333333
 40
0.4444444444444444
 40
0.4444444444444444
 40
0.4444444444444444
 40
0.4444444444444444
 40
0.5555555555555556
 40
0.5555555555555556
 40
0.5555555555555556
 40
0.5555555555555556
 40
0.6666666666666667
 40
0.6666666666666667
 40
0.6666666666666667
 40
0.6666666666666667
 40
0.7777777777777779
 40
0.7777777777777779
 40
0.7777777777777779
 40
0.7777777777777779
 40
0.8888888888888891
 40
0.8888888888888891
 40
0.8888888888888891
 40
0.8888888888888891
 40
1.0
 40
1.0
 40
1.0
 40
1.0
 10
-8.2507
 20
-13.2598
 30
0.0
 10
-8.2507
 20
-13.34108
 30
0.0
 10
-8.27449
 20
-13.40133
 30
0.0
 10
-8.32221
 20
-13.44042
 30
0.0
 10
-8.32221
 20
-13.44042
 30
0.0
 10
-8.3619
 20
-13.47288
 30
0.0
 10
-8.41037
 20
-13.48925
 30
0.0
 10
-8.4676
 20
-13.48925
 30
0.0
 10
-8.4676
 20
-13.48925
 30
0.0
 10
-8.53124
 20
-13.48925
 30
0.0
 10
-8.58327
 20
-13.46949
 30
0.0
 10
-8.62356
 20
-13.42984
 30
0.0
 10
-8.62356
 20
-13.42984
 30
0.0
 10
-8.664
 20
-13.39033
 30
0.0
 10
-8.68407
 20
-13.33572
 30
0.0
 10
-8.68407
 20
-13.26601
 30
0.0
 10
-8.68407
 20
-13.26601
 30
0.0
 10
-8.68407
 20
-13.20942
 30
0.0
 10
-8.67516
 20
-13.16497
 30
0.0
 10
-8.65731
 20
-13.13266
 30
0.0
 10
-8.65731
 20
-13.13266
 30
0.0
 10
-8.63947
 20
-13.1002
 30
0.0
 10
-8.61345
 20
-13.07508
 30
0.0
 10
-8.57941
 20
-13.05716
 30
0.0
 10
-8.57941
 20
-13.05716
 30
0.0
 10
-8.54521
 20
-13.03924
 30
0.0
 10
-8.50805
 20
-13.03035
 30
0.0
 10
-8.4676
 20
-13.03035
 30
0.0
 10
-8.4676
 20
-13.03035
 30
0.0
 10
-8.40294
 20
-13.03035
 30
0.0
 10
-8.35061
 20
-13.04997
 30
0.0
 10
-8.31061
 20
-13.08948
 30
0.0
 10
-8.31061
 20
-13.08948
 30
0.0
 10
-8.27062
 20
-13.12885
 30
0.0
 10
-8.2507
 20
-13.18558
 30
0.0
 10
-8.2507
 20
-13.2598
 30
0.0
  0
SPLINE
  5
65
330
1F
100
AcDbEntity
  8
Layer 1
 62
   250
100
AcDbSpline
210
0.0
220
0.0
230
1.0
 70
    11
 71
     3
 72
    36
 73
    32
 74
     0
 42
0.0000000001
 43
0.0000000001
 40
0.0
 40
0.0
 40
0.0
 40
0.0
 40
0.125
 40
0.125
 40
0.125
 40
0.125
 40
0.25
 40
0.25
 40
0.25
 40
0.25
 40
0.375
 40
0.375
 40
0.375
 40
0.375
 40
0.5
 40
0.5
 40
0.5
 40
0.5
 40
0.625
 40
0.625
 40
0.625
 40
0.625
 40
0.75
 40
0.75
 40
0.75
 40
0.75
 40
0.875
 40
0.875
 40
0.875
 40
0.875
 40
1.0
 40
1.0
 40
1.0
 40
1.0
 10
-8.33127
 20
-13.2598
 30
0.0
 10
-8.33127
 20
-13.2035
 30
0.0
 10
-8.34421
 20
-13.16144
 30
0.0
 10
-8.37008
 20
-13.1335
 30
0.0
 10
-8.37008
 20
-13.1335
 30
0.0
 10
-8.39595
 20
-13.10542
 30
0.0
 10
-8.42851
 20
-13.09145
 30
0.0
 10
-8.4676
 20
-13.09145
 30
0.0
 10
-8.4676
 20
-13.09145
 30
0.0
 10
-8.50655
 20
-13.09145
 30
0.0
 10
-8.53897
 20
-13.10556
 30
0.0
 10
-8.56484
 20
-13.13365
 30
0.0
 10
-8.56484
 20
-13.13365
 30
0.0
 10
-8.59055
 20
-13.16173
 30
0.0
 10
-8.60349
 20
-13.20463
 30
0.0
 10
-8.60349
 20
-13.2622
 30
0.0
 10
-8.60349
 20
-13.2622
 30
0.0
 10
-8.60349
 20
-13.31653
 30
0.0
 10
-8.59055
 20
-13.35773
 30
0.0
 10
-8.56454
 20
-13.38567
 30
0.0
 10
-8.56454
 20
-13.38567
 30
0.0
 10
-8.53852
 20
-13.41361
 30
0.0
 10
-8.50626
 20
-13.42758
 30
0.0
 10
-8.4676
 20
-13.42758
 30
0.0
 10
-8.4676
 20
-13.42758
 30
0.0
 10
-8.42851
 20
-13.42758
 30
0.0
 10
-8.39595
 20
-13.41361
 30
0.0
 10
-8.37008
 20
-13.38581
 30
0.0
 10
-8.37008
 20
-13.38581
 30
0.0
 10
-8.34421
 20
-13.35801
 30
0.0
 10
-8.33127
 20
-13.31596
 30
0.0
 10
-8.33127
 20
-13.2598
 30
0.0
  0
SPLINE
  5
66
330
1F
100
AcDbEntity
  8
Layer 1
 62
   250
100
AcDbSpline
210
0.0
220
0.0
230
1.0
 70
    11
 71
     3
 72
   116
 73
   112
 74
     0
 42
0.0000000001
 43
0.0000000001
 40
0.0
 40
0.0
 40
0.0
 40
0.0
 40
0.0357142857142857
 40
0.0357142857142857
 40
0.0357142857142857
 40
0.0357142857142857
 40
0.0714285714285714
 40
0.0714285714285714
 40
0.0714285714285714
 40
0.0714285714285714
 40
0.1071428571428571
 40
0.1071428571428571
 40
0.1071428571428571
 40
0.1071428571428571
 40
0.1428571428571428
 40
0.1428571428571428
 40
0.1428571428571428
 40
0.1428571428571428
 40
0.1785714285714285
 40
0.1785714285714285
 40
0.1785714285714285
 40
0.1785714285714285
 40
0.2142857142857142
 40
0.2142857142857142
 40
0.2142857142857142
 40
0.2142857142857142
 40
0.2499999999999999
 40
0.2499999999999999
 40
0.2499999999999999
 40
0.2499999999999999
 40
0.2857142857142856
 40
0.2857142857142856
 40
0.2857142857142856
 40
0.2857142857142856
 40
0.3214285714285713
 40
0.3214285714285713
 40
0.3214285714285713
 40
0.3214285714285713
 40
0.357142857142857
 40
0.357142857142857
 40
0.357142857142857
 40
0.357142857142857
 40
0.3928571428571427
 40
0.3928571428571427
 40
0.3928571428571427
 40
0.3928571428571427
 40
0.4285714285714284
 40
0.4285714285714284
 40
0.4285714285714284
 40
0.4285714285714284
 40
0.4642857142857141
 40
0.4642857142857141
 40
0.4642857142857141
 40
0.4642857142857141
 40
0.4999999999999998
 40
0.4999999999999998
 40
0.4999999999999998
 40
0.4999999999999998
 40
0.5357142857142856
 40
0.5357142857142856
 40
0.5357142857142856
 40
0.5357142857142856
 40
0.5714285714285713
 40
0.5714285714285713
 40
0.5714285714285713
 40
0.5714285714285713
 40
0.607142857142857
 40
0.607142857142857
 40
0.607142857142857
 40
0.607142857142857
 40
0.6428571428571427
 40
0.6428571428571427
 40
0.6428571428571427
 40
0.6428571428571427
 40
0.6785714285714284
 40
0.6785714285714284
 40
0.6785714285714284
 40
0.6785714285714284
 40
0.7142857142857141
 40
0.7142857142857141
 40
0.7142857142857141
 40
0.7142857142857141
 40
0.7499999999999998
 40
0.7499999999999998
 40
0.7499999999999998
 40
0.7499999999999998
 40
0.7857142857142855
 40
0.7857142857142855
 40
0.7857142857142855
 40
0.7857142857142855
 40
0.8214285714285712
 40
0.8214285714285712
 40
0.8214285714285712
 40
0.8214285714285712
 40
0.8571428571428569
 40
0.8571428571428569
 40
0.8571428571428569
 40
0.8571428571428569
 40
0.8928571428571426
 40
0.8928571428571426
 40
0.8928571428571426
 40
0.8928571428571426
 40
0.9285714285714283
 40
0.9285714285714283
 40
0.9285714285714283
 40
0.9285714285714283
 40
0.964285714285714
 40
0.964285714285714
 40
0.964285714285714
 40
0.964285714285714
 40
1.0
 40
1.0
 40
1.0
 40
1.0
 10
-8.7761
 20
-13.04023
 30
0.0
 10
-8.7761
 20
-13.04023
 30
0.0
 10
-8.7761
 20
-13.47923
 30
0.0
 10
-8.7761
 20
-13.47923
 30
0.0
 10
-8.7761
 20
-13.47923
 30
0.0
 10
-8.7761
 20
-13.47923
 30
0.0
 10
-8.84612
 20
-13.47923
 30
0.0
 10
-8.84612
 20
-13.47923
 30
0.0
 10
-8.84612
 20
-13.47923
 30
0.0
 10
-8.84612
 20
-13.47923
 30
0.0
 10
-8.84612
 20
-13.4177
 30
0.0
 10
-8.84612
 20
-13.4177
 30
0.0
 10
-8.84612
 20
-13.4177
 30
0.0
 10
-8.86069
 20
-13.43915
 30
0.0
 10
-8.88002
 20
-13.45651
 30
0.0
 10
-8.90411
 20
-13.46949
 30
0.0
 10
-8.90411
 20
-13.46949
 30
0.0
 10
-8.92819
 20
-13.48262
 30
0.0
 10
-8.95569
 20
-13.48925
 30
0.0
 10
-8.98646
 20
-13.48925
 30
0.0
 10
-8.98646
 20
-13.48925
 30
0.0
 10
-9.02066
 20
-13.48925
 30
0.0
 10
-9.04876
 20
-13.48247
 30
0.0
 10
-9.07061
 20
-13.46893
 30
0.0
 10
-9.07061
 20
-13.46893
 30
0.0
 10
-9.09262
 20
-13.45538
 30
0.0
 10
-9.10808
 20
-13.43661
 30
0.0
 10
-9.117
 20
-13.41234
 30
0.0
 10
-9.117
 20
-13.41234
 30
0.0
 10
-9.15372
 20
-13.46357
 30
0.0
 10
-9.20129
 20
-13.48925
 30
0.0
 10
-9.25987
 20
-13.48925
 30
0.0
 10
-9.25987
 20
-13.48925
 30
0.0
 10
-9.30581
 20
-13.48925
 30
0.0
 10
-9.34104
 20
-13.47711
 30
0.0
 10
-9.36572
 20
-13.45298
 30
0.0
 10
-9.36572
 20
-13.45298
 30
0.0
 10
-9.3904
 20
-13.42885
 30
0.0
 10
-9.40275
 20
-13.39174
 30
0.0
 10
-9.40275
 20
-13.34164
 30
0.0
 10
-9.40275
 20
-13.34164
 30
0.0
 10
-9.40275
 20
-13.34164
 30
0.0
 10
-9.40275
 20
-13.04023
 30
0.0
 10
-9.40275
 20
-13.04023
 30
0.0
 10
-9.40275
 20
-13.04023
 30
0.0
 10
-9.40275
 20
-13.04023
 30
0.0
 10
-9.32484
 20
-13.04023
 30
0.0
 10
-9.32484
 20
-13.04023
 30
0.0
 10
-9.32484
 20
-13.04023
 30
0.0
 10
-9.32484
 20
-13.04023
 30
0.0
 10
-9.32484
 20
-13.31681
 30
0.0
 10
-9.32484
 20
-13.31681
 30
0.0
 10
-9.32484
 20
-13.31681
 30
0.0
 10
-9.32484
 20
-13.34658
 30
0.0
 10
-9.32231
 20
-13.36803
 30
0.0
 10
-9.31726
 20
-13.38116
 30
0.0
 10
-9.31726
 20
-13.38116
 30
0.0
 10
-9.31206
 20
-13.39414
 30
0.0
 10
-9.30284
 20
-13.40472
 30
0.0
 10
-9.2896
 20
-13.41276
 30
0.0
 10
-9.2896
 20
-13.41276
 30
0.0
 10
-9.27622
 20
-13.42067
 30
0.0
 10
-9.26046
 20
-13.42476
 30
0.0
 10
-9.24248
 20
-13.42476
 30
0.0
 10
-9.24248
 20
-13.42476
 30
0.0
 10
-9.20991
 20
-13.42476
 30
0.0
 10
-9.183
 20
-13.41446
 30
0.0
 10
-9.16145
 20
-13.39386
 30
0.0
 10
-9.16145
 20
-13.39386
 30
0.0
 10
-9.14004
 20
-13.37339
 30
0.0
 10
-9.12919
 20
-13.34052
 30
0.0
 10
-9.12919
 20
-13.29536
 30
0.0
 10
-9.12919
 20
-13.29536
 30
0.0
 10
-9.12919
 20
-13.29536
 30
0.0
 10
-9.12919
 20
-13.04023
 30
0.0
 10
-9.12919
 20
-13.04023
 30
0.0
 10
-9.12919
 20
-13.04023
 30
0.0
 10
-9.12919
 20
-13.04023
 30
0.0
 10
-9.05084
 20
-13.04023
 30
0.0
 10
-9.05084
 20
-13.04023
 30
0.0
 10
-9.05084
 20
-13.04023
 30
0.0
 10
-9.05084
 20
-13.04023
 30
0.0
 10
-9.05084
 20
-13.32542
 30
0.0
 10
-9.05084
 20
-13.32542
 30
0.0
 10
-9.05084
 20
-13.32542
 30
0.0
 10
-9.05084
 20
-13.35858
 30
0.0
 10
-9.04445
 20
-13.38341
 30
0.0
 10
-9.03166
 20
-13.39992
 30
0.0
 10
-9.03166
 20
-13.39992
 30
0.0
 10
-9.01888
 20
-13.41643
 30
0.0
 10
-8.99806
 20
-13.42476
 30
0.0
 10
-8.96892
 20
-13.42476
 30
0.0
 10
-8.96892
 20
-13.42476
 30
0.0
 10
-8.94692
 20
-13.42476
 30
0.0
 10
-8.92656
 20
-13.41926
 30
0.0
 10
-8.90782
 20
-13.40811
 30
0.0
 10
-8.90782
 20
-13.40811
 30
0.0
 10
-8.88909
 20
-13.3971
 30
0.0
 10
-8.87541
 20
-13.38101
 30
0.0
 10
-8.86708
 20
-13.35985
 30
0.0
 10
-8.86708
 20
-13.35985
 30
0.0
 10
-8.85861
 20
-13.33854
 30
0.0
 10
-8.85445
 20
-13.30792
 30
0.0
 10
-8.85445
 20
-13.26798
 30
0.0
 10
-8.85445
 20
-13.26798
 30
0.0
 10
-8.85445
 20
-13.26798
 30
0.0
 10
-8.85445
 20
-13.04023
 30
0.0
 10
-8.85445
 20
-13.04023
 30
0.0
 10
-8.85445
 20
-13.04023
 30
0.0
 10
-8.85445
 20
-13.04023
 30
0.0
 10
-8.7761
 20
-13.04023
 30
0.0
 10
-8.7761
 20
-13.04023
 30
0.0
  0
SPLINE
  5
67
330
1F
100
AcDbEntity
  8
Layer 1
 62
   250
100
AcDbSpline
210
0.0
220
0.0
230
1.0
 70
    11
 71
     3
 72
    20
 73
    16
 74
     0
 42
0.0000000001
 43
0.0000000001
 40
0.0
 40
0.0
 40
0.0
 40
0.0
 40
0.25
 40
0.25
 40
0.25
 40
0.25
 40
0.5
 40
0.5
 40
0.5
 40
0.5
 40
0.75
 40
0.75
 40
0.75
 40
0.75
 40
1.0
 40
1.0
 40
1.0
 40
1.0
 10
-9.51737
 20
-13.04023
 30
0.0
 10
-9.51737
 20
-13.04023
 30
0.0
 10
-9.51737
 20
-13.6463
 30
0.0
 10
-9.51737
 20
-13.6463
 30
0.0
 10
-9.51737
 20
-13.6463
 30
0.0
 10
-9.51737
 20
-13.6463
 30
0.0
 10
-9.59572
 20
-13.6463
 30
0.0
 10
-9.59572
 20
-13.6463
 30
0.0
 10
-9.59572
 20
-13.6463
 30
0.0
 10
-9.59572
 20
-13.6463
 30
0.0
 10
-9.59572
 20
-13.04023
 30
0.0
 10
-9.59572
 20
-13.04023
 30
0.0
 10
-9.59572
 20
-13.04023
 30
0.0
 10
-9.59572
 20
-13.04023
 30
0.0
 10
-9.51737
 20
-13.04023
 30
0.0
 10
-9.51737
 20
-13.04023
 30
0.0
  0
SPLINE
  5
68
330
1F
100
AcDbEntity
  8
Layer 1
 62
   250
100
AcDbSpline
210
0.0
220
0.0
230
1.0
 70
    11
 71
     3
 72
    40
 73
    36
 74
     0
 42
0.0000000001
 43
0.0000000001
 40
0.0
 40
0.0
 40
0.0
 40
0.0
 40
0.1111111111111111
 40
0.1111111111111111
 40
0.1111111111111111
 40
0.1111111111111111
 40
0.2222222222222222
 40
0.2222222222222222
 40
0.2222222222222222
 40
0.2222222222222222
 40
0.3333333333333333
 40
0.3333333333333333
 40
0.3333333333333333
 40
0.3333333333333333
 40
0.4444444444444444
 40
0.4444444444444444
 40
0.4444444444444444
 40
0.4444444444444444
 40
0.5555555555555556
 40
0.5555555555555556
 40
0.5555555555555556
 40
0.5555555555555556
 40
0.6666666666666667
 40
0.6666666666666667
 40
0.6666666666666667
 40
0.6666666666666667
 40
0.7777777777777779
 40
0.7777777777777779
 40
0.7777777777777779
 40
0.7777777777777779
 40
0.8888888888888891
 40
0.8888888888888891
 40
0.8888888888888891
 40
0.8888888888888891
 40
1.0
 40
1.0
 40
1.0
 40
1.0
 10
-9.68804
 20
-13.2598
 30
0.0
 10
-9.68804
 20
-13.34108
 30
0.0
 10
-9.71183
 20
-13.40133
 30
0.0
 10
-9.75956
 20
-13.44042
 30
0.0
 10
-9.75956
 20
-13.44042
 30
0.0
 10
-9.79924
 20
-13.47288
 30
0.0
 10
-9.84772
 20
-13.48925
 30
0.0
 10
-9.90495
 20
-13.48925
 30
0.0
 10
-9.90495
 20
-13.48925
 30
0.0
 10
-9.96858
 20
-13.48925
 30
0.0
 10
-10.02062
 20
-13.46949
 30
0.0
 10
-10.06091
 20
-13.42984
 30
0.0
 10
-10.06091
 20
-13.42984
 30
0.0
 10
-10.10134
 20
-13.39033
 30
0.0
 10
-10.12141
 20
-13.33572
 30
0.0
 10
-10.12141
 20
-13.26601
 30
0.0
 10
-10.12141
 20
-13.26601
 30
0.0
 10
-10.12141
 20
-13.20942
 30
0.0
 10
-10.1125
 20
-13.16497
 30
0.0
 10
-10.09465
 20
-13.13266
 30
0.0
 10
-10.09465
 20
-13.13266
 30
0.0
 10
-10.07682
 20
-13.1002
 30
0.0
 10
-10.05079
 20
-13.07508
 30
0.0
 10
-10.01675
 20
-13.05716
 30
0.0
 10
-10.01675
 20
-13.05716
 30
0.0
 10
-9.98255
 20
-13.03924
 30
0.0
 10
-9.94539
 20
-13.03035
 30
0.0
 10
-9.90495
 20
-13.03035
 30
0.0
 10
-9.90495
 20
-13.03035
 30
0.0
 10
-9.84028
 20
-13.03035
 30
0.0
 10
-9.78795
 20
-13.04997
 30
0.0
 10
-9.74796
 20
-13.08948
 30
0.0
 10
-9.74796
 20
-13.08948
 30
0.0
 10
-9.70796
 20
-13.12885
 30
0.0
 10
-9.68804
 20
-13.18558
 30
0.0
 10
-9.68804
 20
-13.2598
 30
0.0
  0
SPLINE
  5
69
330
1F
100
AcDbEntity
  8
Layer 1
 62
   250
100
AcDbSpline
210
0.0
220
0.0
230
1.0
 70
    11
 71
     3
 72
    36
 73
    32
 74
     0
 42
0.0000000001
 43
0.0000000001
 40
0.0
 40
0.0
 40
0.0
 40
0.0
 40
0.125
 40
0.125
 40
0.125
 40
0.125
 40
0.25
 40
0.25
 40
0.25
 40
0.25
 40
0.375
 40
0.375
 40
0.375
 40
0.375
 40
0.5
 40
0.5
 40
0.5
 40
0.5
 40
0.625
 40
0.625
 40
0.625
 40
0.625
 40
0.75
 40
0.75
 40
0.75
 40
0.75
 40
0.875
 40
0.875
 40
0.875
 40
0.875
 40
1.0
 40
1.0
 40
1.0
 40
1.0
 10
-9.76862
 20
-13.2598
 30
0.0
 10
-9.76862
 20
-13.2035
 30
0.0
 10
-9.78155
 20
-13.16144
 30
0.0
 10
-9.80742
 20
-13.1335
 30
0.0
 10
-9.80742
 20
-13.1335
 30
0.0
 10
-9.8333
 20
-13.10542
 30
0.0
 10
-9.86585
 20
-13.09145
 30
0.0
 10
-9.90495
 20
-13.09145
 30
0.0
 10
-9.90495
 20
-13.09145
 30
0.0
 10
-9.9439
 20
-13.09145
 30
0.0
 10
-9.97632
 20
-13.10556
 30
0.0
 10
-10.00218
 20
-13.13365
 30
0.0
 10
-10.00218
 20
-13.13365
 30
0.0
 10
-10.0279
 20
-13.16173
 30
0.0
 10
-10.04084
 20
-13.20463
 30
0.0
 10
-10.04084
 20
-13.2622
 30
0.0
 10
-10.04084
 20
-13.2622
 30
0.0
 10
-10.04084
 20
-13.31653
 30
0.0
 10
-10.0279
 20
-13.35773
 30
0.0
 10
-10.00189
 20
-13.38567
 30
0.0
 10
-10.00189
 20
-13.38567
 30
0.0
 10
-9.97586
 20
-13.41361
 30
0.0
 10
-9.9436
 20
-13.42758
 30
0.0
 10
-9.90495
 20
-13.42758
 30
0.0
 10
-9.90495
 20
-13.42758
 30
0.0
 10
-9.86585
 20
-13.42758
 30
0.0
 10
-9.8333
 20
-13.41361
 30
0.0
 10
-9.80742
 20
-13.38581
 30
0.0
 10
-9.80742
 20
-13.38581
 30
0.0
 10
-9.78155
 20
-13.35801
 30
0.0
 10
-9.76862
 20
-13.31596
 30
0.0
 10
-9.76862
 20
-13.2598
 30
0.0
  0
SPLINE
  5
6A
330
1F
100
AcDbEntity
  8
Layer 1
 62
   250
100
AcDbSpline
210
0.0
220
0.0
230
1.0
 70
    11
 71
     3
 72
    80
 73
    76
 74
     0
 42
0.0000000001
 43
0.0000000001
 40
0.0
 40
0.0
 40
0.0
 40
0.0
 40
0.0526315789473684
 40
0.0526315789473684
 40
0.0526315789473684
 40
0.0526315789473684
 40
0.1052631578947368
 40
0.1052631578947368
 40
0.1052631578947368
 40
0.1052631578947368
 40
0.1578947368421053
 40
0.1578947368421053
 40
0.1578947368421053
 40
0.1578947368421053
 40
0.2105263157894737
 40
0.2105263157894737
 40
0.2105263157894737
 40
0.2105263157894737
 40
0.2631578947368421
 40
0.2631578947368421
 40
0.2631578947368421
 40
0.2631578947368421
 40
0.3157894736842105
 40
0.3157894736842105
 40
0.3157894736842105
 40
0.3157894736842105
 40
0.3684210526315789
 40
0.3684210526315789
 40
0.3684210526315789
 40
0.3684210526315789
 40
0.4210526315789473
 40
0.4210526315789473
 40
0.4210526315789473
 40
0.4210526315789473
 40
0.4736842105263158
 40
0.4736842105263158
 40
0.4736842105263158
 40
0.4736842105263158
 40
0.5263157894736842
 40
0.5263157894736842
 40
0.5263157894736842
 40
0.5263157894736842
 40
0.5789473684210527
 40
0.5789473684210527
 40
0.5789473684210527
 40
0.5789473684210527
 40
0.631578947368421
 40
0.631578947368421
 40
0.631578947368421
 40
0.631578947368421
 40
0.6842105263157894
 40
0.6842105263157894
 40
0.6842105263157894
 40
0.6842105263157894
 40
0.7368421052631577
 40
0.7368421052631577
 40
0.7368421052631577
 40
0.7368421052631577
 40
0.7894736842105261
 40
0.7894736842105261
 40
0.7894736842105261
 40
0.7894736842105261
 40
0.8421052631578945
 40
0.8421052631578945
 40
0.8421052631578945
 40
0.8421052631578945
 40
0.8947368421052628
 40
0.8947368421052628
 40
0.8947368421052628
 40
0.8947368421052628
 40
0.9473684210526312
 40
0.9473684210526312
 40
0.9473684210526312
 40
0.9473684210526312
 40
1.0
 40
1.0
 40
1.0
 40
1.0
 10
-10.51658
 20
-13.04023
 30
0.0
 10
-10.51658
 20
-13.04023
 30
0.0
 10
-10.51658
 20
-13.10472
 30
0.0
 10
-10.51658
 20
-13.10472
 30
0.0
 10
-10.51658
 20
-13.10472
 30
0.0
 10
-10.48046
 20
-13.05505
 30
0.0
 10
-10.43154
 20
-13.03035
 30
0.0
 10
-10.3697
 20
-13.03035
 30
0.0
 10
-10.3697
 20
-13.03035
 30
0.0
 10
-10.34249
 20
-13.03035
 30
0.0
 10
-10.31691
 20
-13.03529
 30
0.0
 10
-10.29328
 20
-13.04517
 30
0.0
 10
-10.29328
 20
-13.04517
 30
0.0
 10
-10.26964
 20
-13.05505
 30
0.0
 10
-10.2521
 20
-13.06761
 30
0.0
 10
-10.24064
 20
-13.08256
 30
0.0
 10
-10.24064
 20
-13.08256
 30
0.0
 10
-10.22906
 20
-13.09766
 30
0.0
 10
-10.22103
 20
-13.11601
 30
0.0
 10
-10.21641
 20
-13.13774
 30
0.0
 10
-10.21641
 20
-13.13774
 30
0.0
 10
-10.21329
 20
-13.15241
 30
0.0
 10
-10.21166
 20
-13.17556
 30
0.0
 10
-10.21166
 20
-13.20731
 30
0.0
 10
-10.21166
 20
-13.20731
 30
0.0
 10
-10.21166
 20
-13.20731
 30
0.0
 10
-10.21166
 20
-13.47923
 30
0.0
 10
-10.21166
 20
-13.47923
 30
0.0
 10
-10.21166
 20
-13.47923
 30
0.0
 10
-10.21166
 20
-13.47923
 30
0.0
 10
-10.29
 20
-13.47923
 30
0.0
 10
-10.29
 20
-13.47923
 30
0.0
 10
-10.29
 20
-13.47923
 30
0.0
 10
-10.29
 20
-13.47923
 30
0.0
 10
-10.29
 20
-13.23581
 30
0.0
 10
-10.29
 20
-13.23581
 30
0.0
 10
-10.29
 20
-13.23581
 30
0.0
 10
-10.29
 20
-13.19686
 30
0.0
 10
-10.29164
 20
-13.17076
 30
0.0
 10
-10.29477
 20
-13.15721
 30
0.0
 10
-10.29477
 20
-13.15721
 30
0.0
 10
-10.29982
 20
-13.1376
 30
0.0
 10
-10.31022
 20
-13.12236
 30
0.0
 10
-10.32613
 20
-13.11107
 30
0.0
 10
-10.32613
 20
-13.11107
 30
0.0
 10
-10.34219
 20
-13.09992
 30
0.0
 10
-10.36196
 20
-13.09442
 30
0.0
 10
-10.38546
 20
-13.09442
 30
0.0
 10
-10.38546
 20
-13.09442
 30
0.0
 10
-10.40894
 20
-13.09442
 30
0.0
 10
-10.43095
 20
-13.10006
 30
0.0
 10
-10.45161
 20
-13.11149
 30
0.0
 10
-10.45161
 20
-13.11149
 30
0.0
 10
-10.47228
 20
-13.12292
 30
0.0
 10
-10.48684
 20
-13.13858
 30
0.0
 10
-10.49532
 20
-13.1582
 30
0.0
 10
-10.49532
 20
-13.1582
 30
0.0
 10
-10.50394
 20
-13.17795
 30
0.0
 10
-10.50825
 20
-13.2066
 30
0.0
 10
-10.50825
 20
-13.244
 30
0.0
 10
-10.50825
 20
-13.244
 30
0.0
 10
-10.50825
 20
-13.244
 30
0.0
 10
-10.50825
 20
-13.47923
 30
0.0
 10
-10.50825
 20
-13.47923
 30
0.0
 10
-10.50825
 20
-13.47923
 30
0.0
 10
-10.50825
 20
-13.47923
 30
0.0
 10
-10.5866
 20
-13.47923
 30
0.0
 10
-10.5866
 20
-13.47923
 30
0.0
 10
-10.5866
 20
-13.47923
 30
0.0
 10
-10.5866
 20
-13.47923
 30
0.0
 10
-10.5866
 20
-13.04023
 30
0.0
 10
-10.5866
 20
-13.04023
 30
0.0
 10
-10.5866
 20
-13.04023
 30
0.0
 10
-10.5866
 20
-13.04023
 30
0.0
 10
-10.51658
 20
-13.04023
 30
0.0
 10
-10.51658
 20
-13.04023
 30
0.0
  0
SPLINE
  5
6B
330
1F
100
AcDbEntity
  8
Layer 1
 62
   250
100
AcDbSpline
210
0.0
220
0.0
230
1.0
 70
    11
 71
     3
 72
    84
 73
    80
 74
     0
 42
0.0000000001
 43
0.0000000001
 40
0.0
 40
0.0
 40
0.0
 40
0.0
 40
0.05
 40
0.05
 40
0.05
 40
0.05
 40
0.1
 40
0.1
 40
0.1
 40
0.1
 40
0.15
 40
0.15
 40
0.15
 40
0.15
 40
0.2
 40
0.2
 40
0.2
 40
0.2
 40
0.25
 40
0.25
 40
0.25
 40
0.25
 40
0.3
 40
0.3
 40
0.3
 40
0.3
 40
0.35
 40
0.35
 40
0.35
 40
0.35
 40
0.4
 40
0.4
 40
0.4
 40
0.4
 40
0.45
 40
0.45
 40
0.45
 40
0.45
 40
0.4999999999999999
 40
0.4999999999999999
 40
0.4999999999999999
 40
0.4999999999999999
 40
0.5499999999999999
 40
0.5499999999999999
 40
0.5499999999999999
 40
0.5499999999999999
 40
0.6
 40
0.6
 40
0.6
 40
0.6
 40
0.65
 40
0.65
 40
0.65
 40
0.65
 40
0.7000000000000001
 40
0.7000000000000001
 40
0.7000000000000001
 40
0.7000000000000001
 40
0.7500000000000001
 40
0.7500000000000001
 40
0.7500000000000001
 40
0.7500000000000001
 40
0.8000000000000002
 40
0.8000000000000002
 40
0.8000000000000002
 40
0.8000000000000002
 40
0.8500000000000002
 40
0.8500000000000002
 40
0.8500000000000002
 40
0.8500000000000002
 40
0.9000000000000002
 40
0.9000000000000002
 40
0.9000000000000002
 40
0.9000000000000002
 40
0.9500000000000003
 40
0.9500000000000003
 40
0.9500000000000003
 40
0.9500000000000003
 40
1.0
 40
1.0
 40
1.0
 40
1.0
 10
-10.88067
 20
-13.10683
 30
0.0
 10
-10.88067
 20
-13.10683
 30
0.0
 10
-10.89197
 20
-13.04108
 30
0.0
 10
-10.89197
 20
-13.04108
 30
0.0
 10
-10.89197
 20
-13.04108
 30
0.0
 10
-10.86997
 20
-13.0367
 30
0.0
 10
-10.85019
 20
-13.03444
 30
0.0
 10
-10.8328
 20
-13.03444
 30
0.0
 10
-10.8328
 20
-13.03444
 30
0.0
 10
-10.80426
 20
-13.03444
 30
0.0
 10
-10.78225
 20
-13.03868
 30
0.0
 10
-10.7665
 20
-13.04729
 30
0.0
 10
-10.7665
 20
-13.04729
 30
0.0
 10
-10.75089
 20
-13.05575
 30
0.0
 10
-10.73989
 20
-13.06704
 30
0.0
 10
-10.73349
 20
-13.08101
 30
0.0
 10
-10.73349
 20
-13.08101
 30
0.0
 10
-10.7271
 20
-13.09484
 30
0.0
 10
-10.72383
 20
-13.12419
 30
0.0
 10
-10.72383
 20
-13.16878
 30
0.0
 10
-10.72383
 20
-13.16878
 30
0.0
 10
-10.72383
 20
-13.16878
 30
0.0
 10
-10.72383
 20
-13.42137
 30
0.0
 10
-10.72383
 20
-13.42137
 30
0.0
 10
-10.72383
 20
-13.42137
 30
0.0
 10
-10.72383
 20
-13.42137
 30
0.0
 10
-10.66629
 20
-13.42137
 30
0.0
 10
-10.66629
 20
-13.42137
 30
0.0
 10
-10.66629
 20
-13.42137
 30
0.0
 10
-10.66629
 20
-13.42137
 30
0.0
 10
-10.66629
 20
-13.47923
 30
0.0
 10
-10.66629
 20
-13.47923
 30
0.0
 10
-10.66629
 20
-13.47923
 30
0.0
 10
-10.66629
 20
-13.47923
 30
0.0
 10
-10.72383
 20
-13.47923
 30
0.0
 10
-10.72383
 20
-13.47923
 30
0.0
 10
-10.72383
 20
-13.47923
 30
0.0
 10
-10.72383
 20
-13.47923
 30
0.0
 10
-10.72383
 20
-13.58803
 30
0.0
 10
-10.72383
 20
-13.58803
 30
0.0
 10
-10.72383
 20
-13.58803
 30
0.0
 10
-10.72383
 20
-13.58803
 30
0.0
 10
-10.80188
 20
-13.63262
 30
0.0
 10
-10.80188
 20
-13.63262
 30
0.0
 10
-10.80188
 20
-13.63262
 30
0.0
 10
-10.80188
 20
-13.63262
 30
0.0
 10
-10.80188
 20
-13.47923
 30
0.0
 10
-10.80188
 20
-13.47923
 30
0.0
 10
-10.80188
 20
-13.47923
 30
0.0
 10
-10.80188
 20
-13.47923
 30
0.0
 10
-10.88067
 20
-13.47923
 30
0.0
 10
-10.88067
 20
-13.47923
 30
0.0
 10
-10.88067
 20
-13.47923
 30
0.0
 10
-10.88067
 20
-13.47923
 30
0.0
 10
-10.88067
 20
-13.42137
 30
0.0
 10
-10.88067
 20
-13.42137
 30
0.0
 10
-10.88067
 20
-13.42137
 30
0.0
 10
-10.88067
 20
-13.42137
 30
0.0
 10
-10.80188
 20
-13.42137
 30
0.0
 10
-10.80188
 20
-13.42137
 30
0.0
 10
-10.80188
 20
-13.42137
 30
0.0
 10
-10.80188
 20
-13.42137
 30
0.0
 10
-10.80188
 20
-13.16469
 30
0.0
 10
-10.80188
 20
-13.16469
 30
0.0
 10
-10.80188
 20
-13.16469
 30
0.0
 10
-10.80188
 20
-13.14338
 30
0.0
 10
-10.80322
 20
-13.12984
 30
0.0
 10
-10.80589
 20
-13.12377
 30
0.0
 10
-10.80589
 20
-13.12377
 30
0.0
 10
-10.80872
 20
-13.1177
 30
0.0
 10
-10.81318
 20
-13.1129
 30
0.0
 10
-10.81942
 20
-13.10923
 30
0.0
 10
-10.81942
 20
-13.10923
 30
0.0
 10
-10.82567
 20
-13.10571
 30
0.0
 10
-10.83459
 20
-13.10387
 30
0.0
 10
-10.84618
 20
-13.10387
 30
0.0
 10
-10.84618
 20
-13.10387
 30
0.0
 10
-10.85496
 20
-13.10387
 30
0.0
 10
-10.8664
 20
-13.10486
 30
0.0
 10
-10.88067
 20
-13.10683
 30
0.0
  0
SPLINE
  5
6C
330
1F
100
AcDbEntity
  8
Layer 1
 62
   250
100
AcDbSpline
210
0.0
220
0.0
230
1.0
 70
    11
 71
     3
 72
    20
 73
    16
 74
     0
 42
0.0000000001
 43
0.0000000001
 40
0.0
 40
0.0
 40
0.0
 40
0.0
 40
0.25
 40
0.25
 40
0.25
 40
0.25
 40
0.5
 40
0.5
 40
0.5
 40
0.5
 40
0.75
 40
0.75
 40
0.75
 40
0.75
 40
1.0
 40
1.0
 40
1.0
 40
1.0
 10
-10.97954
 20
-13.04023
 30
0.0
 10
-10.97954
 20
-13.04023
 30
0.0
 10
-10.97954
 20
-13.12504
 30
0.0
 10
-10.97954
 20
-13.12504
 30
0.0
 10
-10.97954
 20
-13.12504
 30
0.0
 10
-10.97954
 20
-13.12504
 30
0.0
 10
-11.06888
 20
-13.12504
 30
0.0
 10
-11.06888
 20
-13.12504
 30
0.0
 10
-11.06888
 20
-13.12504
 30
0.0
 10
-11.06888
 20
-13.12504
 30
0.0
 10
-11.06888
 20
-13.04023
 30
0.0
 10
-11.06888
 20
-13.04023
 30
0.0
 10
-11.06888
 20
-13.04023
 30
0.0
 10
-11.06888
 20
-13.04023
 30
0.0
 10
-10.97954
 20
-13.04023
 30
0.0
 10
-10.97954
 20
-13.04023
 30
0.0
  0
SPLINE
  5
6D
330
1F
100
AcDbEntity
  8
Layer 1
 62
   250
100
AcDbSpline
210
0.0
220
0.0
230
1.0
 70
    11
 71
     3
 72
    80
 73
    76
 74
     0
 42
0.0000000001
 43
0.0000000001
 40
0.0
 40
0.0
 40
0.0
 40
0.0
 40
0.0526315789473684
 40
0.0526315789473684
 40
0.0526315789473684
 40
0.0526315789473684
 40
0.1052631578947368
 40
0.1052631578947368
 40
0.1052631578947368
 40
0.1052631578947368
 40
0.1578947368421053
 40
0.1578947368421053
 40
0.1578947368421053
 40
0.1578947368421053
 40
0.2105263157894737
 40
0.2105263157894737
 40
0.2105263157894737
 40
0.2105263157894737
 40
0.2631578947368421
 40
0.2631578947368421
 40
0.2631578947368421
 40
0.2631578947368421
 40
0.3157894736842105
 40
0.3157894736842105
 40
0.3157894736842105
 40
0.3157894736842105
 40
0.3684210526315789
 40
0.3684210526315789
 40
0.3684210526315789
 40
0.3684210526315789
 40
0.4210526315789473
 40
0.4210526315789473
 40
0.4210526315789473
 40
0.4210526315789473
 40
0.4736842105263158
 40
0.4736842105263158
 40
0.4736842105263158
 40
0.4736842105263158
 40
0.5263157894736842
 40
0.5263157894736842
 40
0.5263157894736842
 40
0.5263157894736842
 40
0.5789473684210527
 40
0.5789473684210527
 40
0.5789473684210527
 40
0.5789473684210527
 40
0.631578947368421
 40
0.631578947368421
 40
0.631578947368421
 40
0.631578947368421
 40
0.6842105263157894
 40
0.6842105263157894
 40
0.6842105263157894
 40
0.6842105263157894
 40
0.7368421052631577
 40
0.7368421052631577
 40
0.7368421052631577
 40
0.7368421052631577
 40
0.7894736842105261
 40
0.7894736842105261
 40
0.7894736842105261
 40
0.7894736842105261
 40
0.8421052631578945
 40
0.8421052631578945
 40
0.8421052631578945
 40
0.8421052631578945
 40
0.8947368421052628
 40
0.8947368421052628
 40
0.8947368421052628
 40
0.8947368421052628
 40
0.9473684210526312
 40
0.9473684210526312
 40
0.9473684210526312
 40
0.9473684210526312
 40
1.0
 40
1.0
 40
1.0
 40
1.0
 10
-11.50702
 20
-13.2011
 30
0.0
 10
-11.50702
 20
-13.2011
 30
0.0
 10
-11.58402
 20
-13.1915
 30
0.0
 10
-11.58402
 20
-13.1915
 30
0.0
 10
-11.58402
 20
-13.1915
 30
0.0
 10
-11.5757
 20
-13.14112
 30
0.0
 10
-11.55414
 20
-13.10161
 30
0.0
 10
-11.51935
 20
-13.07311
 30
0.0
 10
-11.51935
 20
-13.07311
 30
0.0
 10
-11.48471
 20
-13.0446
 30
0.0
 10
-11.44204
 20
-13.03035
 30
0.0
 10
-11.39149
 20
-13.03035
 30
0.0
 10
-11.39149
 20
-13.03035
 30
0.0
 10
-11.32831
 20
-13.03035
 30
0.0
 10
-11.27732
 20
-13.04997
 30
0.0
 10
-11.23896
 20
-13.0892
 30
0.0
 10
-11.23896
 20
-13.0892
 30
0.0
 10
-11.20045
 20
-13.12842
 30
0.0
 10
-11.18113
 20
-13.18473
 30
0.0
 10
-11.18113
 20
-13.25811
 30
0.0
 10
-11.18113
 20
-13.25811
 30
0.0
 10
-11.18113
 20
-13.30552
 30
0.0
 10
-11.18945
 20
-13.34701
 30
0.0
 10
-11.20596
 20
-13.38257
 30
0.0
 10
-11.20596
 20
-13.38257
 30
0.0
 10
-11.22261
 20
-13.41813
 30
0.0
 10
-11.24773
 20
-13.4448
 30
0.0
 10
-11.28163
 20
-13.46258
 30
0.0
 10
-11.28163
 20
-13.46258
 30
0.0
 10
-11.31537
 20
-13.48036
 30
0.0
 10
-11.35225
 20
-13.48925
 30
0.0
 10
-11.39195
 20
-13.48925
 30
0.0
 10
-11.39195
 20
-13.48925
 30
0.0
 10
-11.44219
 20
-13.48925
 30
0.0
 10
-11.48337
 20
-13.47711
 30
0.0
 10
-11.51519
 20
-13.45298
 30
0.0
 10
-11.51519
 20
-13.45298
 30
0.0
 10
-11.54716
 20
-13.42885
 30
0.0
 10
-11.56767
 20
-13.3947
 30
0.0
 10
-11.57674
 20
-13.35025
 30
0.0
 10
-11.57674
 20
-13.35025
 30
0.0
 10
-11.57674
 20
-13.35025
 30
0.0
 10
-11.50047
 20
-13.3391
 30
0.0
 10
-11.50047
 20
-13.3391
 30
0.0
 10
-11.50047
 20
-13.3391
 30
0.0
 10
-11.49318
 20
-13.3686
 30
0.0
 10
-11.4804
 20
-13.39075
 30
0.0
 10
-11.46197
 20
-13.40571
 30
0.0
 10
-11.46197
 20
-13.40571
 30
0.0
 10
-11.44353
 20
-13.42053
 30
0.0
 10
-11.42124
 20
-13.428
 30
0.0
 10
-11.39506
 20
-13.428
 30
0.0
 10
-11.39506
 20
-13.428
 30
0.0
 10
-11.35551
 20
-13.428
 30
0.0
 10
-11.3234
 20
-13.4146
 30
0.0
 10
-11.29873
 20
-13.38765
 30
0.0
 10
-11.29873
 20
-13.38765
 30
0.0
 10
-11.27404
 20
-13.36084
 30
0.0
 10
-11.2617
 20
-13.31836
 30
0.0
 10
-11.2617
 20
-13.26022
 30
0.0
 10
-11.2617
 20
-13.26022
 30
0.0
 10
-11.2617
 20
-13.20124
 30
0.0
 10
-11.2736
 20
-13.15834
 30
0.0
 10
-11.29754
 20
-13.13153
 30
0.0
 10
-11.29754
 20
-13.13153
 30
0.0
 10
-11.32133
 20
-13.10486
 30
0.0
 10
-11.3524
 20
-13.09145
 30
0.0
 10
-11.39076
 20
-13.09145
 30
0.0
 10
-11.39076
 20
-13.09145
 30
0.0
 10
-11.42153
 20
-13.09145
 30
0.0
 10
-11.4471
 20
-13.10048
 30
0.0
 10
-11.46776
 20
-13.11841
 30
0.0
 10
-11.46776
 20
-13.11841
 30
0.0
 10
-11.48843
 20
-13.13633
 30
0.0
 10
-11.50152
 20
-13.16384
 30
0.0
 10
-11.50702
 20
-13.2011
 30
0.0
  0
SPLINE
  5
6E
330
1F
100
AcDbEntity
  8
Layer 1
 62
   250
100
AcDbSpline
210
0.0
220
0.0
230
1.0
 70
    11
 71
     3
 72
    40
 73
    36
 74
     0
 42
0.0000000001
 43
0.0000000001
 40
0.0
 40
0.0
 40
0.0
 40
0.0
 40
0.1111111111111111
 40
0.1111111111111111
 40
0.1111111111111111
 40
0.1111111111111111
 40
0.2222222222222222
 40
0.2222222222222222
 40
0.2222222222222222
 40
0.2222222222222222
 40
0.3333333333333333
 40
0.3333333333333333
 40
0.3333333333333333
 40
0.3333333333333333
 40
0.4444444444444444
 40
0.4444444444444444
 40
0.4444444444444444
 40
0.4444444444444444
 40
0.5555555555555556
 40
0.5555555555555556
 40
0.5555555555555556
 40
0.5555555555555556
 40
0.6666666666666667
 40
0.6666666666666667
 40
0.6666666666666667
 40
0.6666666666666667
 40
0.7777777777777779
 40
0.7777777777777779
 40
0.7777777777777779
 40
0.7777777777777779
 40
0.8888888888888891
 40
0.8888888888888891
 40
0.8888888888888891
 40
0.8888888888888891
 40
1.0
 40
1.0
 40
1.0
 40
1.0
 10
-11.62194
 20
-13.2598
 30
0.0
 10
-11.62194
 20
-13.34108
 30
0.0
 10
-11.64573
 20
-13.40133
 30
0.0
 10
-11.69346
 20
-13.44042
 30
0.0
 10
-11.69346
 20
-13.44042
 30
0.0
 10
-11.73314
 20
-13.47288
 30
0.0
 10
-11.78162
 20
-13.48925
 30
0.0
 10
-11.83885
 20
-13.48925
 30
0.0
 10
-11.83885
 20
-13.48925
 30
0.0
 10
-11.90248
 20
-13.48925
 30
0.0
 10
-11.95452
 20
-13.46949
 30
0.0
 10
-11.99481
 20
-13.42984
 30
0.0
 10
-11.99481
 20
-13.42984
 30
0.0
 10
-12.03524
 20
-13.39033
 30
0.0
 10
-12.05531
 20
-13.33572
 30
0.0
 10
-12.05531
 20
-13.26601
 30
0.0
 10
-12.05531
 20
-13.26601
 30
0.0
 10
-12.05531
 20
-13.20942
 30
0.0
 10
-12.0464
 20
-13.16497
 30
0.0
 10
-12.02855
 20
-13.13266
 30
0.0
 10
-12.02855
 20
-13.13266
 30
0.0
 10
-12.01071
 20
-13.1002
 30
0.0
 10
-11.98469
 20
-13.07508
 30
0.0
 10
-11.95065
 20
-13.05716
 30
0.0
 10
-11.95065
 20
-13.05716
 30
0.0
 10
-11.91645
 20
-13.03924
 30
0.0
 10
-11.87929
 20
-13.03035
 30
0.0
 10
-11.83885
 20
-13.03035
 30
0.0
 10
-11.83885
 20
-13.03035
 30
0.0
 10
-11.77418
 20
-13.03035
 30
0.0
 10
-11.72185
 20
-13.04997
 30
0.0
 10
-11.68186
 20
-13.08948
 30
0.0
 10
-11.68186
 20
-13.08948
 30
0.0
 10
-11.64186
 20
-13.12885
 30
0.0
 10
-11.62194
 20
-13.18558
 30
0.0
 10
-11.62194
 20
-13.2598
 30
0.0
  0
SPLINE
  5
6F
330
1F
100
AcDbEntity
  8
Layer 1
 62
   250
100
AcDbSpline
210
0.0
220
0.0
230
1.0
 70
    11
 71
     3
 72
    36
 73
    32
 74
     0
 42
0.0000000001
 43
0.0000000001
 40
0.0
 40
0.0
 40
0.0
 40
0.0
 40
0.125
 40
0.125
 40
0.125
 40
0.125
 40
0.25
 40
0.25
 40
0.25
 40
0.25
 40
0.375
 40
0.375
 40
0.375
 40
0.375
 40
0.5
 40
0.5
 40
0.5
 40
0.5
 40
0.625
 40
0.625
 40
0.625
 40
0.625
 40
0.75
 40
0.75
 40
0.75
 40
0.75
 40
0.875
 40
0.875
 40
0.875
 40
0.875
 40
1.0
 40
1.0
 40
1.0
 40
1.0
 10
-11.70252
 20
-13.2598
 30
0.0
 10
-11.70252
 20
-13.2035
 30
0.0
 10
-11.71545
 20
-13.16144
 30
0.0
 10
-11.74132
 20
-13.1335
 30
0.0
 10
-11.74132
 20
-13.1335
 30
0.0
 10
-11.76719
 20
-13.10542
 30
0.0
 10
-11.79975
 20
-13.09145
 30
0.0
 10
-11.83885
 20
-13.09145
 30
0.0
 10
-11.83885
 20
-13.09145
 30
0.0
 10
-11.8778
 20
-13.09145
 30
0.0
 10
-11.91022
 20
-13.10556
 30
0.0
 10
-11.93608
 20
-13.13365
 30
0.0
 10
-11.93608
 20
-13.13365
 30
0.0
 10
-11.9618
 20
-13.16173
 30
0.0
 10
-11.97474
 20
-13.20463
 30
0.0
 10
-11.97474
 20
-13.2622
 30
0.0
 10
-11.97474
 20
-13.2622
 30
0.0
 10
-11.97474
 20
-13.31653
 30
0.0
 10
-11.9618
 20
-13.35773
 30
0.0
 10
-11.93578
 20
-13.38567
 30
0.0
 10
-11.93578
 20
-13.38567
 30
0.0
 10
-11.90976
 20
-13.41361
 30
0.0
 10
-11.8775
 20
-13.42758
 30
0.0
 10
-11.83885
 20
-13.42758
 30
0.0
 10
-11.83885
 20
-13.42758
 30
0.0
 10
-11.79975
 20
-13.42758
 30
0.0
 10
-11.76719
 20
-13.41361
 30
0.0
 10
-11.74132
 20
-13.38581
 30
0.0
 10
-11.74132
 20
-13.38581
 30
0.0
 10
-11.71545
 20
-13.35801
 30
0.0
 10
-11.70252
 20
-13.31596
 30
0.0
 10
-11.70252
 20
-13.2598
 30
0.0
  0
SPLINE
  5
70
330
1F
100
AcDbEntity
  8
Layer 1
 62
   250
100
AcDbSpline
210
0.0
220
0.0
230
1.0
 70
    11
 71
     3
 72
    20
 73
    16
 74
     0
 42
0.0000000001
 43
0.0000000001
 40
0.0
 40
0.0
 40
0.0
 40
0.0
 40
0.25
 40
0.25
 40
0.25
 40
0.25
 40
0.5
 40
0.5
 40
0.5
 40
0.5
 40
0.75
 40
0.75
 40
0.75
 40
0.75
 40
1.0
 40
1.0
 40
1.0
 40
1.0
 10
-12.1695
 20
-13.04023
 30
0.0
 10
-12.1695
 20
-13.04023
 30
0.0
 10
-12.1695
 20
-13.12504
 30
0.0
 10
-12.1695
 20
-13.12504
 30
0.0
 10
-12.1695
 20
-13.12504
 30
0.0
 10
-12.1695
 20
-13.12504
 30
0.0
 10
-12.25884
 20
-13.12504
 30
0.0
 10
-12.25884
 20
-13.12504
 30
0.0
 10
-12.25884
 20
-13.12504
 30
0.0
 10
-12.25884
 20
-13.12504
 30
0.0
 10
-12.25884
 20
-13.04023
 30
0.0
 10
-12.25884
 20
-13.04023
 30
0.0
 10
-12.25884
 20
-13.04023
 30
0.0
 10
-12.25884
 20
-13.04023
 30
0.0
 10
-12.1695
 20
-13.04023
 30
0.0
 10
-12.1695
 20
-13.04023
 30
0.0
  0
SPLINE
  5
71
330
1F
100
AcDbEntity
  8
Layer 1
 62
   250
100
AcDbSpline
210
0.0
220
0.0
230
1.0
 70
    11
 71
     3
 72
    80
 73
    76
 74
     0
 42
0.0000000001
 43
0.0000000001
 40
0.0
 40
0.0
 40
0.0
 40
0.0
 40
0.0526315789473684
 40
0.0526315789473684
 40
0.0526315789473684
 40
0.0526315789473684
 40
0.1052631578947368
 40
0.1052631578947368
 40
0.1052631578947368
 40
0.1052631578947368
 40
0.1578947368421053
 40
0.1578947368421053
 40
0.1578947368421053
 40
0.1578947368421053
 40
0.2105263157894737
 40
0.2105263157894737
 40
0.2105263157894737
 40
0.2105263157894737
 40
0.2631578947368421
 40
0.2631578947368421
 40
0.2631578947368421
 40
0.2631578947368421
 40
0.3157894736842105
 40
0.3157894736842105
 40
0.3157894736842105
 40
0.3157894736842105
 40
0.3684210526315789
 40
0.3684210526315789
 40
0.3684210526315789
 40
0.3684210526315789
 40
0.4210526315789473
 40
0.4210526315789473
 40
0.4210526315789473
 40
0.4210526315789473
 40
0.4736842105263158
 40
0.4736842105263158
 40
0.4736842105263158
 40
0.4736842105263158
 40
0.5263157894736842
 40
0.5263157894736842
 40
0.5263157894736842
 40
0.5263157894736842
 40
0.5789473684210527
 40
0.5789473684210527
 40
0.5789473684210527
 40
0.5789473684210527
 40
0.631578947368421
 40
0.631578947368421
 40
0.631578947368421
 40
0.631578947368421
 40
0.6842105263157894
 40
0.6842105263157894
 40
0.6842105263157894
 40
0.6842105263157894
 40
0.7368421052631577
 40
0.7368421052631577
 40
0.7368421052631577
 40
0.7368421052631577
 40
0.7894736842105261
 40
0.7894736842105261
 40
0.7894736842105261
 40
0.7894736842105261
 40
0.8421052631578945
 40
0.8421052631578945
 40
0.8421052631578945
 40
0.8421052631578945
 40
0.8947368421052628
 40
0.8947368421052628
 40
0.8947368421052628
 40
0.8947368421052628
 40
0.9473684210526312
 40
0.9473684210526312
 40
0.9473684210526312
 40
0.9473684210526312
 40
1.0
 40
1.0
 40
1.0
 40
1.0
 10
-12.69831
 20
-13.04023
 30
0.0
 10
-12.69831
 20
-13.04023
 30
0.0
 10
-12.69831
 20
-13.10472
 30
0.0
 10
-12.69831
 20
-13.10472
 30
0.0
 10
-12.69831
 20
-13.10472
 30
0.0
 10
-12.66218
 20
-13.05505
 30
0.0
 10
-12.61327
 20
-13.03035
 30
0.0
 10
-12.55142
 20
-13.03035
 30
0.0
 10
-12.55142
 20
-13.03035
 30
0.0
 10
-12.52422
 20
-13.03035
 30
0.0
 10
-12.49864
 20
-13.03529
 30
0.0
 10
-12.47501
 20
-13.04517
 30
0.0
 10
-12.47501
 20
-13.04517
 30
0.0
 10
-12.45137
 20
-13.05505
 30
0.0
 10
-12.43383
 20
-13.06761
 30
0.0
 10
-12.42237
 20
-13.08256
 30
0.0
 10
-12.42237
 20
-13.08256
 30
0.0
 10
-12.41078
 20
-13.09766
 30
0.0
 10
-12.40276
 20
-13.11601
 30
0.0
 10
-12.39814
 20
-13.13774
 30
0.0
 10
-12.39814
 20
-13.13774
 30
0.0
 10
-12.39502
 20
-13.15241
 30
0.0
 10
-12.39339
 20
-13.17556
 30
0.0
 10
-12.39339
 20
-13.20731
 30
0.0
 10
-12.39339
 20
-13.20731
 30
0.0
 10
-12.39339
 20
-13.20731
 30
0.0
 10
-12.39339
 20
-13.47923
 30
0.0
 10
-12.39339
 20
-13.47923
 30
0.0
 10
-12.39339
 20
-13.47923
 30
0.0
 10
-12.39339
 20
-13.47923
 30
0.0
 10
-12.47173
 20
-13.47923
 30
0.0
 10
-12.47173
 20
-13.47923
 30
0.0
 10
-12.47173
 20
-13.47923
 30
0.0
 10
-12.47173
 20
-13.47923
 30
0.0
 10
-12.47173
 20
-13.23581
 30
0.0
 10
-12.47173
 20
-13.23581
 30
0.0
 10
-12.47173
 20
-13.23581
 30
0.0
 10
-12.47173
 20
-13.19686
 30
0.0
 10
-12.47337
 20
-13.17076
 30
0.0
 10
-12.47649
 20
-13.15721
 30
0.0
 10
-12.47649
 20
-13.15721
 30
0.0
 10
-12.48155
 20
-13.1376
 30
0.0
 10
-12.49195
 20
-13.12236
 30
0.0
 10
-12.50786
 20
-13.11107
 30
0.0
 10
-12.50786
 20
-13.11107
 30
0.0
 10
-12.52392
 20
-13.09992
 30
0.0
 10
-12.54369
 20
-13.09442
 30
0.0
 10
-12.56719
 20
-13.09442
 30
0.0
 10
-12.56719
 20
-13.09442
 30
0.0
 10
-12.59067
 20
-13.09442
 30
0.0
 10
-12.61268
 20
-13.10006
 30
0.0
 10
-12.63334
 20
-13.11149
 30
0.0
 10
-12.63334
 20
-13.11149
 30
0.0
 10
-12.65401
 20
-13.12292
 30
0.0
 10
-12.66857
 20
-13.13858
 30
0.0
 10
-12.67705
 20
-13.1582
 30
0.0
 10
-12.67705
 20
-13.1582
 30
0.0
 10
-12.68567
 20
-13.17795
 30
0.0
 10
-12.68998
 20
-13.2066
 30
0.0
 10
-12.68998
 20
-13.244
 30
0.0
 10
-12.68998
 20
-13.244
 30
0.0
 10
-12.68998
 20
-13.244
 30
0.0
 10
-12.68998
 20
-13.47923
 30
0.0
 10
-12.68998
 20
-13.47923
 30
0.0
 10
-12.68998
 20
-13.47923
 30
0.0
 10
-12.68998
 20
-13.47923
 30
0.0
 10
-12.76833
 20
-13.47923
 30
0.0
 10
-12.76833
 20
-13.47923
 30
0.0
 10
-12.76833
 20
-13.47923
 30
0.0
 10
-12.76833
 20
-13.47923
 30
0.0
 10
-12.76833
 20
-13.04023
 30
0.0
 10
-12.76833
 20
-13.04023
 30
0.0
 10
-12.76833
 20
-13.04023
 30
0.0
 10
-12.76833
 20
-13.04023
 30
0.0
 10
-12.69831
 20
-13.04023
 30
0.0
 10
-12.69831
 20
-13.04023
 30
0.0
  0
SPLINE
  5
72
330
1F
100
AcDbEntity
  8
Layer 1
 62
   250
100
AcDbSpline
210
0.0
220
0.0
230
1.0
 70
    11
 71
     3
 72
    52
 73
    48
 74
     0
 42
0.0000000001
 43
0.0000000001
 40
0.0
 40
0.0
 40
0.0
 40
0.0
 40
0.0833333333333333
 40
0.0833333333333333
 40
0.0833333333333333
 40
0.0833333333333333
 40
0.1666666666666667
 40
0.1666666666666667
 40
0.1666666666666667
 40
0.1666666666666667
 40
0.25
 40
0.25
 40
0.25
 40
0.25
 40
0.3333333333333333
 40
0.3333333333333333
 40
0.3333333333333333
 40
0.3333333333333333
 40
0.4166666666666666
 40
0.4166666666666666
 40
0.4166666666666666
 40
0.4166666666666666
 40
0.4999999999999999
 40
0.4999999999999999
 40
0.4999999999999999
 40
0.4999999999999999
 40
0.5833333333333333
 40
0.5833333333333333
 40
0.5833333333333333
 40
0.5833333333333333
 40
0.6666666666666666
 40
0.6666666666666666
 40
0.6666666666666666
 40
0.6666666666666666
 40
0.75
 40
0.75
 40
0.75
 40
0.75
 40
0.8333333333333334
 40
0.8333333333333334
 40
0.8333333333333334
 40
0.8333333333333334
 40
0.9166666666666667
 40
0.9166666666666667
 40
0.9166666666666667
 40
0.9166666666666667
 40
1.0
 40
1.0
 40
1.0
 40
1.0
 10
-12.89158
 20
-13.04023
 30
0.0
 10
-12.89158
 20
-13.04023
 30
0.0
 10
-12.89158
 20
-13.6463
 30
0.0
 10
-12.89158
 20
-13.6463
 30
0.0
 10
-12.89158
 20
-13.6463
 30
0.0
 10
-12.89158
 20
-13.6463
 30
0.0
 10
-12.97008
 20
-13.6463
 30
0.0
 10
-12.97008
 20
-13.6463
 30
0.0
 10
-12.97008
 20
-13.6463
 30
0.0
 10
-12.97008
 20
-13.6463
 30
0.0
 10
-12.97008
 20
-13.30072
 30
0.0
 10
-12.97008
 20
-13.30072
 30
0.0
 10
-12.97008
 20
-13.30072
 30
0.0
 10
-12.97008
 20
-13.30072
 30
0.0
 10
-13.15562
 20
-13.47923
 30
0.0
 10
-13.15562
 20
-13.47923
 30
0.0
 10
-13.15562
 20
-13.47923
 30
0.0
 10
-13.15562
 20
-13.47923
 30
0.0
 10
-13.25701
 20
-13.47923
 30
0.0
 10
-13.25701
 20
-13.47923
 30
0.0
 10
-13.25701
 20
-13.47923
 30
0.0
 10
-13.25701
 20
-13.47923
 30
0.0
 10
-13.08024
 20
-13.31639
 30
0.0
 10
-13.08024
 20
-13.31639
 30
0.0
 10
-13.08024
 20
-13.31639
 30
0.0
 10
-13.08024
 20
-13.31639
 30
0.0
 10
-13.275
 20
-13.04023
 30
0.0
 10
-13.275
 20
-13.04023
 30
0.0
 10
-13.275
 20
-13.04023
 30
0.0
 10
-13.275
 20
-13.04023
 30
0.0
 10
-13.17822
 20
-13.04023
 30
0.0
 10
-13.17822
 20
-13.04023
 30
0.0
 10
-13.17822
 20
-13.04023
 30
0.0
 10
-13.17822
 20
-13.04023
 30
0.0
 10
-13.02538
 20
-13.26474
 30
0.0
 10
-13.02538
 20
-13.26474
 30
0.0
 10
-13.02538
 20
-13.26474
 30
0.0
 10
-13.02538
 20
-13.26474
 30
0.0
 10
-12.97008
 20
-13.21422
 30
0.0
 10
-12.97008
 20
-13.21422
 30
0.0
 10
-12.97008
 20
-13.21422
 30
0.0
 10
-12.97008
 20
-13.21422
 30
0.0
 10
-12.97008
 20
-13.04023
 30
0.0
 10
-12.97008
 20
-13.04023
 30
0.0
 10
-12.97008
 20
-13.04023
 30
0.0
 10
-12.97008
 20
-13.04023
 30
0.0
 10
-12.89158
 20
-13.04023
 30
0.0
 10
-12.89158
 20
-13.04023
 30
0.0
  0
SPLINE
  5
73
330
1F
100
AcDbEntity
  8
Layer 1
 62
   250
100
AcDbSpline
210
0.0
220
0.0
230
1.0
 70
    11
 71
     3
 72
    40
 73
    36
 74
     0
 42
0.0000000001
 43
0.0000000001
 40
0.0
 40
0.0
 40
0.0
 40
0.0
 40
0.1111111111111111
 40
0.1111111111111111
 40
0.1111111111111111
 40
0.1111111111111111
 40
0.2222222222222222
 40
0.2222222222222222
 40
0.2222222222222222
 40
0.2222222222222222
 40
0.3333333333333333
 40
0.3333333333333333
 40
0.3333333333333333
 40
0.3333333333333333
 40
0.4444444444444444
 40
0.4444444444444444
 40
0.4444444444444444
 40
0.4444444444444444
 40
0.5555555555555556
 40
0.5555555555555556
 40
0.5555555555555556
 40
0.5555555555555556
 40
0.6666666666666667
 40
0.6666666666666667
 40
0.6666666666666667
 40
0.6666666666666667
 40
0.7777777777777779
 40
0.7777777777777779
 40
0.7777777777777779
 40
0.7777777777777779
 40
0.8888888888888891
 40
0.8888888888888891
 40
0.8888888888888891
 40
0.8888888888888891
 40
1.0
 40
1.0
 40
1.0
 40
1.0
 10
-13.24542
 20
-16.41684
 30
0.0
 10
-13.24542
 20
-16.33556
 30
0.0
 10
-13.22163
 20
-16.27531
 30
0.0
 10
-13.1739
 20
-16.23622
 30
0.0
 10
-13.1739
 20
-16.23622
 30
0.0
 10
-13.13421
 20
-16.20376
 30
0.0
 10
-13.08574
 20
-16.18739
 30
0.0
 10
-13.02851
 20
-16.18739
 30
0.0
 10
-13.02851
 20
-16.18739
 30
0.0
 10
-12.96487
 20
-16.18739
 30
0.0
 10
-12.91284
 20
-16.20715
 30
0.0
 10
-12.87255
 20
-16.2468
 30
0.0
 10
-12.87255
 20
-16.2468
 30
0.0
 10
-12.83211
 20
-16.28631
 30
0.0
 10
-12.81204
 20
-16.34092
 30
0.0
 10
-12.81204
 20
-16.41063
 30
0.0
 10
-12.81204
 20
-16.41063
 30
0.0
 10
-12.81204
 20
-16.46722
 30
0.0
 10
-12.82096
 20
-16.51167
 30
0.0
 10
-12.8388
 20
-16.54398
 30
0.0
 10
-12.8388
 20
-16.54398
 30
0.0
 10
-12.85664
 20
-16.57644
 30
0.0
 10
-12.88266
 20
-16.60156
 30
0.0
 10
-12.9167
 20
-16.61948
 30
0.0
 10
-12.9167
 20
-16.61948
 30
0.0
 10
-12.9509
 20
-16.6374
 30
0.0
 10
-12.98806
 20
-16.64629
 30
0.0
 10
-13.02851
 20
-16.64629
 30
0.0
 10
-13.02851
 20
-16.64629
 30
0.0
 10
-13.09318
 20
-16.64629
 30
0.0
 10
-13.14551
 20
-16.62667
 30
0.0
 10
-13.1855
 20
-16.58716
 30
0.0
 10
-13.1855
 20
-16.58716
 30
0.0
 10
-13.22549
 20
-16.54779
 30
0.0
 10
-13.24542
 20
-16.49106
 30
0.0
 10
-13.24542
 20
-16.41684
 30
0.0
  0
SPLINE
  5
74
330
1F
100
AcDbEntity
  8
Layer 1
 62
   250
100
AcDbSpline
210
0.0
220
0.0
230
1.0
 70
    11
 71
     3
 72
    36
 73
    32
 74
     0
 42
0.0000000001
 43
0.0000000001
 40
0.0
 40
0.0
 40
0.0
 40
0.0
 40
0.125
 40
0.125
 40
0.125
 40
0.125
 40
0.25
 40
0.25
 40
0.25
 40
0.25
 40
0.375
 40
0.375
 40
0.375
 40
0.375
 40
0.5
 40
0.5
 40
0.5
 40
0.5
 40
0.625
 40
0.625
 40
0.625
 40
0.625
 40
0.75
 40
0.75
 40
0.75
 40
0.75
 40
0.875
 40
0.875
 40
0.875
 40
0.875
 40
1.0
 40
1.0
 40
1.0
 40
1.0
 10
-13.16484
 20
-16.41684
 30
0.0
 10
-13.16484
 20
-16.47314
 30
0.0
 10
-13.1519
 20
-16.5152
 30
0.0
 10
-13.12604
 20
-16.54314
 30
0.0
 10
-13.12604
 20
-16.54314
 30
0.0
 10
-13.10016
 20
-16.57122
 30
0.0
 10
-13.06761
 20
-16.58519
 30
0.0
 10
-13.02851
 20
-16.58519
 30
0.0
 10
-13.02851
 20
-16.58519
 30
0.0
 10
-12.98956
 20
-16.58519
 30
0.0
 10
-12.95714
 20
-16.57108
 30
0.0
 10
-12.93128
 20
-16.54299
 30
0.0
 10
-12.93128
 20
-16.54299
 30
0.0
 10
-12.90556
 20
-16.51491
 30
0.0
 10
-12.89262
 20
-16.47201
 30
0.0
 10
-12.89262
 20
-16.41444
 30
0.0
 10
-12.89262
 20
-16.41444
 30
0.0
 10
-12.89262
 20
-16.36011
 30
0.0
 10
-12.90556
 20
-16.31891
 30
0.0
 10
-12.93157
 20
-16.29097
 30
0.0
 10
-12.93157
 20
-16.29097
 30
0.0
 10
-12.95759
 20
-16.26303
 30
0.0
 10
-12.98985
 20
-16.24906
 30
0.0
 10
-13.02851
 20
-16.24906
 30
0.0
 10
-13.02851
 20
-16.24906
 30
0.0
 10
-13.06761
 20
-16.24906
 30
0.0
 10
-13.10016
 20
-16.26303
 30
0.0
 10
-13.12604
 20
-16.29083
 30
0.0
 10
-13.12604
 20
-16.29083
 30
0.0
 10
-13.1519
 20
-16.31863
 30
0.0
 10
-13.16484
 20
-16.36068
 30
0.0
 10
-13.16484
 20
-16.41684
 30
0.0
  0
SPLINE
  5
75
330
1F
100
AcDbEntity
  8
Layer 1
 62
   250
100
AcDbSpline
210
0.0
220
0.0
230
1.0
 70
    11
 71
     3
 72
    40
 73
    36
 74
     0
 42
0.0000000001
 43
0.0000000001
 40
0.0
 40
0.0
 40
0.0
 40
0.0
 40
0.1111111111111111
 40
0.1111111111111111
 40
0.1111111111111111
 40
0.1111111111111111
 40
0.2222222222222222
 40
0.2222222222222222
 40
0.2222222222222222
 40
0.2222222222222222
 40
0.3333333333333333
 40
0.3333333333333333
 40
0.3333333333333333
 40
0.3333333333333333
 40
0.4444444444444444
 40
0.4444444444444444
 40
0.4444444444444444
 40
0.4444444444444444
 40
0.5555555555555556
 40
0.5555555555555556
 40
0.5555555555555556
 40
0.5555555555555556
 40
0.6666666666666667
 40
0.6666666666666667
 40
0.6666666666666667
 40
0.6666666666666667
 40
0.7777777777777779
 40
0.7777777777777779
 40
0.7777777777777779
 40
0.7777777777777779
 40
0.8888888888888891
 40
0.8888888888888891
 40
0.8888888888888891
 40
0.8888888888888891
 40
1.0
 40
1.0
 40
1.0
 40
1.0
 10
-12.7493
 20
-16.41684
 30
0.0
 10
-12.7493
 20
-16.33556
 30
0.0
 10
-12.72551
 20
-16.27531
 30
0.0
 10
-12.67779
 20
-16.23622
 30
0.0
 10
-12.67779
 20
-16.23622
 30
0.0
 10
-12.6381
 20
-16.20376
 30
0.0
 10
-12.58963
 20
-16.18739
 30
0.0
 10
-12.5324
 20
-16.18739
 30
0.0
 10
-12.5324
 20
-16.18739
 30
0.0
 10
-12.46876
 20
-16.18739
 30
0.0
 10
-12.41673
 20
-16.20715
 30
0.0
 10
-12.37644
 20
-16.2468
 30
0.0
 10
-12.37644
 20
-16.2468
 30
0.0
 10
-12.336
 20
-16.28631
 30
0.0
 10
-12.31593
 20
-16.34092
 30
0.0
 10
-12.31593
 20
-16.41063
 30
0.0
 10
-12.31593
 20
-16.41063
 30
0.0
 10
-12.31593
 20
-16.46722
 30
0.0
 10
-12.32484
 20
-16.51167
 30
0.0
 10
-12.34269
 20
-16.54398
 30
0.0
 10
-12.34269
 20
-16.54398
 30
0.0
 10
-12.36053
 20
-16.57644
 30
0.0
 10
-12.38655
 20
-16.60156
 30
0.0
 10
-12.42059
 20
-16.61948
 30
0.0
 10
-12.42059
 20
-16.61948
 30
0.0
 10
-12.45479
 20
-16.6374
 30
0.0
 10
-12.49195
 20
-16.64629
 30
0.0
 10
-12.5324
 20
-16.64629
 30
0.0
 10
-12.5324
 20
-16.64629
 30
0.0
 10
-12.59706
 20
-16.64629
 30
0.0
 10
-12.64939
 20
-16.62667
 30
0.0
 10
-12.68939
 20
-16.58716
 30
0.0
 10
-12.68939
 20
-16.58716
 30
0.0
 10
-12.72938
 20
-16.54779
 30
0.0
 10
-12.7493
 20
-16.49106
 30
0.0
 10
-12.7493
 20
-16.41684
 30
0.0
  0
SPLINE
  5
76
330
1F
100
AcDbEntity
  8
Layer 1
 62
   250
100
AcDbSpline
210
0.0
220
0.0
230
1.0
 70
    11
 71
     3
 72
    36
 73
    32
 74
     0
 42
0.0000000001
 43
0.0000000001
 40
0.0
 40
0.0
 40
0.0
 40
0.0
 40
0.125
 40
0.125
 40
0.125
 40
0.125
 40
0.25
 40
0.25
 40
0.25
 40
0.25
 40
0.375
 40
0.375
 40
0.375
 40
0.375
 40
0.5
 40
0.5
 40
0.5
 40
0.5
 40
0.625
 40
0.625
 40
0.625
 40
0.625
 40
0.75
 40
0.75
 40
0.75
 40
0.75
 40
0.875
 40
0.875
 40
0.875
 40
0.875
 40
1.0
 40
1.0
 40
1.0
 40
1.0
 10
-12.66873
 20
-16.41684
 30
0.0
 10
-12.66873
 20
-16.47314
 30
0.0
 10
-12.65579
 20
-16.5152
 30
0.0
 10
-12.62992
 20
-16.54314
 30
0.0
 10
-12.62992
 20
-16.54314
 30
0.0
 10
-12.60405
 20
-16.57122
 30
0.0
 10
-12.57149
 20
-16.58519
 30
0.0
 10
-12.5324
 20
-16.58519
 30
0.0
 10
-12.5324
 20
-16.58519
 30
0.0
 10
-12.49345
 20
-16.58519
 30
0.0
 10
-12.46103
 20
-16.57108
 30
0.0
 10
-12.43516
 20
-16.54299
 30
0.0
 10
-12.43516
 20
-16.54299
 30
0.0
 10
-12.40945
 20
-16.51491
 30
0.0
 10
-12.39651
 20
-16.47201
 30
0.0
 10
-12.39651
 20
-16.41444
 30
0.0
 10
-12.39651
 20
-16.41444
 30
0.0
 10
-12.39651
 20
-16.36011
 30
0.0
 10
-12.40945
 20
-16.31891
 30
0.0
 10
-12.43546
 20
-16.29097
 30
0.0
 10
-12.43546
 20
-16.29097
 30
0.0
 10
-12.46148
 20
-16.26303
 30
0.0
 10
-12.49374
 20
-16.24906
 30
0.0
 10
-12.5324
 20
-16.24906
 30
0.0
 10
-12.5324
 20
-16.24906
 30
0.0
 10
-12.57149
 20
-16.24906
 30
0.0
 10
-12.60405
 20
-16.26303
 30
0.0
 10
-12.62992
 20
-16.29083
 30
0.0
 10
-12.62992
 20
-16.29083
 30
0.0
 10
-12.65579
 20
-16.31863
 30
0.0
 10
-12.66873
 20
-16.36068
 30
0.0
 10
-12.66873
 20
-16.41684
 30
0.0
  0
SPLINE
  5
77
330
1F
100
AcDbEntity
  8
Layer 1
 62
   250
100
AcDbSpline
210
0.0
220
0.0
230
1.0
 70
    11
 71
     3
 72
   116
 73
   112
 74
     0
 42
0.0000000001
 43
0.0000000001
 40
0.0
 40
0.0
 40
0.0
 40
0.0
 40
0.0357142857142857
 40
0.0357142857142857
 40
0.0357142857142857
 40
0.0357142857142857
 40
0.0714285714285714
 40
0.0714285714285714
 40
0.0714285714285714
 40
0.0714285714285714
 40
0.1071428571428571
 40
0.1071428571428571
 40
0.1071428571428571
 40
0.1071428571428571
 40
0.1428571428571428
 40
0.1428571428571428
 40
0.1428571428571428
 40
0.1428571428571428
 40
0.1785714285714285
 40
0.1785714285714285
 40
0.1785714285714285
 40
0.1785714285714285
 40
0.2142857142857142
 40
0.2142857142857142
 40
0.2142857142857142
 40
0.2142857142857142
 40
0.2499999999999999
 40
0.2499999999999999
 40
0.2499999999999999
 40
0.2499999999999999
 40
0.2857142857142856
 40
0.2857142857142856
 40
0.2857142857142856
 40
0.2857142857142856
 40
0.3214285714285713
 40
0.3214285714285713
 40
0.3214285714285713
 40
0.3214285714285713
 40
0.357142857142857
 40
0.357142857142857
 40
0.357142857142857
 40
0.357142857142857
 40
0.3928571428571427
 40
0.3928571428571427
 40
0.3928571428571427
 40
0.3928571428571427
 40
0.4285714285714284
 40
0.4285714285714284
 40
0.4285714285714284
 40
0.4285714285714284
 40
0.4642857142857141
 40
0.4642857142857141
 40
0.4642857142857141
 40
0.4642857142857141
 40
0.4999999999999998
 40
0.4999999999999998
 40
0.4999999999999998
 40
0.4999999999999998
 40
0.5357142857142856
 40
0.5357142857142856
 40
0.5357142857142856
 40
0.5357142857142856
 40
0.5714285714285713
 40
0.5714285714285713
 40
0.5714285714285713
 40
0.5714285714285713
 40
0.607142857142857
 40
0.607142857142857
 40
0.607142857142857
 40
0.607142857142857
 40
0.6428571428571427
 40
0.6428571428571427
 40
0.6428571428571427
 40
0.6428571428571427
 40
0.6785714285714284
 40
0.6785714285714284
 40
0.6785714285714284
 40
0.6785714285714284
 40
0.7142857142857141
 40
0.7142857142857141
 40
0.7142857142857141
 40
0.7142857142857141
 40
0.7499999999999998
 40
0.7499999999999998
 40
0.7499999999999998
 40
0.7499999999999998
 40
0.7857142857142855
 40
0.7857142857142855
 40
0.7857142857142855
 40
0.7857142857142855
 40
0.8214285714285712
 40
0.8214285714285712
 40
0.8214285714285712
 40
0.8214285714285712
 40
0.8571428571428569
 40
0.8571428571428569
 40
0.8571428571428569
 40
0.8571428571428569
 40
0.8928571428571426
 40
0.8928571428571426
 40
0.8928571428571426
 40
0.8928571428571426
 40
0.9285714285714283
 40
0.9285714285714283
 40
0.9285714285714283
 40
0.9285714285714283
 40
0.964285714285714
 40
0.964285714285714
 40
0.964285714285714
 40
0.964285714285714
 40
1.0
 40
1.0
 40
1.0
 40
1.0
 10
-12.2239
 20
-16.63641
 30
0.0
 10
-12.2239
 20
-16.63641
 30
0.0
 10
-12.2239
 20
-16.19741
 30
0.0
 10
-12.2239
 20
-16.19741
 30
0.0
 10
-12.2239
 20
-16.19741
 30
0.0
 10
-12.2239
 20
-16.19741
 30
0.0
 10
-12.15388
 20
-16.19741
 30
0.0
 10
-12.15388
 20
-16.19741
 30
0.0
 10
-12.15388
 20
-16.19741
 30
0.0
 10
-12.15388
 20
-16.19741
 30
0.0
 10
-12.15388
 20
-16.25894
 30
0.0
 10
-12.15388
 20
-16.25894
 30
0.0
 10
-12.15388
 20
-16.25894
 30
0.0
 10
-12.13931
 20
-16.23749
 30
0.0
 10
-12.11998
 20
-16.22013
 30
0.0
 10
-12.09589
 20
-16.20715
 30
0.0
 10
-12.09589
 20
-16.20715
 30
0.0
 10
-12.07181
 20
-16.19402
 30
0.0
 10
-12.04431
 20
-16.18739
 30
0.0
 10
-12.01354
 20
-16.18739
 30
0.0
 10
-12.01354
 20
-16.18739
 30
0.0
 10
-11.97934
 20
-16.18739
 30
0.0
 10
-11.95124
 20
-16.19417
 30
0.0
 10
-11.92939
 20
-16.20771
 30
0.0
 10
-11.92939
 20
-16.20771
 30
0.0
 10
-11.90738
 20
-16.22126
 30
0.0
 10
-11.89192
 20
-16.24003
 30
0.0
 10
-11.883
 20
-16.2643
 30
0.0
 10
-11.883
 20
-16.2643
 30
0.0
 10
-11.84628
 20
-16.21307
 30
0.0
 10
-11.79871
 20
-16.18739
 30
0.0
 10
-11.74013
 20
-16.18739
 30
0.0
 10
-11.74013
 20
-16.18739
 30
0.0
 10
-11.69419
 20
-16.18739
 30
0.0
 10
-11.65896
 20
-16.19953
 30
0.0
 10
-11.63428
 20
-16.22366
 30
0.0
 10
-11.63428
 20
-16.22366
 30
0.0
 10
-11.6096
 20
-16.24779
 30
0.0
 10
-11.59725
 20
-16.2849
 30
0.0
 10
-11.59725
 20
-16.335
 30
0.0
 10
-11.59725
 20
-16.335
 30
0.0
 10
-11.59725
 20
-16.335
 30
0.0
 10
-11.59725
 20
-16.63641
 30
0.0
 10
-11.59725
 20
-16.63641
 30
0.0
 10
-11.59725
 20
-16.63641
 30
0.0
 10
-11.59725
 20
-16.63641
 30
0.0
 10
-11.67516
 20
-16.63641
 30
0.0
 10
-11.67516
 20
-16.63641
 30
0.0
 10
-11.67516
 20
-16.63641
 30
0.0
 10
-11.67516
 20
-16.63641
 30
0.0
 10
-11.67516
 20
-16.35983
 30
0.0
 10
-11.67516
 20
-16.35983
 30
0.0
 10
-11.67516
 20
-16.35983
 30
0.0
 10
-11.67516
 20
-16.33006
 30
0.0
 10
-11.67769
 20
-16.30861
 30
0.0
 10
-11.68274
 20
-16.29548
 30
0.0
 10
-11.68274
 20
-16.29548
 30
0.0
 10
-11.68794
 20
-16.2825
 30
0.0
 10
-11.69716
 20
-16.27192
 30
0.0
 10
-11.7104
 20
-16.26388
 30
0.0
 10
-11.7104
 20
-16.26388
 30
0.0
 10
-11.72378
 20
-16.25597
 30
0.0
 10
-11.73954
 20
-16.25188
 30
0.0
 10
-11.75752
 20
-16.25188
 30
0.0
 10
-11.75752
 20
-16.25188
 30
0.0
 10
-11.79009
 20
-16.25188
 30
0.0
 10
-11.817
 20
-16.26218
 30
0.0
 10
-11.83855
 20
-16.28278
 30
0.0
 10
-11.83855
 20
-16.28278
 30
0.0
 10
-11.85996
 20
-16.30325
 30
0.0
 10
-11.87081
 20
-16.33612
 30
0.0
 10
-11.87081
 20
-16.38128
 30
0.0
 10
-11.87081
 20
-16.38128
 30
0.0
 10
-11.87081
 20
-16.38128
 30
0.0
 10
-11.87081
 20
-16.63641
 30
0.0
 10
-11.87081
 20
-16.63641
 30
0.0
 10
-11.87081
 20
-16.63641
 30
0.0
 10
-11.87081
 20
-16.63641
 30
0.0
 10
-11.94916
 20
-16.63641
 30
0.0
 10
-11.94916
 20
-16.63641
 30
0.0
 10
-11.94916
 20
-16.63641
 30
0.0
 10
-11.94916
 20
-16.63641
 30
0.0
 10
-11.94916
 20
-16.35122
 30
0.0
 10
-11.94916
 20
-16.35122
 30
0.0
 10
-11.94916
 20
-16.35122
 30
0.0
 10
-11.94916
 20
-16.31806
 30
0.0
 10
-11.95555
 20
-16.29323
 30
0.0
 10
-11.96834
 20
-16.27672
 30
0.0
 10
-11.96834
 20
-16.27672
 30
0.0
 10
-11.98112
 20
-16.26021
 30
0.0
 10
-12.00194
 20
-16.25188
 30
0.0
 10
-12.03108
 20
-16.25188
 30
0.0
 10
-12.03108
 20
-16.25188
 30
0.0
 10
-12.05308
 20
-16.25188
 30
0.0
 10
-12.07344
 20
-16.25738
 30
0.0
 10
-12.09218
 20
-16.26853
 30
0.0
 10
-12.09218
 20
-16.26853
 30
0.0
 10
-12.11091
 20
-16.27954
 30
0.0
 10
-12.12459
 20
-16.29563
 30
0.0
 10
-12.13292
 20
-16.31679
 30
0.0
 10
-12.13292
 20
-16.31679
 30
0.0
 10
-12.14139
 20
-16.3381
 30
0.0
 10
-12.14555
 20
-16.36872
 30
0.0
 10
-12.14555
 20
-16.40866
 30
0.0
 10
-12.14555
 20
-16.40866
 30
0.0
 10
-12.14555
 20
-16.40866
 30
0.0
 10
-12.14555
 20
-16.63641
 30
0.0
 10
-12.14555
 20
-16.63641
 30
0.0
 10
-12.14555
 20
-16.63641
 30
0.0
 10
-12.14555
 20
-16.63641
 30
0.0
 10
-12.2239
 20
-16.63641
 30
0.0
 10
-12.2239
 20
-16.63641
 30
0.0
  0
SPLINE
  5
78
330
1F
100
AcDbEntity
  8
Layer 1
 62
   250
100
AcDbSpline
210
0.0
220
0.0
230
1.0
 70
    11
 71
     3
 72
    20
 73
    16
 74
     0
 42
0.0000000001
 43
0.0000000001
 40
0.0
 40
0.0
 40
0.0
 40
0.0
 40
0.25
 40
0.25
 40
0.25
 40
0.25
 40
0.5
 40
0.5
 40
0.5
 40
0.5
 40
0.75
 40
0.75
 40
0.75
 40
0.75
 40
1.0
 40
1.0
 40
1.0
 40
1.0
 10
-11.48263
 20
-16.63641
 30
0.0
 10
-11.48263
 20
-16.63641
 30
0.0
 10
-11.48263
 20
-16.03034
 30
0.0
 10
-11.48263
 20
-16.03034
 30
0.0
 10
-11.48263
 20
-16.03034
 30
0.0
 10
-11.48263
 20
-16.03034
 30
0.0
 10
-11.40428
 20
-16.03034
 30
0.0
 10
-11.40428
 20
-16.03034
 30
0.0
 10
-11.40428
 20
-16.03034
 30
0.0
 10
-11.40428
 20
-16.03034
 30
0.0
 10
-11.40428
 20
-16.63641
 30
0.0
 10
-11.40428
 20
-16.63641
 30
0.0
 10
-11.40428
 20
-16.63641
 30
0.0
 10
-11.40428
 20
-16.63641
 30
0.0
 10
-11.48263
 20
-16.63641
 30
0.0
 10
-11.48263
 20
-16.63641
 30
0.0
  0
SPLINE
  5
79
330
1F
100
AcDbEntity
  8
Layer 1
 62
   250
100
AcDbSpline
210
0.0
220
0.0
230
1.0
 70
    11
 71
     3
 72
    40
 73
    36
 74
     0
 42
0.0000000001
 43
0.0000000001
 40
0.0
 40
0.0
 40
0.0
 40
0.0
 40
0.1111111111111111
 40
0.1111111111111111
 40
0.1111111111111111
 40
0.1111111111111111
 40
0.2222222222222222
 40
0.2222222222222222
 40
0.2222222222222222
 40
0.2222222222222222
 40
0.3333333333333333
 40
0.3333333333333333
 40
0.3333333333333333
 40
0.3333333333333333
 40
0.4444444444444444
 40
0.4444444444444444
 40
0.4444444444444444
 40
0.4444444444444444
 40
0.5555555555555556
 40
0.5555555555555556
 40
0.5555555555555556
 40
0.5555555555555556
 40
0.6666666666666667
 40
0.6666666666666667
 40
0.6666666666666667
 40
0.6666666666666667
 40
0.7777777777777779
 40
0.7777777777777779
 40
0.7777777777777779
 40
0.7777777777777779
 40
0.8888888888888891
 40
0.8888888888888891
 40
0.8888888888888891
 40
0.8888888888888891
 40
1.0
 40
1.0
 40
1.0
 40
1.0
 10
-11.31196
 20
-16.41684
 30
0.0
 10
-11.31196
 20
-16.33556
 30
0.0
 10
-11.28817
 20
-16.27531
 30
0.0
 10
-11.24044
 20
-16.23622
 30
0.0
 10
-11.24044
 20
-16.23622
 30
0.0
 10
-11.20076
 20
-16.20376
 30
0.0
 10
-11.15228
 20
-16.18739
 30
0.0
 10
-11.09505
 20
-16.18739
 30
0.0
 10
-11.09505
 20
-16.18739
 30
0.0
 10
-11.03142
 20
-16.18739
 30
0.0
 10
-10.97938
 20
-16.20715
 30
0.0
 10
-10.93909
 20
-16.2468
 30
0.0
 10
-10.93909
 20
-16.2468
 30
0.0
 10
-10.89866
 20
-16.28631
 30
0.0
 10
-10.87859
 20
-16.34092
 30
0.0
 10
-10.87859
 20
-16.41063
 30
0.0
 10
-10.87859
 20
-16.41063
 30
0.0
 10
-10.87859
 20
-16.46722
 30
0.0
 10
-10.8875
 20
-16.51167
 30
0.0
 10
-10.90535
 20
-16.54398
 30
0.0
 10
-10.90535
 20
-16.54398
 30
0.0
 10
-10.92318
 20
-16.57644
 30
0.0
 10
-10.94921
 20
-16.60156
 30
0.0
 10
-10.98325
 20
-16.61948
 30
0.0
 10
-10.98325
 20
-16.61948
 30
0.0
 10
-11.01745
 20
-16.6374
 30
0.0
 10
-11.05461
 20
-16.64629
 30
0.0
 10
-11.09505
 20
-16.64629
 30
0.0
 10
-11.09505
 20
-16.64629
 30
0.0
 10
-11.15972
 20
-16.64629
 30
0.0
 10
-11.21205
 20
-16.62667
 30
0.0
 10
-11.25204
 20
-16.58716
 30
0.0
 10
-11.25204
 20
-16.58716
 30
0.0
 10
-11.29204
 20
-16.54779
 30
0.0
 10
-11.31196
 20
-16.49106
 30
0.0
 10
-11.31196
 20
-16.41684
 30
0.0
  0
SPLINE
  5
7A
330
1F
100
AcDbEntity
  8
Layer 1
 62
   250
100
AcDbSpline
210
0.0
220
0.0
230
1.0
 70
    11
 71
     3
 72
    36
 73
    32
 74
     0
 42
0.0000000001
 43
0.0000000001
 40
0.0
 40
0.0
 40
0.0
 40
0.0
 40
0.125
 40
0.125
 40
0.125
 40
0.125
 40
0.25
 40
0.25
 40
0.25
 40
0.25
 40
0.375
 40
0.375
 40
0.375
 40
0.375
 40
0.5
 40
0.5
 40
0.5
 40
0.5
 40
0.625
 40
0.625
 40
0.625
 40
0.625
 40
0.75
 40
0.75
 40
0.75
 40
0.75
 40
0.875
 40
0.875
 40
0.875
 40
0.875
 40
1.0
 40
1.0
 40
1.0
 40
1.0
 10
-11.23138
 20
-16.41684
 30
0.0
 10
-11.23138
 20
-16.47314
 30
0.0
 10
-11.21845
 20
-16.5152
 30
0.0
 10
-11.19258
 20
-16.54314
 30
0.0
 10
-11.19258
 20
-16.54314
 30
0.0
 10
-11.1667
 20
-16.57122
 30
0.0
 10
-11.13415
 20
-16.58519
 30
0.0
 10
-11.09505
 20
-16.58519
 30
0.0
 10
-11.09505
 20
-16.58519
 30
0.0
 10
-11.0561
 20
-16.58519
 30
0.0
 10
-11.02368
 20
-16.57108
 30
0.0
 10
-10.99782
 20
-16.54299
 30
0.0
 10
-10.99782
 20
-16.54299
 30
0.0
 10
-10.9721
 20
-16.51491
 30
0.0
 10
-10.95916
 20
-16.47201
 30
0.0
 10
-10.95916
 20
-16.41444
 30
0.0
 10
-10.95916
 20
-16.41444
 30
0.0
 10
-10.95916
 20
-16.36011
 30
0.0
 10
-10.9721
 20
-16.31891
 30
0.0
 10
-10.99811
 20
-16.29097
 30
0.0
 10
-10.99811
 20
-16.29097
 30
0.0
 10
-11.02414
 20
-16.26303
 30
0.0
 10
-11.0564
 20
-16.24906
 30
0.0
 10
-11.09505
 20
-16.24906
 30
0.0
 10
-11.09505
 20
-16.24906
 30
0.0
 10
-11.13415
 20
-16.24906
 30
0.0
 10
-11.1667
 20
-16.26303
 30
0.0
 10
-11.19258
 20
-16.29083
 30
0.0
 10
-11.19258
 20
-16.29083
 30
0.0
 10
-11.21845
 20
-16.31863
 30
0.0
 10
-11.23138
 20
-16.36068
 30
0.0
 10
-11.23138
 20
-16.41684
 30
0.0
  0
SPLINE
  5
7B
330
1F
100
AcDbEntity
  8
Layer 1
 62
   250
100
AcDbSpline
210
0.0
220
0.0
230
1.0
 70
    11
 71
     3
 72
    80
 73
    76
 74
     0
 42
0.0000000001
 43
0.0000000001
 40
0.0
 40
0.0
 40
0.0
 40
0.0
 40
0.0526315789473684
 40
0.0526315789473684
 40
0.0526315789473684
 40
0.0526315789473684
 40
0.1052631578947368
 40
0.1052631578947368
 40
0.1052631578947368
 40
0.1052631578947368
 40
0.1578947368421053
 40
0.1578947368421053
 40
0.1578947368421053
 40
0.1578947368421053
 40
0.2105263157894737
 40
0.2105263157894737
 40
0.2105263157894737
 40
0.2105263157894737
 40
0.2631578947368421
 40
0.2631578947368421
 40
0.2631578947368421
 40
0.2631578947368421
 40
0.3157894736842105
 40
0.3157894736842105
 40
0.3157894736842105
 40
0.3157894736842105
 40
0.3684210526315789
 40
0.3684210526315789
 40
0.3684210526315789
 40
0.3684210526315789
 40
0.4210526315789473
 40
0.4210526315789473
 40
0.4210526315789473
 40
0.4210526315789473
 40
0.4736842105263158
 40
0.4736842105263158
 40
0.4736842105263158
 40
0.4736842105263158
 40
0.5263157894736842
 40
0.5263157894736842
 40
0.5263157894736842
 40
0.5263157894736842
 40
0.5789473684210527
 40
0.5789473684210527
 40
0.5789473684210527
 40
0.5789473684210527
 40
0.631578947368421
 40
0.631578947368421
 40
0.631578947368421
 40
0.631578947368421
 40
0.6842105263157894
 40
0.6842105263157894
 40
0.6842105263157894
 40
0.6842105263157894
 40
0.7368421052631577
 40
0.7368421052631577
 40
0.7368421052631577
 40
0.7368421052631577
 40
0.7894736842105261
 40
0.7894736842105261
 40
0.7894736842105261
 40
0.7894736842105261
 40
0.8421052631578945
 40
0.8421052631578945
 40
0.8421052631578945
 40
0.8421052631578945
 40
0.8947368421052628
 40
0.8947368421052628
 40
0.8947368421052628
 40
0.8947368421052628
 40
0.9473684210526312
 40
0.9473684210526312
 40
0.9473684210526312
 40
0.9473684210526312
 40
1.0
 40
1.0
 40
1.0
 40
1.0
 10
-10.48342
 20
-16.63641
 30
0.0
 10
-10.48342
 20
-16.63641
 30
0.0
 10
-10.48342
 20
-16.57192
 30
0.0
 10
-10.48342
 20
-16.57192
 30
0.0
 10
-10.48342
 20
-16.57192
 30
0.0
 10
-10.51954
 20
-16.62159
 30
0.0
 10
-10.56846
 20
-16.64629
 30
0.0
 10
-10.6303
 20
-16.64629
 30
0.0
 10
-10.6303
 20
-16.64629
 30
0.0
 10
-10.65751
 20
-16.64629
 30
0.0
 10
-10.68309
 20
-16.64135
 30
0.0
 10
-10.70672
 20
-16.63147
 30
0.0
 10
-10.70672
 20
-16.63147
 30
0.0
 10
-10.73036
 20
-16.62159
 30
0.0
 10
-10.7479
 20
-16.60903
 30
0.0
 10
-10.75936
 20
-16.59408
 30
0.0
 10
-10.75936
 20
-16.59408
 30
0.0
 10
-10.77094
 20
-16.57898
 30
0.0
 10
-10.77897
 20
-16.56063
 30
0.0
 10
-10.78359
 20
-16.5389
 30
0.0
 10
-10.78359
 20
-16.5389
 30
0.0
 10
-10.78671
 20
-16.52423
 30
0.0
 10
-10.78834
 20
-16.50108
 30
0.0
 10
-10.78834
 20
-16.46933
 30
0.0
 10
-10.78834
 20
-16.46933
 30
0.0
 10
-10.78834
 20
-16.46933
 30
0.0
 10
-10.78834
 20
-16.19741
 30
0.0
 10
-10.78834
 20
-16.19741
 30
0.0
 10
-10.78834
 20
-16.19741
 30
0.0
 10
-10.78834
 20
-16.19741
 30
0.0
 10
-10.71
 20
-16.19741
 30
0.0
 10
-10.71
 20
-16.19741
 30
0.0
 10
-10.71
 20
-16.19741
 30
0.0
 10
-10.71
 20
-16.19741
 30
0.0
 10
-10.71
 20
-16.44083
 30
0.0
 10
-10.71
 20
-16.44083
 30
0.0
 10
-10.71
 20
-16.44083
 30
0.0
 10
-10.71
 20
-16.47978
 30
0.0
 10
-10.70836
 20
-16.50588
 30
0.0
 10
-10.70523
 20
-16.51943
 30
0.0
 10
-10.70523
 20
-16.51943
 30
0.0
 10
-10.70018
 20
-16.53904
 30
0.0
 10
-10.68978
 20
-16.55428
 30
0.0
 10
-10.67387
 20
-16.56557
 30
0.0
 10
-10.67387
 20
-16.56557
 30
0.0
 10
-10.65781
 20
-16.57672
 30
0.0
 10
-10.63804
 20
-16.58222
 30
0.0
 10
-10.61454
 20
-16.58222
 30
0.0
 10
-10.61454
 20
-16.58222
 30
0.0
 10
-10.59106
 20
-16.58222
 30
0.0
 10
-10.56905
 20
-16.57658
 30
0.0
 10
-10.54839
 20
-16.56515
 30
0.0
 10
-10.54839
 20
-16.56515
 30
0.0
 10
-10.52772
 20
-16.55372
 30
0.0
 10
-10.51316
 20
-16.53806
 30
0.0
 10
-10.50468
 20
-16.51844
 30
0.0
 10
-10.50468
 20
-16.51844
 30
0.0
 10
-10.49606
 20
-16.49869
 30
0.0
 10
-10.49175
 20
-16.47004
 30
0.0
 10
-10.49175
 20
-16.43264
 30
0.0
 10
-10.49175
 20
-16.43264
 30
0.0
 10
-10.49175
 20
-16.43264
 30
0.0
 10
-10.49175
 20
-16.19741
 30
0.0
 10
-10.49175
 20
-16.19741
 30
0.0
 10
-10.49175
 20
-16.19741
 30
0.0
 10
-10.49175
 20
-16.19741
 30
0.0
 10
-10.4134
 20
-16.19741
 30
0.0
 10
-10.4134
 20
-16.19741
 30
0.0
 10
-10.4134
 20
-16.19741
 30
0.0
 10
-10.4134
 20
-16.19741
 30
0.0
 10
-10.4134
 20
-16.63641
 30
0.0
 10
-10.4134
 20
-16.63641
 30
0.0
 10
-10.4134
 20
-16.63641
 30
0.0
 10
-10.4134
 20
-16.63641
 30
0.0
 10
-10.48342
 20
-16.63641
 30
0.0
 10
-10.48342
 20
-16.63641
 30
0.0
  0
SPLINE
  5
7C
330
1F
100
AcDbEntity
  8
Layer 1
 62
   250
100
AcDbSpline
210
0.0
220
0.0
230
1.0
 70
    11
 71
     3
 72
    84
 73
    80
 74
     0
 42
0.0000000001
 43
0.0000000001
 40
0.0
 40
0.0
 40
0.0
 40
0.0
 40
0.05
 40
0.05
 40
0.05
 40
0.05
 40
0.1
 40
0.1
 40
0.1
 40
0.1
 40
0.15
 40
0.15
 40
0.15
 40
0.15
 40
0.2
 40
0.2
 40
0.2
 40
0.2
 40
0.25
 40
0.25
 40
0.25
 40
0.25
 40
0.3
 40
0.3
 40
0.3
 40
0.3
 40
0.35
 40
0.35
 40
0.35
 40
0.35
 40
0.4
 40
0.4
 40
0.4
 40
0.4
 40
0.45
 40
0.45
 40
0.45
 40
0.45
 40
0.4999999999999999
 40
0.4999999999999999
 40
0.4999999999999999
 40
0.4999999999999999
 40
0.5499999999999999
 40
0.5499999999999999
 40
0.5499999999999999
 40
0.5499999999999999
 40
0.6
 40
0.6
 40
0.6
 40
0.6
 40
0.65
 40
0.65
 40
0.65
 40
0.65
 40
0.7000000000000001
 40
0.7000000000000001
 40
0.7000000000000001
 40
0.7000000000000001
 40
0.7500000000000001
 40
0.7500000000000001
 40
0.7500000000000001
 40
0.7500000000000001
 40
0.8000000000000002
 40
0.8000000000000002
 40
0.8000000000000002
 40
0.8000000000000002
 40
0.8500000000000002
 40
0.8500000000000002
 40
0.8500000000000002
 40
0.8500000000000002
 40
0.9000000000000002
 40
0.9000000000000002
 40
0.9000000000000002
 40
0.9000000000000002
 40
0.9500000000000003
 40
0.9500000000000003
 40
0.9500000000000003
 40
0.9500000000000003
 40
1.0
 40
1.0
 40
1.0
 40
1.0
 10
-10.11933
 20
-16.56981
 30
0.0
 10
-10.11933
 20
-16.56981
 30
0.0
 10
-10.10803
 20
-16.63556
 30
0.0
 10
-10.10803
 20
-16.63556
 30
0.0
 10
-10.10803
 20
-16.63556
 30
0.0
 10
-10.13003
 20
-16.63994
 30
0.0
 10
-10.14981
 20
-16.6422
 30
0.0
 10
-10.1672
 20
-16.6422
 30
0.0
 10
-10.1672
 20
-16.6422
 30
0.0
 10
-10.19574
 20
-16.6422
 30
0.0
 10
-10.21775
 20
-16.63796
 30
0.0
 10
-10.2335
 20
-16.62935
 30
0.0
 10
-10.2335
 20
-16.62935
 30
0.0
 10
-10.24911
 20
-16.62089
 30
0.0
 10
-10.26011
 20
-16.6096
 30
0.0
 10
-10.26651
 20
-16.59563
 30
0.0
 10
-10.26651
 20
-16.59563
 30
0.0
 10
-10.2729
 20
-16.5818
 30
0.0
 10
-10.27617
 20
-16.55245
 30
0.0
 10
-10.27617
 20
-16.50786
 30
0.0
 10
-10.27617
 20
-16.50786
 30
0.0
 10
-10.27617
 20
-16.50786
 30
0.0
 10
-10.27617
 20
-16.25527
 30
0.0
 10
-10.27617
 20
-16.25527
 30
0.0
 10
-10.27617
 20
-16.25527
 30
0.0
 10
-10.27617
 20
-16.25527
 30
0.0
 10
-10.33371
 20
-16.25527
 30
0.0
 10
-10.33371
 20
-16.25527
 30
0.0
 10
-10.33371
 20
-16.25527
 30
0.0
 10
-10.33371
 20
-16.25527
 30
0.0
 10
-10.33371
 20
-16.19741
 30
0.0
 10
-10.33371
 20
-16.19741
 30
0.0
 10
-10.33371
 20
-16.19741
 30
0.0
 10
-10.33371
 20
-16.19741
 30
0.0
 10
-10.27617
 20
-16.19741
 30
0.0
 10
-10.27617
 20
-16.19741
 30
0.0
 10
-10.27617
 20
-16.19741
 30
0.0
 10
-10.27617
 20
-16.19741
 30
0.0
 10
-10.27617
 20
-16.08861
 30
0.0
 10
-10.27617
 20
-16.08861
 30
0.0
 10
-10.27617
 20
-16.08861
 30
0.0
 10
-10.27617
 20
-16.08861
 30
0.0
 10
-10.19812
 20
-16.04402
 30
0.0
 10
-10.19812
 20
-16.04402
 30
0.0
 10
-10.19812
 20
-16.04402
 30
0.0
 10
-10.19812
 20
-16.04402
 30
0.0
 10
-10.19812
 20
-16.19741
 30
0.0
 10
-10.19812
 20
-16.19741
 30
0.0
 10
-10.19812
 20
-16.19741
 30
0.0
 10
-10.19812
 20
-16.19741
 30
0.0
 10
-10.11933
 20
-16.19741
 30
0.0
 10
-10.11933
 20
-16.19741
 30
0.0
 10
-10.11933
 20
-16.19741
 30
0.0
 10
-10.11933
 20
-16.19741
 30
0.0
 10
-10.11933
 20
-16.25527
 30
0.0
 10
-10.11933
 20
-16.25527
 30
0.0
 10
-10.11933
 20
-16.25527
 30
0.0
 10
-10.11933
 20
-16.25527
 30
0.0
 10
-10.19812
 20
-16.25527
 30
0.0
 10
-10.19812
 20
-16.25527
 30
0.0
 10
-10.19812
 20
-16.25527
 30
0.0
 10
-10.19812
 20
-16.25527
 30
0.0
 10
-10.19812
 20
-16.51195
 30
0.0
 10
-10.19812
 20
-16.51195
 30
0.0
 10
-10.19812
 20
-16.51195
 30
0.0
 10
-10.19812
 20
-16.53326
 30
0.0
 10
-10.19678
 20
-16.5468
 30
0.0
 10
-10.19411
 20
-16.55287
 30
0.0
 10
-10.19411
 20
-16.55287
 30
0.0
 10
-10.19128
 20
-16.55894
 30
0.0
 10
-10.18682
 20
-16.56374
 30
0.0
 10
-10.18058
 20
-16.56741
 30
0.0
 10
-10.18058
 20
-16.56741
 30
0.0
 10
-10.17433
 20
-16.57093
 30
0.0
 10
-10.16541
 20
-16.57277
 30
0.0
 10
-10.15382
 20
-16.57277
 30
0.0
 10
-10.15382
 20
-16.57277
 30
0.0
 10
-10.14504
 20
-16.57277
 30
0.0
 10
-10.1336
 20
-16.57178
 30
0.0
 10
-10.11933
 20
-16.56981
 30
0.0
  0
SPLINE
  5
7D
330
1F
100
AcDbEntity
  8
Layer 1
 62
   250
100
AcDbSpline
210
0.0
220
0.0
230
1.0
 70
    11
 71
     3
 72
    20
 73
    16
 74
     0
 42
0.0000000001
 43
0.0000000001
 40
0.0
 40
0.0
 40
0.0
 40
0.0
 40
0.25
 40
0.25
 40
0.25
 40
0.25
 40
0.5
 40
0.5
 40
0.5
 40
0.5
 40
0.75
 40
0.75
 40
0.75
 40
0.75
 40
1.0
 40
1.0
 40
1.0
 40
1.0
 10
-10.02046
 20
-16.63641
 30
0.0
 10
-10.02046
 20
-16.63641
 30
0.0
 10
-10.02046
 20
-16.5516
 30
0.0
 10
-10.02046
 20
-16.5516
 30
0.0
 10
-10.02046
 20
-16.5516
 30
0.0
 10
-10.02046
 20
-16.5516
 30
0.0
 10
-9.93112
 20
-16.5516
 30
0.0
 10
-9.93112
 20
-16.5516
 30
0.0
 10
-9.93112
 20
-16.5516
 30
0.0
 10
-9.93112
 20
-16.5516
 30
0.0
 10
-9.93112
 20
-16.63641
 30
0.0
 10
-9.93112
 20
-16.63641
 30
0.0
 10
-9.93112
 20
-16.63641
 30
0.0
 10
-9.93112
 20
-16.63641
 30
0.0
 10
-10.02046
 20
-16.63641
 30
0.0
 10
-10.02046
 20
-16.63641
 30
0.0
  0
SPLINE
  5
7E
330
1F
100
AcDbEntity
  8
Layer 1
 62
   250
100
AcDbSpline
210
0.0
220
0.0
230
1.0
 70
    11
 71
     3
 72
    80
 73
    76
 74
     0
 42
0.0000000001
 43
0.0000000001
 40
0.0
 40
0.0
 40
0.0
 40
0.0
 40
0.0526315789473684
 40
0.0526315789473684
 40
0.0526315789473684
 40
0.0526315789473684
 40
0.1052631578947368
 40
0.1052631578947368
 40
0.1052631578947368
 40
0.1052631578947368
 40
0.1578947368421053
 40
0.1578947368421053
 40
0.1578947368421053
 40
0.1578947368421053
 40
0.2105263157894737
 40
0.2105263157894737
 40
0.2105263157894737
 40
0.2105263157894737
 40
0.2631578947368421
 40
0.2631578947368421
 40
0.2631578947368421
 40
0.2631578947368421
 40
0.3157894736842105
 40
0.3157894736842105
 40
0.3157894736842105
 40
0.3157894736842105
 40
0.3684210526315789
 40
0.3684210526315789
 40
0.3684210526315789
 40
0.3684210526315789
 40
0.4210526315789473
 40
0.4210526315789473
 40
0.4210526315789473
 40
0.4210526315789473
 40
0.4736842105263158
 40
0.4736842105263158
 40
0.4736842105263158
 40
0.4736842105263158
 40
0.5263157894736842
 40
0.5263157894736842
 40
0.5263157894736842
 40
0.5263157894736842
 40
0.5789473684210527
 40
0.5789473684210527
 40
0.5789473684210527
 40
0.5789473684210527
 40
0.631578947368421
 40
0.631578947368421
 40
0.631578947368421
 40
0.631578947368421
 40
0.6842105263157894
 40
0.6842105263157894
 40
0.6842105263157894
 40
0.6842105263157894
 40
0.7368421052631577
 40
0.7368421052631577
 40
0.7368421052631577
 40
0.7368421052631577
 40
0.7894736842105261
 40
0.7894736842105261
 40
0.7894736842105261
 40
0.7894736842105261
 40
0.8421052631578945
 40
0.8421052631578945
 40
0.8421052631578945
 40
0.8421052631578945
 40
0.8947368421052628
 40
0.8947368421052628
 40
0.8947368421052628
 40
0.8947368421052628
 40
0.9473684210526312
 40
0.9473684210526312
 40
0.9473684210526312
 40
0.9473684210526312
 40
1.0
 40
1.0
 40
1.0
 40
1.0
 10
-9.49298
 20
-16.47554
 30
0.0
 10
-9.49298
 20
-16.47554
 30
0.0
 10
-9.41598
 20
-16.48514
 30
0.0
 10
-9.41598
 20
-16.48514
 30
0.0
 10
-9.41598
 20
-16.48514
 30
0.0
 10
-9.4243
 20
-16.53552
 30
0.0
 10
-9.44586
 20
-16.57503
 30
0.0
 10
-9.48065
 20
-16.60353
 30
0.0
 10
-9.48065
 20
-16.60353
 30
0.0
 10
-9.51529
 20
-16.63204
 30
0.0
 10
-9.55796
 20
-16.64629
 30
0.0
 10
-9.60851
 20
-16.64629
 30
0.0
 10
-9.60851
 20
-16.64629
 30
0.0
 10
-9.67169
 20
-16.64629
 30
0.0
 10
-9.72268
 20
-16.62667
 30
0.0
 10
-9.76104
 20
-16.58744
 30
0.0
 10
-9.76104
 20
-16.58744
 30
0.0
 10
-9.79955
 20
-16.54822
 30
0.0
 10
-9.81887
 20
-16.49191
 30
0.0
 10
-9.81887
 20
-16.41853
 30
0.0
 10
-9.81887
 20
-16.41853
 30
0.0
 10
-9.81887
 20
-16.37112
 30
0.0
 10
-9.81055
 20
-16.32963
 30
0.0
 10
-9.79404
 20
-16.29407
 30
0.0
 10
-9.79404
 20
-16.29407
 30
0.0
 10
-9.77739
 20
-16.25851
 30
0.0
 10
-9.75227
 20
-16.23184
 30
0.0
 10
-9.71837
 20
-16.21406
 30
0.0
 10
-9.71837
 20
-16.21406
 30
0.0
 10
-9.68463
 20
-16.19628
 30
0.0
 10
-9.64775
 20
-16.18739
 30
0.0
 10
-9.60805
 20
-16.18739
 30
0.0
 10
-9.60805
 20
-16.18739
 30
0.0
 10
-9.55781
 20
-16.18739
 30
0.0
 10
-9.51663
 20
-16.19953
 30
0.0
 10
-9.48481
 20
-16.22366
 30
0.0
 10
-9.48481
 20
-16.22366
 30
0.0
 10
-9.45284
 20
-16.24779
 30
0.0
 10
-9.43233
 20
-16.28194
 30
0.0
 10
-9.42326
 20
-16.32639
 30
0.0
 10
-9.42326
 20
-16.32639
 30
0.0
 10
-9.42326
 20
-16.32639
 30
0.0
 10
-9.49953
 20
-16.33754
 30
0.0
 10
-9.49953
 20
-16.33754
 30
0.0
 10
-9.49953
 20
-16.33754
 30
0.0
 10
-9.50682
 20
-16.30804
 30
0.0
 10
-9.5196
 20
-16.28589
 30
0.0
 10
-9.53803
 20
-16.27093
 30
0.0
 10
-9.53803
 20
-16.27093
 30
0.0
 10
-9.55647
 20
-16.25611
 30
0.0
 10
-9.57876
 20
-16.24864
 30
0.0
 10
-9.60494
 20
-16.24864
 30
0.0
 10
-9.60494
 20
-16.24864
 30
0.0
 10
-9.64449
 20
-16.24864
 30
0.0
 10
-9.6766
 20
-16.26204
 30
0.0
 10
-9.70127
 20
-16.28899
 30
0.0
 10
-9.70127
 20
-16.28899
 30
0.0
 10
-9.72596
 20
-16.3158
 30
0.0
 10
-9.7383
 20
-16.35828
 30
0.0
 10
-9.7383
 20
-16.41642
 30
0.0
 10
-9.7383
 20
-16.41642
 30
0.0
 10
-9.7383
 20
-16.4754
 30
0.0
 10
-9.7264
 20
-16.5183
 30
0.0
 10
-9.70246
 20
-16.54511
 30
0.0
 10
-9.70246
 20
-16.54511
 30
0.0
 10
-9.67867
 20
-16.57178
 30
0.0
 10
-9.6476
 20
-16.58519
 30
0.0
 10
-9.60924
 20
-16.58519
 30
0.0
 10
-9.60924
 20
-16.58519
 30
0.0
 10
-9.57847
 20
-16.58519
 30
0.0
 10
-9.5529
 20
-16.57616
 30
0.0
 10
-9.53224
 20
-16.55823
 30
0.0
 10
-9.53224
 20
-16.55823
 30
0.0
 10
-9.51157
 20
-16.54031
 30
0.0
 10
-9.49848
 20
-16.5128
 30
0.0
 10
-9.49298
 20
-16.47554
 30
0.0
  0
SPLINE
  5
7F
330
1F
100
AcDbEntity
  8
Layer 1
 62
   250
100
AcDbSpline
210
0.0
220
0.0
230
1.0
 70
    11
 71
     3
 72
    40
 73
    36
 74
     0
 42
0.0000000001
 43
0.0000000001
 40
0.0
 40
0.0
 40
0.0
 40
0.0
 40
0.1111111111111111
 40
0.1111111111111111
 40
0.1111111111111111
 40
0.1111111111111111
 40
0.2222222222222222
 40
0.2222222222222222
 40
0.2222222222222222
 40
0.2222222222222222
 40
0.3333333333333333
 40
0.3333333333333333
 40
0.3333333333333333
 40
0.3333333333333333
 40
0.4444444444444444
 40
0.4444444444444444
 40
0.4444444444444444
 40
0.4444444444444444
 40
0.5555555555555556
 40
0.5555555555555556
 40
0.5555555555555556
 40
0.5555555555555556
 40
0.6666666666666667
 40
0.6666666666666667
 40
0.6666666666666667
 40
0.6666666666666667
 40
0.7777777777777779
 40
0.7777777777777779
 40
0.7777777777777779
 40
0.7777777777777779
 40
0.8888888888888891
 40
0.8888888888888891
 40
0.8888888888888891
 40
0.8888888888888891
 40
1.0
 40
1.0
 40
1.0
 40
1.0
 10
-9.37806
 20
-16.41684
 30
0.0
 10
-9.37806
 20
-16.33556
 30
0.0
 10
-9.35427
 20
-16.27531
 30
0.0
 10
-9.30654
 20
-16.23622
 30
0.0
 10
-9.30654
 20
-16.23622
 30
0.0
 10
-9.26686
 20
-16.20376
 30
0.0
 10
-9.21838
 20
-16.18739
 30
0.0
 10
-9.16115
 20
-16.18739
 30
0.0
 10
-9.16115
 20
-16.18739
 30
0.0
 10
-9.09752
 20
-16.18739
 30
0.0
 10
-9.04548
 20
-16.20715
 30
0.0
 10
-9.00519
 20
-16.2468
 30
0.0
 10
-9.00519
 20
-16.2468
 30
0.0
 10
-8.96476
 20
-16.28631
 30
0.0
 10
-8.94469
 20
-16.34092
 30
0.0
 10
-8.94469
 20
-16.41063
 30
0.0
 10
-8.94469
 20
-16.41063
 30
0.0
 10
-8.94469
 20
-16.46722
 30
0.0
 10
-8.9536
 20
-16.51167
 30
0.0
 10
-8.97145
 20
-16.54398
 30
0.0
 10
-8.97145
 20
-16.54398
 30
0.0
 10
-8.98929
 20
-16.57644
 30
0.0
 10
-9.01531
 20
-16.60156
 30
0.0
 10
-9.04935
 20
-16.61948
 30
0.0
 10
-9.04935
 20
-16.61948
 30
0.0
 10
-9.08355
 20
-16.6374
 30
0.0
 10
-9.12071
 20
-16.64629
 30
0.0
 10
-9.16115
 20
-16.64629
 30
0.0
 10
-9.16115
 20
-16.64629
 30
0.0
 10
-9.22582
 20
-16.64629
 30
0.0
 10
-9.27815
 20
-16.62667
 30
0.0
 10
-9.31814
 20
-16.58716
 30
0.0
 10
-9.31814
 20
-16.58716
 30
0.0
 10
-9.35814
 20
-16.54779
 30
0.0
 10
-9.37806
 20
-16.49106
 30
0.0
 10
-9.37806
 20
-16.41684
 30
0.0
  0
SPLINE
  5
80
330
1F
100
AcDbEntity
  8
Layer 1
 62
   250
100
AcDbSpline
210
0.0
220
0.0
230
1.0
 70
    11
 71
     3
 72
    36
 73
    32
 74
     0
 42
0.0000000001
 43
0.0000000001
 40
0.0
 40
0.0
 40
0.0
 40
0.0
 40
0.125
 40
0.125
 40
0.125
 40
0.125
 40
0.25
 40
0.25
 40
0.25
 40
0.25
 40
0.375
 40
0.375
 40
0.375
 40
0.375
 40
0.5
 40
0.5
 40
0.5
 40
0.5
 40
0.625
 40
0.625
 40
0.625
 40
0.625
 40
0.75
 40
0.75
 40
0.75
 40
0.75
 40
0.875
 40
0.875
 40
0.875
 40
0.875
 40
1.0
 40
1.0
 40
1.0
 40
1.0
 10
-9.29748
 20
-16.41684
 30
0.0
 10
-9.29748
 20
-16.47314
 30
0.0
 10
-9.28455
 20
-16.5152
 30
0.0
 10
-9.25868
 20
-16.54314
 30
0.0
 10
-9.25868
 20
-16.54314
 30
0.0
 10
-9.23281
 20
-16.57122
 30
0.0
 10
-9.20025
 20
-16.58519
 30
0.0
 10
-9.16115
 20
-16.58519
 30
0.0
 10
-9.16115
 20
-16.58519
 30
0.0
 10
-9.1222
 20
-16.58519
 30
0.0
 10
-9.08978
 20
-16.57108
 30
0.0
 10
-9.06392
 20
-16.54299
 30
0.0
 10
-9.06392
 20
-16.54299
 30
0.0
 10
-9.0382
 20
-16.51491
 30
0.0
 10
-9.02526
 20
-16.47201
 30
0.0
 10
-9.02526
 20
-16.41444
 30
0.0
 10
-9.02526
 20
-16.41444
 30
0.0
 10
-9.02526
 20
-16.36011
 30
0.0
 10
-9.0382
 20
-16.31891
 30
0.0
 10
-9.06422
 20
-16.29097
 30
0.0
 10
-9.06422
 20
-16.29097
 30
0.0
 10
-9.09024
 20
-16.26303
 30
0.0
 10
-9.1225
 20
-16.24906
 30
0.0
 10
-9.16115
 20
-16.24906
 30
0.0
 10
-9.16115
 20
-16.24906
 30
0.0
 10
-9.20025
 20
-16.24906
 30
0.0
 10
-9.23281
 20
-16.26303
 30
0.0
 10
-9.25868
 20
-16.29083
 30
0.0
 10
-9.25868
 20
-16.29083
 30
0.0
 10
-9.28455
 20
-16.31863
 30
0.0
 10
-9.29748
 20
-16.36068
 30
0.0
 10
-9.29748
 20
-16.41684
 30
0.0
  0
SPLINE
  5
81
330
1F
100
AcDbEntity
  8
Layer 1
 62
   250
100
AcDbSpline
210
0.0
220
0.0
230
1.0
 70
    11
 71
     3
 72
    20
 73
    16
 74
     0
 42
0.0000000001
 43
0.0000000001
 40
0.0
 40
0.0
 40
0.0
 40
0.0
 40
0.25
 40
0.25
 40
0.25
 40
0.25
 40
0.5
 40
0.5
 40
0.5
 40
0.5
 40
0.75
 40
0.75
 40
0.75
 40
0.75
 40
1.0
 40
1.0
 40
1.0
 40
1.0
 10
-8.8305
 20
-16.63641
 30
0.0
 10
-8.8305
 20
-16.63641
 30
0.0
 10
-8.8305
 20
-16.5516
 30
0.0
 10
-8.8305
 20
-16.5516
 30
0.0
 10
-8.8305
 20
-16.5516
 30
0.0
 10
-8.8305
 20
-16.5516
 30
0.0
 10
-8.74116
 20
-16.5516
 30
0.0
 10
-8.74116
 20
-16.5516
 30
0.0
 10
-8.74116
 20
-16.5516
 30
0.0
 10
-8.74116
 20
-16.5516
 30
0.0
 10
-8.74116
 20
-16.63641
 30
0.0
 10
-8.74116
 20
-16.63641
 30
0.0
 10
-8.74116
 20
-16.63641
 30
0.0
 10
-8.74116
 20
-16.63641
 30
0.0
 10
-8.8305
 20
-16.63641
 30
0.0
 10
-8.8305
 20
-16.63641
 30
0.0
  0
SPLINE
  5
82
330
1F
100
AcDbEntity
  8
Layer 1
 62
   250
100
AcDbSpline
210
0.0
220
0.0
230
1.0
 70
    11
 71
     3
 72
    80
 73
    76
 74
     0
 42
0.0000000001
 43
0.0000000001
 40
0.0
 40
0.0
 40
0.0
 40
0.0
 40
0.0526315789473684
 40
0.0526315789473684
 40
0.0526315789473684
 40
0.0526315789473684
 40
0.1052631578947368
 40
0.1052631578947368
 40
0.1052631578947368
 40
0.1052631578947368
 40
0.1578947368421053
 40
0.1578947368421053
 40
0.1578947368421053
 40
0.1578947368421053
 40
0.2105263157894737
 40
0.2105263157894737
 40
0.2105263157894737
 40
0.2105263157894737
 40
0.2631578947368421
 40
0.2631578947368421
 40
0.2631578947368421
 40
0.2631578947368421
 40
0.3157894736842105
 40
0.3157894736842105
 40
0.3157894736842105
 40
0.3157894736842105
 40
0.3684210526315789
 40
0.3684210526315789
 40
0.3684210526315789
 40
0.3684210526315789
 40
0.4210526315789473
 40
0.4210526315789473
 40
0.4210526315789473
 40
0.4210526315789473
 40
0.4736842105263158
 40
0.4736842105263158
 40
0.4736842105263158
 40
0.4736842105263158
 40
0.5263157894736842
 40
0.5263157894736842
 40
0.5263157894736842
 40
0.5263157894736842
 40
0.5789473684210527
 40
0.5789473684210527
 40
0.5789473684210527
 40
0.5789473684210527
 40
0.631578947368421
 40
0.631578947368421
 40
0.631578947368421
 40
0.631578947368421
 40
0.6842105263157894
 40
0.6842105263157894
 40
0.6842105263157894
 40
0.6842105263157894
 40
0.7368421052631577
 40
0.7368421052631577
 40
0.7368421052631577
 40
0.7368421052631577
 40
0.7894736842105261
 40
0.7894736842105261
 40
0.7894736842105261
 40
0.7894736842105261
 40
0.8421052631578945
 40
0.8421052631578945
 40
0.8421052631578945
 40
0.8421052631578945
 40
0.8947368421052628
 40
0.8947368421052628
 40
0.8947368421052628
 40
0.8947368421052628
 40
0.9473684210526312
 40
0.9473684210526312
 40
0.9473684210526312
 40
0.9473684210526312
 40
1.0
 40
1.0
 40
1.0
 40
1.0
 10
-8.30169
 20
-16.63641
 30
0.0
 10
-8.30169
 20
-16.63641
 30
0.0
 10
-8.30169
 20
-16.57192
 30
0.0
 10
-8.30169
 20
-16.57192
 30
0.0
 10
-8.30169
 20
-16.57192
 30
0.0
 10
-8.33782
 20
-16.62159
 30
0.0
 10
-8.38673
 20
-16.64629
 30
0.0
 10
-8.44858
 20
-16.64629
 30
0.0
 10
-8.44858
 20
-16.64629
 30
0.0
 10
-8.47578
 20
-16.64629
 30
0.0
 10
-8.50136
 20
-16.64135
 30
0.0
 10
-8.52499
 20
-16.63147
 30
0.0
 10
-8.52499
 20
-16.63147
 30
0.0
 10
-8.54863
 20
-16.62159
 30
0.0
 10
-8.56617
 20
-16.60903
 30
0.0
 10
-8.57763
 20
-16.59408
 30
0.0
 10
-8.57763
 20
-16.59408
 30
0.0
 10
-8.58922
 20
-16.57898
 30
0.0
 10
-8.59724
 20
-16.56063
 30
0.0
 10
-8.60186
 20
-16.5389
 30
0.0
 10
-8.60186
 20
-16.5389
 30
0.0
 10
-8.60498
 20
-16.52423
 30
0.0
 10
-8.60661
 20
-16.50108
 30
0.0
 10
-8.60661
 20
-16.46933
 30
0.0
 10
-8.60661
 20
-16.46933
 30
0.0
 10
-8.60661
 20
-16.46933
 30
0.0
 10
-8.60661
 20
-16.19741
 30
0.0
 10
-8.60661
 20
-16.19741
 30
0.0
 10
-8.60661
 20
-16.19741
 30
0.0
 10
-8.60661
 20
-16.19741
 30
0.0
 10
-8.52827
 20
-16.19741
 30
0.0
 10
-8.52827
 20
-16.19741
 30
0.0
 10
-8.52827
 20
-16.19741
 30
0.0
 10
-8.52827
 20
-16.19741
 30
0.0
 10
-8.52827
 20
-16.44083
 30
0.0
 10
-8.52827
 20
-16.44083
 30
0.0
 10
-8.52827
 20
-16.44083
 30
0.0
 10
-8.52827
 20
-16.47978
 30
0.0
 10
-8.52663
 20
-16.50588
 30
0.0
 10
-8.52351
 20
-16.51943
 30
0.0
 10
-8.52351
 20
-16.51943
 30
0.0
 10
-8.51845
 20
-16.53904
 30
0.0
 10
-8.50805
 20
-16.55428
 30
0.0
 10
-8.49214
 20
-16.56557
 30
0.0
 10
-8.49214
 20
-16.56557
 30
0.0
 10
-8.47608
 20
-16.57672
 30
0.0
 10
-8.45631
 20
-16.58222
 30
0.0
 10
-8.43281
 20
-16.58222
 30
0.0
 10
-8.43281
 20
-16.58222
 30
0.0
 10
-8.40933
 20
-16.58222
 30
0.0
 10
-8.38732
 20
-16.57658
 30
0.0
 10
-8.36666
 20
-16.56515
 30
0.0
 10
-8.36666
 20
-16.56515
 30
0.0
 10
-8.34599
 20
-16.55372
 30
0.0
 10
-8.33143
 20
-16.53806
 30
0.0
 10
-8.32295
 20
-16.51844
 30
0.0
 10
-8.32295
 20
-16.51844
 30
0.0
 10
-8.31433
 20
-16.49869
 30
0.0
 10
-8.31002
 20
-16.47004
 30
0.0
 10
-8.31002
 20
-16.43264
 30
0.0
 10
-8.31002
 20
-16.43264
 30
0.0
 10
-8.31002
 20
-16.43264
 30
0.0
 10
-8.31002
 20
-16.19741
 30
0.0
 10
-8.31002
 20
-16.19741
 30
0.0
 10
-8.31002
 20
-16.19741
 30
0.0
 10
-8.31002
 20
-16.19741
 30
0.0
 10
-8.23167
 20
-16.19741
 30
0.0
 10
-8.23167
 20
-16.19741
 30
0.0
 10
-8.23167
 20
-16.19741
 30
0.0
 10
-8.23167
 20
-16.19741
 30
0.0
 10
-8.23167
 20
-16.63641
 30
0.0
 10
-8.23167
 20
-16.63641
 30
0.0
 10
-8.23167
 20
-16.63641
 30
0.0
 10
-8.23167
 20
-16.63641
 30
0.0
 10
-8.30169
 20
-16.63641
 30
0.0
 10
-8.30169
 20
-16.63641
 30
0.0
  0
SPLINE
  5
83
330
1F
100
AcDbEntity
  8
Layer 1
 62
   250
100
AcDbSpline
210
0.0
220
0.0
230
1.0
 70
    11
 71
     3
 72
    52
 73
    48
 74
     0
 42
0.0000000001
 43
0.0000000001
 40
0.0
 40
0.0
 40
0.0
 40
0.0
 40
0.0833333333333333
 40
0.0833333333333333
 40
0.0833333333333333
 40
0.0833333333333333
 40
0.1666666666666667
 40
0.1666666666666667
 40
0.1666666666666667
 40
0.1666666666666667
 40
0.25
 40
0.25
 40
0.25
 40
0.25
 40
0.3333333333333333
 40
0.3333333333333333
 40
0.3333333333333333
 40
0.3333333333333333
 40
0.4166666666666666
 40
0.4166666666666666
 40
0.4166666666666666
 40
0.4166666666666666
 40
0.4999999999999999
 40
0.4999999999999999
 40
0.4999999999999999
 40
0.4999999999999999
 40
0.5833333333333333
 40
0.5833333333333333
 40
0.5833333333333333
 40
0.5833333333333333
 40
0.6666666666666666
 40
0.6666666666666666
 40
0.6666666666666666
 40
0.6666666666666666
 40
0.75
 40
0.75
 40
0.75
 40
0.75
 40
0.8333333333333334
 40
0.8333333333333334
 40
0.8333333333333334
 40
0.8333333333333334
 40
0.9166666666666667
 40
0.9166666666666667
 40
0.9166666666666667
 40
0.9166666666666667
 40
1.0
 40
1.0
 40
1.0
 40
1.0
 10
-8.10842
 20
-16.63641
 30
0.0
 10
-8.10842
 20
-16.63641
 30
0.0
 10
-8.10842
 20
-16.03034
 30
0.0
 10
-8.10842
 20
-16.03034
 30
0.0
 10
-8.10842
 20
-16.03034
 30
0.0
 10
-8.10842
 20
-16.03034
 30
0.0
 10
-8.02992
 20
-16.03034
 30
0.0
 10
-8.02992
 20
-16.03034
 30
0.0
 10
-8.02992
 20
-16.03034
 30
0.0
 10
-8.02992
 20
-16.03034
 30
0.0
 10
-8.02992
 20
-16.37592
 30
0.0
 10
-8.02992
 20
-16.37592
 30
0.0
 10
-8.02992
 20
-16.37592
 30
0.0
 10
-8.02992
 20
-16.37592
 30
0.0
 10
-7.84438
 20
-16.19741
 30
0.0
 10
-7.84438
 20
-16.19741
 30
0.0
 10
-7.84438
 20
-16.19741
 30
0.0
 10
-7.84438
 20
-16.19741
 30
0.0
 10
-7.74299
 20
-16.19741
 30
0.0
 10
-7.74299
 20
-16.19741
 30
0.0
 10
-7.74299
 20
-16.19741
 30
0.0
 10
-7.74299
 20
-16.19741
 30
0.0
 10
-7.91976
 20
-16.36025
 30
0.0
 10
-7.91976
 20
-16.36025
 30
0.0
 10
-7.91976
 20
-16.36025
 30
0.0
 10
-7.91976
 20
-16.36025
 30
0.0
 10
-7.725
 20
-16.63641
 30
0.0
 10
-7.725
 20
-16.63641
 30
0.0
 10
-7.725
 20
-16.63641
 30
0.0
 10
-7.725
 20
-16.63641
 30
0.0
 10
-7.82178
 20
-16.63641
 30
0.0
 10
-7.82178
 20
-16.63641
 30
0.0
 10
-7.82178
 20
-16.63641
 30
0.0
 10
-7.82178
 20
-16.63641
 30
0.0
 10
-7.97462
 20
-16.4119
 30
0.0
 10
-7.97462
 20
-16.4119
 30
0.0
 10
-7.97462
 20
-16.4119
 30
0.0
 10
-7.97462
 20
-16.4119
 30
0.0
 10
-8.02992
 20
-16.46242
 30
0.0
 10
-8.02992
 20
-16.46242
 30
0.0
 10
-8.02992
 20
-16.46242
 30
0.0
 10
-8.02992
 20
-16.46242
 30
0.0
 10
-8.02992
 20
-16.63641
 30
0.0
 10
-8.02992
 20
-16.63641
 30
0.0
 10
-8.02992
 20
-16.63641
 30
0.0
 10
-8.02992
 20
-16.63641
 30
0.0
 10
-8.10842
 20
-16.63641
 30
0.0
 10
-8.10842
 20
-16.63641
 30
0.0
  0
ENDSEC
  0
SECTION
  2
OBJECTS
  0
DICTIONARY
  5
C
330
0
100
AcDbDictionary
281
     1
  3
ACAD_GROUP
350
D
  3
ACAD_LAYOUT
350
1A
  3
ACAD_MLEADERSTYLE
350
85
  3
ACAD_MLINESTYLE
350
17
  3
ACAD_PLOTSETTINGS
350
19
  3
ACAD_PLOTSTYLENAME
350
E
  3
ACAD_SCALELIST
350
3B
  3
ACAD_TABLESTYLE
350
84
  3
ACAD_VISUALSTYLE
350
2A
  0
DICTIONARY
  5
D
102
{ACAD_REACTORS
330
C
102
}
330
C
100
AcDbDictionary
281
     1
  0
DICTIONARY
  5
1A
102
{ACAD_REACTORS
330
C
102
}
330
C
100
AcDbDictionary
281
     1
  3
Layout1
350
1E
  3
Layout2
350
26
  3
Model
350
22
  0
DICTIONARY
  5
85
102
{ACAD_REACTORS
330
C
102
}
330
C
100
AcDbDictionary
281
     1
  0
DICTIONARY
  5
17
102
{ACAD_REACTORS
330
C
102
}
330
C
100
AcDbDictionary
281
     1
  3
Standard
350
18
  0
DICTIONARY
  5
19
102
{ACAD_REACTORS
330
C
102
}
330
C
100
AcDbDictionary
281
     1
  0
ACDBDICTIONARYWDFLT
  5
E
102
{ACAD_REACTORS
330
C
102
}
330
C
100
AcDbDictionary
281
     1
  3
Normal
350
F
100
AcDbDictionaryWithDefault
340
F
  0
DICTIONARY
  5
3B
102
{ACAD_REACTORS
330
C
102
}
330
C
100
AcDbDictionary
281
     1
  3
A0
350
3C
  3
A1
350
3D
  3
A2
350
3E
  3
A3
350
3F
  3
A4
350
40
  3
A5
350
41
  3
A6
350
42
  3
A7
350
43
  3
A8
350
44
  3
A9
350
45
  3
B0
350
46
  3
B1
350
47
  3
B2
350
48
  3
B3
350
49
  3
B4
350
4A
  3
B5
350
4B
  3
B6
350
4C
  3
B7
350
4D
  3
B8
350
4E
  3
B9
350
4F
  3
C0
350
50
  3
C1
350
51
  3
C2
350
52
  3
C3
350
53
  3
C4
350
54
  3
C5
350
55
  3
C6
350
56
  3
C7
350
57
  3
C8
350
58
  3
C9
350
59
  3
D0
350
5A
  3
D1
350
5B
  3
D2
350
5C
  0
DICTIONARY
  5
84
102
{ACAD_REACTORS
330
C
102
}
330
C
100
AcDbDictionary
281
     1
  0
DICTIONARY
  5
2A
102
{ACAD_REACTORS
330
C
102
}
330
C
100
AcDbDictionary
281
     1
  3
2dWireframe
350
2F
  3
3D Hidden
350
31
  3
3dWireframe
350
30
  3
Basic
350
32
  3
Brighten
350
36
  3
ColorChange
350
3A
  3
Conceptual
350
34
  3
Dim
350
35
  3
Facepattern
350
39
  3
Flat
350
2B
  3
FlatWithEdges
350
2C
  3
Gouraud
350
2D
  3
GouraudWithEdges
350
2E
  3
Linepattern
350
38
  3
Realistic
350
33
  3
Thicken
350
37
  0
LAYOUT
  5
1E
102
{ACAD_REACTORS
330
1A
102
}
330
1A
100
AcDbPlotSettings
  1

  2
none_device
  4

  6

 40
0.0
 41
0.0
 42
0.0
 43
0.0
 44
0.0
 45
0.0
 46
0.0
 47
0.0
 48
0.0
 49
0.0
140
0.0
141
0.0
142
1.0
143
1.0
 70
   688
 72
     0
 73
     0
 74
     5
  7

 75
    16
 76
     0
 77
     2
 78
   300
147
1.0
148
0.0
149
0.0
100
AcDbLayout
  1
Layout1
 70
     1
 71
     1
 10
0.0
 20
0.0
 11
12.0
 21
9.0
 12
0.0
 22
0.0
 32
0.0
 14
1.000000000000000E+20
 24
1.000000000000000E+20
 34
1.000000000000000E+20
 15
-1.000000000000000E+20
 25
-1.000000000000000E+20
 35
-1.000000000000000E+20
146
0.0
 13
0.0
 23
0.0
 33
0.0
 16
1.0
 26
0.0
 36
0.0
 17
0.0
 27
1.0
 37
0.0
 76
     0
330
1B
  0
LAYOUT
  5
26
102
{ACAD_REACTORS
330
1A
102
}
330
1A
100
AcDbPlotSettings
  1

  2
none_device
  4

  6

 40
0.0
 41
0.0
 42
0.0
 43
0.0
 44
0.0
 45
0.0
 46
0.0
 47
0.0
 48
0.0
 49
0.0
140
0.0
141
0.0
142
1.0
143
1.0
 70
   688
 72
     0
 73
     0
 74
     5
  7

 75
    16
 76
     0
 77
     2
 78
   300
147
1.0
148
0.0
149
0.0
100
AcDbLayout
  1
Layout2
 70
     1
 71
     2
 10
0.0
 20
0.0
 11
0.0
 21
0.0
 12
0.0
 22
0.0
 32
0.0
 14
0.0
 24
0.0
 34
0.0
 15
0.0
 25
0.0
 35
0.0
146
0.0
 13
0.0
 23
0.0
 33
0.0
 16
1.0
 26
0.0
 36
0.0
 17
0.0
 27
1.0
 37
0.0
 76
     0
330
23
  0
LAYOUT
  5
22
102
{ACAD_REACTORS
330
1A
102
}
330
1A
100
AcDbPlotSettings
  1

  2
none_device
  4

  6

 40
0.0
 41
0.0
 42
0.0
 43
0.0
 44
0.0
 45
0.0
 46
0.0
 47
0.0
 48
0.0
 49
0.0
140
0.0
141
0.0
142
1.0
143
1.0
 70
  1712
 72
     0
 73
     0
 74
     0
  7

 75
     0
 76
     0
 77
     2
 78
   300
147
1.0
148
0.0
149
0.0
100
AcDbLayout
  1
Model
 70
     1
 71
     0
 10
0.0
 20
0.0
 11
12.0
 21
9.0
 12
0.0
 22
0.0
 32
0.0
 14
-14.0
 24
-16.85
 34
0.0
 15
-7.0
 25
-12.85
 35
0.0
146
0.0
 13
0.0
 23
0.0
 33
0.0
 16
1.0
 26
0.0
 36
0.0
 17
0.0
 27
1.0
 37
0.0
 76
     0
330
1F
331
29
  0
MLINESTYLE
  5
18
102
{ACAD_REACTORS
330
17
102
}
330
17
100
AcDbMlineStyle
  2
Standard
 70
     0
  3

 62
   256
 51
90.0
 52
90.0
 71
     2
 49
0.5
 62
   256
  6
BYLAYER
 49
-0.5
 62
   256
  6
BYLAYER
  0
ACDBPLACEHOLDER
  5
F
102
{ACAD_REACTORS
330
E
102
}
330
E
  0
SCALE
  5
3C
102
{ACAD_REACTORS
330
3B
102
}
330
3B
100
AcDbScale
 70
     0
300
1:1
140
1.0
141
1.0
290
     1
  0
SCALE
  5
3D
102
{ACAD_REACTORS
330
3B
102
}
330
3B
100
AcDbScale
 70
     0
300
1:2
140
1.0
141
2.0
290
     0
  0
SCALE
  5
3E
102
{ACAD_REACTORS
330
3B
102
}
330
3B
100
AcDbScale
 70
     0
300
1:4
140
1.0
141
4.0
290
     0
  0
SCALE
  5
3F
102
{ACAD_REACTORS
330
3B
102
}
330
3B
100
AcDbScale
 70
     0
300
1:5
140
1.0
141
5.0
290
     0
  0
SCALE
  5
40
102
{ACAD_REACTORS
330
3B
102
}
330
3B
100
AcDbScale
 70
     0
300
1:8
140
1.0
141
8.0
290
     0
  0
SCALE
  5
41
102
{ACAD_REACTORS
330
3B
102
}
330
3B
100
AcDbScale
 70
     0
300
1:10
140
1.0
141
10.0
290
     0
  0
SCALE
  5
42
102
{ACAD_REACTORS
330
3B
102
}
330
3B
100
AcDbScale
 70
     0
300
1:16
140
1.0
141
16.0
290
     0
  0
SCALE
  5
43
102
{ACAD_REACTORS
330
3B
102
}
330
3B
100
AcDbScale
 70
     0
300
1:20
140
1.0
141
20.0
290
     0
  0
SCALE
  5
44
102
{ACAD_REACTORS
330
3B
102
}
330
3B
100
AcDbScale
 70
     0
300
1:30
140
1.0
141
30.0
290
     0
  0
SCALE
  5
45
102
{ACAD_REACTORS
330
3B
102
}
330
3B
100
AcDbScale
 70
     0
300
1:40
140
1.0
141
40.0
290
     0
  0
SCALE
  5
46
102
{ACAD_REACTORS
330
3B
102
}
330
3B
100
AcDbScale
 70
     0
300
1:50
140
1.0
141
50.0
290
     0
  0
SCALE
  5
47
102
{ACAD_REACTORS
330
3B
102
}
330
3B
100
AcDbScale
 70
     0
300
1:100
140
1.0
141
100.0
290
     0
  0
SCALE
  5
48
102
{ACAD_REACTORS
330
3B
102
}
330
3B
100
AcDbScale
 70
     0
300
2:1
140
2.0
141
1.0
290
     0
  0
SCALE
  5
49
102
{ACAD_REACTORS
330
3B
102
}
330
3B
100
AcDbScale
 70
     0
300
4:1
140
4.0
141
1.0
290
     0
  0
SCALE
  5
4A
102
{ACAD_REACTORS
330
3B
102
}
330
3B
100
AcDbScale
 70
     0
300
8:1
140
8.0
141
1.0
290
     0
  0
SCALE
  5
4B
102
{ACAD_REACTORS
330
3B
102
}
330
3B
100
AcDbScale
 70
     0
300
10:1
140
10.0
141
1.0
290
     0
  0
SCALE
  5
4C
102
{ACAD_REACTORS
330
3B
102
}
330
3B
100
AcDbScale
 70
     0
300
100:1
140
100.0
141
1.0
290
     0
  0
SCALE
  5
4D
102
{ACAD_REACTORS
330
3B
102
}
330
3B
100
AcDbScale
 70
     0
300
1/128" = 1'-0"
140
0.0078125
141
12.0
290
     0
  0
SCALE
  5
4E
102
{ACAD_REACTORS
330
3B
102
}
330
3B
100
AcDbScale
 70
     0
300
1/64" = 1'-0"
140
0.015625
141
12.0
290
     0
  0
SCALE
  5
4F
102
{ACAD_REACTORS
330
3B
102
}
330
3B
100
AcDbScale
 70
     0
300
1/32" = 1'-0"
140
0.03125
141
12.0
290
     0
  0
SCALE
  5
50
102
{ACAD_REACTORS
330
3B
102
}
330
3B
100
AcDbScale
 70
     0
300
1/16" = 1'-0"
140
0.0625
141
12.0
290
     0
  0
SCALE
  5
51
102
{ACAD_REACTORS
330
3B
102
}
330
3B
100
AcDbScale
 70
     0
300
3/32" = 1'-0"
140
0.09375
141
12.0
290
     0
  0
SCALE
  5
52
102
{ACAD_REACTORS
330
3B
102
}
330
3B
100
AcDbScale
 70
     0
300
1/8" = 1'-0"
140
0.125
141
12.0
290
     0
  0
SCALE
  5
53
102
{ACAD_REACTORS
330
3B
102
}
330
3B
100
AcDbScale
 70
     0
300
3/16" = 1'-0"
140
0.1875
141
12.0
290
     0
  0
SCALE
  5
54
102
{ACAD_REACTORS
330
3B
102
}
330
3B
100
AcDbScale
 70
     0
300
1/4" = 1'-0"
140
0.25
141
12.0
290
     0
  0
SCALE
  5
55
102
{ACAD_REACTORS
330
3B
102
}
330
3B
100
AcDbScale
 70
     0
300
3/8" = 1'-0"
140
0.375
141
12.0
290
     0
  0
SCALE
  5
56
102
{ACAD_REACTORS
330
3B
102
}
330
3B
100
AcDbScale
 70
     0
300
1/2" = 1'-0"
140
0.5
141
12.0
290
     0
  0
SCALE
  5
57
102
{ACAD_REACTORS
330
3B
102
}
330
3B
100
AcDbScale
 70
     0
300
3/4" = 1'-0"
140
0.75
141
12.0
290
     0
  0
SCALE
  5
58
102
{ACAD_REACTORS
330
3B
102
}
330
3B
100
AcDbScale
 70
     0
300
1" = 1'-0"
140
1.0
141
12.0
290
     0
  0
SCALE
  5
59
102
{ACAD_REACTORS
330
3B
102
}
330
3B
100
AcDbScale
 70
     0
300
1-1/2" = 1'-0"
140
1.5
141
12.0
290
     0
  0
SCALE
  5
5A
102
{ACAD_REACTORS
330
3B
102
}
330
3B
100
AcDbScale
 70
     0
300
3" = 1'-0"
140
3.0
141
12.0
290
     0
  0
SCALE
  5
5B
102
{ACAD_REACTORS
330
3B
102
}
330
3B
100
AcDbScale
 70
     0
300
6" = 1'-0"
140
6.0
141
12.0
290
     0
  0
SCALE
  5
5C
102
{ACAD_REACTORS
330
3B
102
}
330
3B
100
AcDbScale
 70
     0
300
1'-0" = 1'-0"
140
12.0
141
12.0
290
     0
  0
VISUALSTYLE
  5
2F
102
{ACAD_REACTORS
330
2A
102
}
330
2A
100
AcDbVisualStyle
  2
2dWireframe
 70
     4
 71
     0
 72
     2
 73
     0
 90
        0
 40
-0.6
 41
-30.0
 62
     5
 63
     7
421
 16777215
 74
     1
 91
        4
 64
     7
 65
   257
 75
     1
175
     1
 42
1.0
 92
        0
 66
   257
 43
1.0
 76
     1
 77
     6
 78
     2
 67
     7
 79
     5
170
     0
171
     0
290
     0
174
     0
 93
        1
 44
0.0
173
     0
291
     0
 45
0.0
  0
VISUALSTYLE
  5
31
102
{ACAD_REACTORS
330
2A
102
}
330
2A
100
AcDbVisualStyle
  2
3D Hidden
 70
     6
 71
     1
 72
     2
 73
     2
 90
        0
 40
-0.6
 41
-30.0
 62
     5
 63
     7
421
 16777215
 74
     2
 91
        2
 64
     7
 65
   257
 75
     2
175
     1
 42
40.0
 92
        0
 66
   257
 43
1.0
 76
     1
 77
     6
 78
     2
 67
     7
 79
     3
170
     0
171
     0
290
     0
174
     0
 93
        1
 44
0.0
173
     0
291
     0
 45
0.0
  0
VISUALSTYLE
  5
30
102
{ACAD_REACTORS
330
2A
102
}
330
2A
100
AcDbVisualStyle
  2
3dWireframe
 70
     5
 71
     0
 72
     2
 73
     0
 90
        0
 40
-0.6
 41
-30.0
 62
     5
 63
     7
421
 16777215
 74
     1
 91
        4
 64
     7
 65
   257
 75
     1
175
     1
 42
1.0
 92
        0
 66
   257
 43
1.0
 76
     1
 77
     6
 78
     2
 67
     7
 79
     5
170
     0
171
     0
290
     0
174
     0
 93
        1
 44
0.0
173
     0
291
     0
 45
0.0
  0
VISUALSTYLE
  5
32
102
{ACAD_REACTORS
330
2A
102
}
330
2A
100
AcDbVisualStyle
  2
Basic
 70
     7
 71
     1
 72
     0
 73
     1
 90
        0
 40
-0.6
 41
-30.0
 62
     5
 63
     7
421
 16777215
 74
     0
 91
        4
 64
     7
 65
   257
 75
     1
175
     1
 42
1.0
 92
        8
 66
     7
 43
1.0
 76
     1
 77
     6
 78
     2
 67
     7
 79
     5
170
     0
171
     0
290
     0
174
     0
 93
        1
 44
0.0
173
     0
291
     1
 45
0.0
  0
VISUALSTYLE
  5
36
102
{ACAD_REACTORS
330
2A
102
}
330
2A
100
AcDbVisualStyle
  2
Brighten
 70
    12
 71
     2
 72
     2
 73
     0
 90
        0
 40
-0.6
 41
-30.0
 62
     5
 63
     7
421
 16777215
 74
     1
 91
        4
 64
     7
 65
   257
 75
     1
175
     1
 42
1.0
 92
        8
 66
     7
 43
1.0
 76
     1
 77
     6
 78
     2
 67
     7
 79
     5
170
     0
171
     0
290
     0
174
     0
 93
        1
 44
50.0
173
     0
291
     1
 45
0.0
  0
VISUALSTYLE
  5
3A
102
{ACAD_REACTORS
330
2A
102
}
330
2A
100
AcDbVisualStyle
  2
ColorChange
 70
    16
 71
     2
 72
     2
 73
     3
 90
        0
 40
-0.6
 41
-30.0
 62
     5
 63
     8
421
  8421504
 74
     1
 91
        4
 64
     7
 65
   257
 75
     1
175
     1
 42
1.0
 92
        8
 66
     8
424
  8421504
 43
1.0
 76
     1
 77
     6
 78
     2
 67
     7
 79
     5
170
     0
171
     0
290
     0
174
     0
 93
        1
 44
0.0
173
     0
291
     1
 45
0.0
  0
VISUALSTYLE
  5
34
102
{ACAD_REACTORS
330
2A
102
}
330
2A
100
AcDbVisualStyle
  2
Conceptual
 70
     9
 71
     3
 72
     2
 73
     0
 90
        0
 40
-0.6
 41
-30.0
 62
     5
 63
     7
421
 16777215
 74
     2
 91
        2
 64
     7
 65
   257
 75
     1
175
     1
 42
40.0
 92
        8
 66
     7
 43
1.0
 76
     1
 77
     6
 78
     2
 67
     7
 79
     3
170
     0
171
     0
290
     0
174
     0
 93
        1
 44
0.0
173
     0
291
     0
 45
0.0
  0
VISUALSTYLE
  5
35
102
{ACAD_REACTORS
330
2A
102
}
330
2A
100
AcDbVisualStyle
  2
Dim
 70
    11
 71
     2
 72
     2
 73
     0
 90
        0
 40
-0.6
 41
-30.0
 62
     5
 63
     7
421
 16777215
 74
     1
 91
        4
 64
     7
 65
   257
 75
     1
175
     1
 42
1.0
 92
        8
 66
     7
 43
1.0
 76
     1
 77
     6
 78
     2
 67
     7
 79
     5
170
     0
171
     0
290
     0
174
     0
 93
        1
 44
-50.0
173
     0
291
     1
 45
0.0
  0
VISUALSTYLE
  5
39
102
{ACAD_REACTORS
330
2A
102
}
330
2A
100
AcDbVisualStyle
  2
Facepattern
 70
    15
 71
     2
 72
     2
 73
     0
 90
        0
 40
-0.6
 41
-30.0
 62
     5
 63
     7
421
 16777215
 74
     1
 91
        4
 64
     7
 65
   257
 75
     1
175
     1
 42
1.0
 92
        8
 66
     7
 43
1.0
 76
     1
 77
     6
 78
     2
 67
     7
 79
     5
170
     0
171
     0
290
     0
174
     0
 93
        1
 44
0.0
173
     0
291
     1
 45
0.0
  0
VISUALSTYLE
  5
2B
102
{ACAD_REACTORS
330
2A
102
}
330
2A
100
AcDbVisualStyle
  2
Flat
 70
     0
 71
     2
 72
     1
 73
     1
 90
        2
 40
-0.6
 41
30.0
 62
     5
 63
     7
421
 16777215
 74
     0
 91
        4
 64
     7
 65
   257
 75
     1
175
     1
 42
1.0
 92
        8
 66
     7
 43
1.0
 76
     1
 77
     6
 78
     2
 67
     7
 79
     5
170
     0
171
     0
290
     0
174
     0
 93
       13
 44
0.0
173
     0
291
     1
 45
0.0
  0
VISUALSTYLE
  5
2C
102
{ACAD_REACTORS
330
2A
102
}
330
2A
100
AcDbVisualStyle
  2
FlatWithEdges
 70
     1
 71
     2
 72
     1
 73
     1
 90
        2
 40
-0.6
 41
30.0
 62
     5
 63
     7
421
 16777215
 74
     1
 91
        4
 64
     7
 65
   257
 75
     1
175
     1
 42
1.0
 92
        0
 66
   257
 43
1.0
 76
     1
 77
     6
 78
     2
 67
     7
 79
     5
170
     0
171
     0
290
     0
174
     0
 93
       13
 44
0.0
173
     0
291
     1
 45
0.0
  0
VISUALSTYLE
  5
2D
102
{ACAD_REACTORS
330
2A
102
}
330
2A
100
AcDbVisualStyle
  2
Gouraud
 70
     2
 71
     2
 72
     2
 73
     1
 90
        2
 40
-0.6
 41
30.0
 62
     5
 63
     7
421
 16777215
 74
     0
 91
        4
 64
     7
 65
   257
 75
     1
175
     1
 42
1.0
 92
        0
 66
     7
 43
1.0
 76
     1
 77
     6
 78
     2
 67
     7
 79
     5
170
     0
171
     0
290
     0
174
     0
 93
       13
 44
0.0
173
     0
291
     1
 45
0.0
  0
VISUALSTYLE
  5
2E
102
{ACAD_REACTORS
330
2A
102
}
330
2A
100
AcDbVisualStyle
  2
GouraudWithEdges
 70
     3
 71
     2
 72
     2
 73
     1
 90
        2
 40
-0.6
 41
30.0
 62
     5
 63
     7
421
 16777215
 74
     1
 91
        4
 64
     7
 65
   257
 75
     1
175
     1
 42
1.0
 92
        0
 66
   257
 43
1.0
 76
     1
 77
     6
 78
     2
 67
     7
 79
     5
170
     0
171
     0
290
     0
174
     0
 93
       13
 44
0.0
173
     0
291
     1
 45
0.0
  0
VISUALSTYLE
  5
38
102
{ACAD_REACTORS
330
2A
102
}
330
2A
100
AcDbVisualStyle
  2
Linepattern
 70
    14
 71
     2
 72
     2
 73
     0
 90
        0
 40
-0.6
 41
-30.0
 62
     5
 63
     7
421
 16777215
 74
     1
 91
        4
 64
     7
 65
   257
 75
     7
175
     7
 42
1.0
 92
        8
 66
     7
 43
1.0
 76
     1
 77
     6
 78
     2
 67
     7
 79
     5
170
     0
171
     0
290
     0
174
     0
 93
        1
 44
0.0
173
     0
291
     1
 45
0.0
  0
VISUALSTYLE
  5
33
102
{ACAD_REACTORS
330
2A
102
}
330
2A
100
AcDbVisualStyle
  2
Realistic
 70
     8
 71
     2
 72
     2
 73
     0
 90
        0
 40
-0.6
 41
-30.0
 62
     5
 63
     7
421
 16777215
 74
     1
 91
        0
 64
     7
 65
   257
 75
     1
175
     1
 42
1.0
 92
        8
 66
     8
424
  7895160
 43
1.0
 76
     1
 77
     6
 78
     2
 67
     7
 79
     5
170
     0
171
     0
290
     0
174
     0
 93
       13
 44
0.0
173
     0
291
     0
 45
0.0
  0
VISUALSTYLE
  5
37
102
{ACAD_REACTORS
330
2A
102
}
330
2A
100
AcDbVisualStyle
  2
Thicken
 70
    13
 71
     2
 72
     2
 73
     0
 90
        0
 40
-0.6
 41
-30.0
 62
     5
 63
     7
421
 16777215
 74
     1
 91
        4
 64
     7
 65
   257
 75
     1
175
     1
 42
1.0
 92
       12
 66
     7
 43
1.0
 76
     1
 77
     6
 78
     2
 67
     7
 79
     5
170
     0
171
     0
290
     0
174
     0
 93
        1
 44
0.0
173
     0
291
     1
 45
0.0
  0
ENDSEC
  0
EOF
