<?xml version="1.0" encoding="UTF-8"?>
<!DOCTYPE svg PUBLIC "-//W3C//DTD SVG 1.1//EN" "http://www.w3.org/Graphics/SVG/1.1/DTD/svg11.dtd">
<!-- Creator: CorelDRAW -->
<svg xmlns="http://www.w3.org/2000/svg" xml:space="preserve" width="70mm" height="90mm" style="shape-rendering:geometricPrecision; text-rendering:geometricPrecision; image-rendering:optimizeQuality; fill-rule:evenodd; clip-rule:evenodd"
viewBox="0 0 17.5 22.5"
 xmlns:xlink="http://www.w3.org/1999/xlink">
 <defs>
  <style type="text/css">
   <![CDATA[
    .fil0 {fill:black}
   ]]>
  </style>
 </defs>
 <g id="Layer_x0020_1">
  <metadata id="CorelCorpID_0Corel-Layer"/>
  <path class="fil0" d="M12.5 14.9985c1.38,0 2.5,1.11997 2.5,2.49997 0,1.38 -1.12,2.5 -2.5,2.5 -1.38,0 -2.5,-1.12 -2.5,-2.5 0,-1.38 1.12,-2.49997 2.5,-2.49997zm-7.5 0c1.38,0 2.5,1.11997 2.5,2.49997 0,1.38 -1.12,2.5 -2.5,2.5 -1.38,0 -2.5,-1.12 -2.5,-2.5 0,-1.38 1.12,-2.49997 2.5,-2.49997zm-2.5 -2.49845c-1.38,0 -2.5,1.12 -2.5,2.5l0 5c0,1.38 1.12,2.5 2.5,2.5l12.5 0c1.38,0 2.5,-1.12 2.5,-2.5l0 -5c0,-1.38 -1.12,-2.5 -2.5,-2.5l-12.5 0zm13.1136 1.0245c0,0.2032 -0.059475,0.353825 -0.1788,0.45155 -0.099225,0.08115 -0.2204,0.122075 -0.363475,0.122075 -0.1591,0 -0.289175,-0.0494 -0.3899,-0.148525 -0.1011,-0.098775 -0.151275,-0.2353 -0.151275,-0.409575 0,-0.141475 0.0223,-0.2526 0.0669,-0.333375 0.0446,-0.08115 0.10965,-0.14395 0.19475,-0.18875 0.0855,-0.0448 0.1784,-0.067025 0.279525,-0.067025 0.161675,0 0.2925,0.04905 0.392475,0.147825 0.099975,0.098425 0.1498,0.24025 0.1498,0.4258zm-0.20145 0c0,-0.14075 -0.03235,-0.2459 -0.097,-0.31575 -0.0647,-0.0702 -0.146075,-0.105125 -0.243825,-0.105125 -0.097375,0 -0.178425,0.035275 -0.243075,0.1055 -0.0643,0.0702 -0.09665,0.17745 -0.09665,0.321375 0,0.135825 0.03235,0.238825 0.097375,0.308675 0.06505,0.06985 0.1457,0.104775 0.24235,0.104775 0.09775,0 0.179125,-0.034925 0.243825,-0.104425 0.06465,-0.0695 0.097,-0.174625 0.097,-0.315025zm-1.03885 0c0,0.2032 -0.059475,0.353825 -0.178775,0.45155 -0.099225,0.08115 -0.2204,0.122075 -0.363475,0.122075 -0.1591,0 -0.289175,-0.0494 -0.3899,-0.148525 -0.1011,-0.098775 -0.151275,-0.2353 -0.151275,-0.409575 0,-0.141475 0.022275,-0.2526 0.0669,-0.333375 0.0446,-0.08115 0.10965,-0.14395 0.19475,-0.18875 0.0855,-0.0448 0.1784,-0.067025 0.279525,-0.067025 0.16165,0 0.292475,0.04905 0.392475,0.147825 0.099975,0.098425 0.149775,0.24025 0.149775,0.4258zm-0.201425 0c0,-0.14075 -0.03235,-0.2459 -0.097025,-0.31575 -0.064675,-0.0702 -0.146075,-0.105125 -0.2438,-0.105125 -0.097375,0 -0.178425,0.035275 -0.2431,0.1055 -0.064275,0.0702 -0.096625,0.17745 -0.096625,0.321375 0,0.135825 0.03235,0.238825 0.097375,0.308675 0.06505,0.06985 0.1457,0.104775 0.24235,0.104775 0.097725,0 0.179125,-0.034925 0.2438,-0.104425 0.064675,-0.0695 0.097025,-0.174625 0.097025,-0.315025zm-1.11208 -0.548925l0 1.0975 -0.17505 0 0 -0.153825c-0.036425,0.053625 -0.08475,0.097025 -0.144975,0.129475 -0.0602,0.032825 -0.12895,0.0494 -0.205875,0.0494 -0.0855,0 -0.15575,-0.01695 -0.210375,-0.0508 -0.055025,-0.033875 -0.093675,-0.0808 -0.115975,-0.141475 -0.0918,0.128075 -0.210725,0.192275 -0.357175,0.192275 -0.11485,0 -0.202925,-0.03035 -0.264625,-0.090675 -0.0617,-0.060325 -0.092575,-0.1531 -0.092575,-0.27835l0 -0.753525 0.194775 0 0 0.69145c0,0.074425 0.006325,0.12805 0.01895,0.160875 0.013,0.03245 0.03605,0.0589 0.06915,0.079 0.03345,0.019775 0.07285,0.03 0.1178,0.03 0.081425,0 0.1487,-0.02575 0.202575,-0.07725 0.053525,-0.051175 0.08065,-0.13335 0.08065,-0.24625l0 -0.637825 0.195875 0 0 0.712975c0,0.0829 0.015975,0.144975 0.04795,0.18625 0.03195,0.041275 0.084,0.0621 0.15685,0.0621 0.055,0 0.1059,-0.01375 0.15275,-0.041625 0.046825,-0.027525 0.081025,-0.06775 0.10185,-0.12065 0.021175,-0.053275 0.031575,-0.129825 0.031575,-0.229675l0 -0.569375 0.195875 0zm-1.85318 0l0 1.51517 -0.195875 0 0 -1.51517 0.195875 0zm-0.426675 0.548925c0,0.2032 -0.059475,0.353825 -0.1788,0.45155 -0.0992,0.08115 -0.2204,0.122075 -0.363475,0.122075 -0.159075,0 -0.289175,-0.0494 -0.3899,-0.148525 -0.101075,-0.098775 -0.15125,-0.2353 -0.15125,-0.409575 0,-0.141475 0.022275,-0.2526 0.0669,-0.333375 0.044575,-0.08115 0.10965,-0.14395 0.19475,-0.18875 0.0855,-0.0448 0.1784,-0.067025 0.2795,-0.067025 0.161675,0 0.2925,0.04905 0.392475,0.147825 0.1,0.098425 0.1498,0.24025 0.1498,0.4258zm-0.20145 0c0,-0.14075 -0.032325,-0.2459 -0.097,-0.31575 -0.0647,-0.0702 -0.146075,-0.105125 -0.243825,-0.105125 -0.097375,0 -0.178425,0.035275 -0.243075,0.1055 -0.0643,0.0702 -0.09665,0.17745 -0.09665,0.321375 0,0.135825 0.03235,0.238825 0.097375,0.308675 0.065075,0.06985 0.145725,0.104775 0.24235,0.104775 0.09775,0 0.179125,-0.034925 0.243825,-0.104425 0.064675,-0.0695 0.097,-0.174625 0.097,-0.315025zm-1.8699 -0.548925l0 0.161225c0.0903,-0.124175 0.2126,-0.185925 0.3672,-0.185925 0.068025,0 0.131975,0.01235 0.19105,0.03705 0.0591,0.0247 0.10295,0.0561 0.1316,0.093475 0.02895,0.03775 0.049025,0.083625 0.060575,0.13795 0.0078,0.036675 0.011875,0.09455 0.011875,0.173925l0 0.6798 -0.19585 0 0 -0.60855c0,-0.097375 -0.0041,-0.162625 -0.011925,-0.1965 -0.012625,-0.049025 -0.038625,-0.087125 -0.0784,-0.11535 -0.04015,-0.027875 -0.089575,-0.041625 -0.148325,-0.041625 -0.0587,0 -0.113725,0.0141 -0.165375,0.042675 -0.051675,0.028575 -0.088075,0.067725 -0.109275,0.116775 -0.02155,0.049375 -0.032325,0.121 -0.032325,0.2145l0 0.588075 -0.195875 0 0 -1.0975 0.17505 0zm-0.910225 0.1665l-0.02825 -0.164375c0.055,-0.01095 0.10445,-0.0166 0.147925,-0.0166 0.07135,0 0.126375,0.0106 0.16575,0.032125 0.039025,0.02115 0.066525,0.049375 0.082525,0.0843 0.015975,0.034575 0.02415,0.10795 0.02415,0.219425l0 0.631475 0.14385 0 0 0.14465 -0.14385 0 0 0.272 -0.195125 0.111475 0 -0.383475 -0.196975 0 0 -0.14465 0.196975 0 0 -0.6417c0,-0.053275 -0.00335,-0.087125 -0.010025,-0.1023 -0.007075,-0.015175 -0.018225,-0.027175 -0.033825,-0.03635 -0.015625,-0.0088 -0.037925,-0.0134 -0.0669,-0.0134 -0.02195,0 -0.05055,0.002475 -0.086225,0.0074zm-0.247175 -0.1665l0 0.212025 -0.22335 0 0 -0.212025 0.22335 0zm-1.3187 0.402175l-0.1925 -0.024c0.0208,-0.12595 0.0747,-0.224725 0.161675,-0.295975 0.0866,-0.071275 0.193275,-0.1069 0.31965,-0.1069 0.15795,0 0.285425,0.04905 0.381325,0.147125 0.096275,0.09805 0.144575,0.238825 0.144575,0.422275 0,0.118525 -0.0208,0.22225 -0.062075,0.31115 -0.041625,0.0889 -0.104425,0.155575 -0.189175,0.200025 -0.08435,0.04445 -0.17655,0.066675 -0.2758,0.066675 -0.1256,0 -0.22855,-0.03035 -0.3081,-0.090675 -0.079925,-0.060325 -0.1312,-0.1457 -0.153875,-0.256825l0.190675 -0.027875c0.018225,0.07375 0.050175,0.129125 0.09625,0.166525 0.0461,0.03705 0.101825,0.055725 0.167275,0.055725 0.098875,0 0.17915,-0.0335 0.240825,-0.100875 0.061725,-0.067025 0.092575,-0.173225 0.092575,-0.318575 0,-0.14745 -0.02975,-0.2547 -0.0896,-0.321725 -0.059475,-0.066675 -0.13715,-0.1002 -0.23305,-0.1002 -0.076925,0 -0.14085,0.022575 -0.1925,0.0674 -0.051675,0.0448 -0.0844,0.113575 -0.09815,0.206725zm-0.2873 0.14675c0,0.2032 -0.059475,0.353825 -0.1788,0.45155 -0.0992,0.08115 -0.2204,0.122075 -0.363475,0.122075 -0.159075,0 -0.289175,-0.0494 -0.3899,-0.148525 -0.101075,-0.098775 -0.15125,-0.2353 -0.15125,-0.409575 0,-0.141475 0.022275,-0.2526 0.0669,-0.333375 0.0446,-0.08115 0.10965,-0.14395 0.19475,-0.18875 0.0855,-0.0448 0.1784,-0.067025 0.2795,-0.067025 0.161675,0 0.2925,0.04905 0.392475,0.147825 0.1,0.098425 0.1498,0.24025 0.1498,0.4258zm-0.20145 0c0,-0.14075 -0.032325,-0.2459 -0.097,-0.31575 -0.064675,-0.0702 -0.146075,-0.105125 -0.243825,-0.105125 -0.097375,0 -0.178425,0.035275 -0.243075,0.1055 -0.0643,0.0702 -0.09665,0.17745 -0.09665,0.321375 0,0.135825 0.03235,0.238825 0.0974,0.308675 0.06505,0.06985 0.1457,0.104775 0.242325,0.104775 0.09775,0 0.17915,-0.034925 0.243825,-0.104425 0.064675,-0.0695 0.097,-0.174625 0.097,-0.315025zm-1.16745 -0.548925l0 0.212025 -0.22335 0 0 -0.212025 0.22335 0zm-1.32203 0l0 0.161225c0.090325,-0.124175 0.2126,-0.185925 0.367225,-0.185925 0.068,0 0.13195,0.01235 0.191025,0.03705 0.0591,0.0247 0.10295,0.0561 0.1316,0.093475 0.028975,0.03775 0.049025,0.083625 0.060575,0.13795 0.0078,0.036675 0.011875,0.09455 0.011875,0.173925l0 0.6798 -0.19585 0 0 -0.60855c0,-0.097375 -0.0041,-0.162625 -0.0119,-0.1965 -0.01265,-0.049025 -0.03865,-0.087125 -0.078425,-0.11535 -0.04015,-0.027875 -0.089575,-0.041625 -0.148325,-0.041625 -0.0587,0 -0.113725,0.0141 -0.165375,0.042675 -0.051675,0.028575 -0.088075,0.067725 -0.109275,0.116775 -0.02155,0.049375 -0.032325,0.121 -0.032325,0.2145l0 0.588075 -0.195875 0 0 -1.0975 0.17505 0zm-0.483175 0l0 1.51517 -0.19625 0 0 -0.86395 -0.46385 0.446275 -0.253475 0 0.441925 -0.4071 -0.4869 -0.6904 0.24195 0 0.3821 0.561275 0.13825 -0.1263 0 -0.434975 0.19625 0zm-0.8846 8.44153c0,-0.2032 0.059475,-0.353825 0.1788,-0.45155 0.099225,-0.08115 0.2204,-0.122075 0.363475,-0.122075 0.1591,0 0.289175,0.0494 0.3899,0.148525 0.1011,0.098775 0.151275,0.2353 0.151275,0.409575 0,0.141475 -0.0223,0.2526 -0.0669,0.333375 -0.0446,0.08115 -0.10965,0.14395 -0.19475,0.18875 -0.0855,0.0448 -0.1784,0.067025 -0.279525,0.067025 -0.161675,0 -0.2925,-0.04905 -0.392475,-0.147825 -0.099975,-0.098425 -0.1498,-0.24025 -0.1498,-0.4258zm0.20145 0c0,0.14075 0.03235,0.2459 0.097,0.31575 0.0647,0.0702 0.146075,0.105125 0.243825,0.105125 0.097375,0 0.178425,-0.035275 0.243075,-0.1055 0.0643,-0.0702 0.09665,-0.17745 0.09665,-0.321375 0,-0.135825 -0.03235,-0.238825 -0.097375,-0.308675 -0.06505,-0.06985 -0.1457,-0.104775 -0.24235,-0.104775 -0.09775,0 -0.179125,0.034925 -0.243825,0.104425 -0.06465,0.0695 -0.097,0.174625 -0.097,0.315025zm1.03885 0c0,-0.2032 0.059475,-0.353825 0.178775,-0.45155 0.099225,-0.08115 0.2204,-0.122075 0.363475,-0.122075 0.1591,0 0.289175,0.0494 0.3899,0.148525 0.1011,0.098775 0.151275,0.2353 0.151275,0.409575 0,0.141475 -0.022275,0.2526 -0.0669,0.333375 -0.0446,0.08115 -0.10965,0.14395 -0.19475,0.18875 -0.0855,0.0448 -0.1784,0.067025 -0.279525,0.067025 -0.16165,0 -0.292475,-0.04905 -0.392475,-0.147825 -0.099975,-0.098425 -0.149775,-0.24025 -0.149775,-0.4258zm0.201425 0c0,0.14075 0.03235,0.2459 0.097025,0.31575 0.064675,0.0702 0.146075,0.105125 0.2438,0.105125 0.097375,0 0.178425,-0.035275 0.2431,-0.1055 0.064275,-0.0702 0.096625,-0.17745 0.096625,-0.321375 0,-0.135825 -0.03235,-0.238825 -0.097375,-0.308675 -0.06505,-0.06985 -0.1457,-0.104775 -0.24235,-0.104775 -0.097725,0 -0.179125,0.034925 -0.2438,0.104425 -0.064675,0.0695 -0.097025,0.174625 -0.097025,0.315025zm1.11208 0.548925l0 -1.0975 0.17505 0 0 0.153825c0.036425,-0.053625 0.08475,-0.097025 0.144975,-0.129475 0.0602,-0.032825 0.12895,-0.0494 0.205875,-0.0494 0.0855,0 0.15575,0.01695 0.210375,0.0508 0.055025,0.033875 0.093675,0.0808 0.115975,0.141475 0.0918,-0.128075 0.210725,-0.192275 0.357175,-0.192275 0.11485,0 0.202925,0.03035 0.264625,0.090675 0.0617,0.060325 0.092575,0.1531 0.092575,0.27835l0 0.753525 -0.194775 0 0 -0.69145c0,-0.074425 -0.006325,-0.12805 -0.01895,-0.160875 -0.013,-0.03245 -0.03605,-0.0589 -0.06915,-0.079 -0.03345,-0.019775 -0.07285,-0.03 -0.1178,-0.03 -0.081425,0 -0.1487,0.02575 -0.202575,0.07725 -0.053525,0.051175 -0.08065,0.13335 -0.08065,0.24625l0 0.637825 -0.195875 0 0 -0.712975c0,-0.0829 -0.015975,-0.144975 -0.04795,-0.18625 -0.03195,-0.041275 -0.084,-0.0621 -0.15685,-0.0621 -0.055,0 -0.1059,0.01375 -0.15275,0.041625 -0.046825,0.027525 -0.081025,0.06775 -0.10185,0.12065 -0.021175,0.053275 -0.031575,0.129825 -0.031575,0.229675l0 0.569375 -0.195875 0zm1.85318 0l0 -1.51517 0.195875 0 0 1.51517 -0.195875 0zm0.426675 -0.548925c0,-0.2032 0.059475,-0.353825 0.1788,-0.45155 0.0992,-0.08115 0.2204,-0.122075 0.363475,-0.122075 0.159075,0 0.289175,0.0494 0.3899,0.148525 0.101075,0.098775 0.15125,0.2353 0.15125,0.409575 0,0.141475 -0.022275,0.2526 -0.0669,0.333375 -0.044575,0.08115 -0.10965,0.14395 -0.19475,0.18875 -0.0855,0.0448 -0.1784,0.067025 -0.2795,0.067025 -0.161675,0 -0.2925,-0.04905 -0.392475,-0.147825 -0.1,-0.098425 -0.1498,-0.24025 -0.1498,-0.4258zm0.20145 0c0,0.14075 0.032325,0.2459 0.097,0.31575 0.0647,0.0702 0.146075,0.105125 0.243825,0.105125 0.097375,0 0.178425,-0.035275 0.243075,-0.1055 0.0643,-0.0702 0.09665,-0.17745 0.09665,-0.321375 0,-0.135825 -0.03235,-0.238825 -0.097375,-0.308675 -0.065075,-0.06985 -0.145725,-0.104775 -0.24235,-0.104775 -0.09775,0 -0.179125,0.034925 -0.243825,0.104425 -0.064675,0.0695 -0.097,0.174625 -0.097,0.315025zm1.8699 0.548925l0 -0.161225c-0.0903,0.124175 -0.2126,0.185925 -0.3672,0.185925 -0.068025,0 -0.131975,-0.01235 -0.19105,-0.03705 -0.0591,-0.0247 -0.10295,-0.0561 -0.1316,-0.093475 -0.02895,-0.03775 -0.049025,-0.083625 -0.060575,-0.13795 -0.0078,-0.036675 -0.011875,-0.09455 -0.011875,-0.173925l0 -0.6798 0.19585 0 0 0.60855c0,0.097375 0.0041,0.162625 0.011925,0.1965 0.012625,0.049025 0.038625,0.087125 0.0784,0.11535 0.04015,0.027875 0.089575,0.041625 0.148325,0.041625 0.0587,0 0.113725,-0.0141 0.165375,-0.042675 0.051675,-0.028575 0.088075,-0.067725 0.109275,-0.116775 0.02155,-0.049375 0.032325,-0.121 0.032325,-0.2145l0 -0.588075 0.195875 0 0 1.0975 -0.17505 0zm0.910225 -0.1665l0.02825 0.164375c-0.055,0.01095 -0.10445,0.0166 -0.147925,0.0166 -0.07135,0 -0.126375,-0.0106 -0.16575,-0.032125 -0.039025,-0.02115 -0.066525,-0.049375 -0.082525,-0.0843 -0.015975,-0.034575 -0.02415,-0.10795 -0.02415,-0.219425l0 -0.631475 -0.14385 0 0 -0.14465 0.14385 0 0 -0.272 0.195125 -0.111475 0 0.383475 0.196975 0 0 0.14465 -0.196975 0 0 0.6417c0,0.053275 0.00335,0.087125 0.010025,0.1023 0.007075,0.015175 0.018225,0.027175 0.033825,0.03635 0.015625,0.0088 0.037925,0.0134 0.0669,0.0134 0.02195,0 0.05055,-0.002475 0.086225,-0.0074zm0.247175 0.1665l0 -0.212025 0.22335 0 0 0.212025 -0.22335 0zm1.3187 -0.402175l0.1925 0.024c-0.0208,0.12595 -0.0747,0.224725 -0.161675,0.295975 -0.0866,0.071275 -0.193275,0.1069 -0.31965,0.1069 -0.15795,0 -0.285425,-0.04905 -0.381325,-0.147125 -0.096275,-0.09805 -0.144575,-0.238825 -0.144575,-0.422275 0,-0.118525 0.0208,-0.22225 0.062075,-0.31115 0.041625,-0.0889 0.104425,-0.155575 0.189175,-0.200025 0.08435,-0.04445 0.17655,-0.066675 0.2758,-0.066675 0.1256,0 0.22855,0.03035 0.3081,0.090675 0.079925,0.060325 0.1312,0.1457 0.153875,0.256825l-0.190675 0.027875c-0.018225,-0.07375 -0.050175,-0.129125 -0.09625,-0.166525 -0.0461,-0.03705 -0.101825,-0.055725 -0.167275,-0.055725 -0.098875,0 -0.17915,0.0335 -0.240825,0.100875 -0.061725,0.067025 -0.092575,0.173225 -0.092575,0.318575 0,0.14745 0.02975,0.2547 0.0896,0.321725 0.059475,0.066675 0.13715,0.1002 0.23305,0.1002 0.076925,0 0.14085,-0.022575 0.1925,-0.0674 0.051675,-0.0448 0.0844,-0.113575 0.09815,-0.206725zm0.2873 -0.14675c0,-0.2032 0.059475,-0.353825 0.1788,-0.45155 0.0992,-0.08115 0.2204,-0.122075 0.363475,-0.122075 0.159075,0 0.289175,0.0494 0.3899,0.148525 0.101075,0.098775 0.15125,0.2353 0.15125,0.409575 0,0.141475 -0.022275,0.2526 -0.0669,0.333375 -0.0446,0.08115 -0.10965,0.14395 -0.19475,0.18875 -0.0855,0.0448 -0.1784,0.067025 -0.2795,0.067025 -0.161675,0 -0.2925,-0.04905 -0.392475,-0.147825 -0.1,-0.098425 -0.1498,-0.24025 -0.1498,-0.4258zm0.20145 0c0,0.14075 0.032325,0.2459 0.097,0.31575 0.064675,0.0702 0.146075,0.105125 0.243825,0.105125 0.097375,0 0.178425,-0.035275 0.243075,-0.1055 0.0643,-0.0702 0.09665,-0.17745 0.09665,-0.321375 0,-0.135825 -0.03235,-0.238825 -0.0974,-0.308675 -0.06505,-0.06985 -0.1457,-0.104775 -0.242325,-0.104775 -0.09775,0 -0.17915,0.034925 -0.243825,0.104425 -0.064675,0.0695 -0.097,0.174625 -0.097,0.315025zm1.16745 0.548925l0 -0.212025 0.22335 0 0 0.212025 -0.22335 0zm1.32203 0l0 -0.161225c-0.090325,0.124175 -0.2126,0.185925 -0.367225,0.185925 -0.068,0 -0.13195,-0.01235 -0.191025,-0.03705 -0.0591,-0.0247 -0.10295,-0.0561 -0.1316,-0.093475 -0.028975,-0.03775 -0.049025,-0.083625 -0.060575,-0.13795 -0.0078,-0.036675 -0.011875,-0.09455 -0.011875,-0.173925l0 -0.6798 0.19585 0 0 0.60855c0,0.097375 0.0041,0.162625 0.0119,0.1965 0.01265,0.049025 0.03865,0.087125 0.078425,0.11535 0.04015,0.027875 0.089575,0.041625 0.148325,0.041625 0.0587,0 0.113725,-0.0141 0.165375,-0.042675 0.051675,-0.028575 0.088075,-0.067725 0.109275,-0.116775 0.02155,-0.049375 0.032325,-0.121 0.032325,-0.2145l0 -0.588075 0.195875 0 0 1.0975 -0.17505 0zm0.483175 0l0 -1.51517 0.19625 0 0 0.86395 0.46385 -0.446275 0.253475 0 -0.441925 0.4071 0.4869 0.6904 -0.24195 0 -0.3821 -0.561275 -0.13825 0.1263 0 0.434975 -0.19625 0z"/>
  <path class="fil0" d="M2.5 0c-1.38,0 -2.5,1.12 -2.5,2.5l0 5c0,1.38 1.12,2.5 2.5,2.5l12.5 0c1.38,0 2.5,-1.12 2.5,-2.5l0 -5c0,-1.38 -1.12,-2.5 -2.5,-2.5l-12.5 0zm2.5 2.49845c1.38,0 2.5,1.11998 2.5,2.49997 0,1.38 -1.12,2.5 -2.5,2.5 -1.38,0 -2.5,-1.12 -2.5,-2.5 0,-1.38 1.12,-2.49997 2.5,-2.49997zm7.5 0c1.38,0 2.5,1.11998 2.5,2.49997 0,1.38 -1.12,2.5 -2.5,2.5 -1.38,0 -2.5,-1.12 -2.5,-2.5 0,-1.38 1.12,-2.49997 2.5,-2.49997z"/>
 </g>
</svg>
